# MagicaVoxel @ Ephtracy

# group
o 

# material
mtllib LaserCanon-3.mtl
usemtl palette

# normals
vn -1 0 0
vn 1 0 0
vn 0 0 1
vn 0 0 -1
vn 0 -1 0
vn 0 1 0

# texcoords
vt 0.970703 0.5
vt 0.974609 0.5

# verts
v -1.6 1.6 0.4
v -1.6 1.6 -0.1
v -1.6 1.7 0.3
v -1.6 1.7 0
v -1.6 2.1 0.3
v -1.6 2.1 0
v -1.6 2.2 0.4
v -1.6 2.2 -0.1
v -1.1 1.5 0.4
v -1.1 1.5 -0.1
v -1.1 1.6 0.4
v -1.1 1.6 -0.1
v -0.7 1.9 0.4
v -0.7 1.9 0.3
v -0.7 1.9 0
v -0.7 1.9 -0.1
v -0.7 2.1 0.3
v -0.7 2.1 0
v -0.7 2.2 0.4
v -0.7 2.2 -0.1
v -0.5 1.7 0.3
v -0.5 1.7 0
v -0.5 1.9 0.3
v -0.5 1.9 0
v -0.3 1.4 0.4
v -0.3 1.4 -0.1
v -0.3 1.5 0.5
v -0.3 1.5 0.4
v -0.3 1.5 -0.1
v -0.3 1.5 -0.2
v -0.3 1.7 0.5
v -0.3 1.7 0.4
v -0.3 1.7 -0.1
v -0.3 1.7 -0.2
v -0.3 1.9 0.3
v -0.3 1.9 0
v -0.3 2.1 0.3
v -0.3 2.1 0
v -0.1 1.7 0.5
v -0.1 1.7 0.4
v -0.1 1.7 -0.1
v -0.1 1.7 -0.2
v -0.1 2.2 0.5
v -0.1 2.2 0.4
v -0.1 2.2 -0.1
v -0.1 2.2 -0.2
v -0.1 2.3 0.4
v -0.1 2.3 -0.1
v 0.4 2.2 0.3
v 0.4 2.2 0
v 0.4 2.3 0.3
v 0.4 2.3 0
v 0.5 1.5 0.2
v 0.5 1.5 0.1
v 0.5 1.8 0.2
v 0.5 1.8 0.1
v 0.8 1.7 0.3
v 0.8 1.7 0
v 0.8 1.8 0.3
v 0.8 1.8 0
v 0.9 1.5 0.3
v 0.9 1.5 0.2
v 0.9 1.5 0.1
v 0.9 1.5 0
v 0.9 1.6 0.2
v 0.9 1.6 0.1
v 0.9 1.7 0.3
v 0.9 1.7 0
v 1 1.3 0.3
v 1 1.3 0
v 1 1.5 0.3
v 1 1.5 0
v 1.1 1.1 0.3
v 1.1 1.1 0
v 1.1 1.3 0.3
v 1.1 1.3 0
v 1.3 1.9 0.3
v 1.3 1.9 0
v 1.3 2.1 0.3
v 1.3 2.1 0
v -1.4 2.1 0.3
v -1.4 2.1 0
v -1.4 2.2 0.3
v -1.4 2.2 0
v -1.3 1.9 0.4
v -1.3 1.9 0.3
v -1.3 1.9 0
v -1.3 1.9 -0.1
v -1.3 2.2 0.4
v -1.3 2.2 0.3
v -1.3 2.2 0
v -1.3 2.2 -0.1
v -0.1 1.4 0.4
v -0.1 1.4 -0.1
v -0.1 1.5 0.4
v -0.1 1.5 -0.1
v 0 1.5 0.5
v 0 1.5 -0.2
v 0 1.6 0.5
v 0 1.6 -0.2
v 0.2 1.6 0.5
v 0.2 1.6 -0.2
v 0.2 1.7 0.4
v 0.2 1.7 -0.1
v 0.2 1.8 0.3
v 0.2 1.8 0
v 0.2 2.2 0.5
v 0.2 2.2 0.4
v 0.2 2.2 0.3
v 0.2 2.2 0
v 0.2 2.2 -0.1
v 0.2 2.2 -0.2
v 0.2 2.3 0.4
v 0.2 2.3 -0.1
v 0.6 1.6 0.2
v 0.6 1.6 0.1
v 0.6 1.8 0.2
v 0.6 1.8 0.1
v 0.8 2.2 0.3
v 0.8 2.2 0
v 0.8 2.3 0.3
v 0.8 2.3 0
v 1 2.1 0.3
v 1 2.1 0
v 1 2.2 0.3
v 1 2.2 0
v 1.1 2 0.3
v 1.1 2 0
v 1.1 2.1 0.3
v 1.1 2.1 0
v 1.2 1.9 0.3
v 1.2 1.9 0
v 1.2 2 0.3
v 1.2 2 0
v 1.3 1.6 0.3
v 1.3 1.6 0
v 1.3 1.7 0.3
v 1.3 1.7 0
v 1.4 1.4 0.3
v 1.4 1.4 0
v 1.4 1.6 0.3
v 1.4 1.6 0
v 1.5 1.1 0.3
v 1.5 1.1 0
v 1.5 1.4 0.3
v 1.5 1.4 0
v 1.6 2 0.3
v 1.6 2 0.2
v 1.6 2 0.1
v 1.6 2 0
v 1.6 2.1 0.3
v 1.6 2.1 0.2
v 1.6 2.1 0.1
v 1.6 2.1 0
v 1.7 1.7 0.3
v 1.7 1.7 0
v 1.7 2 0.3
v 1.7 2 0.2
v 1.7 2 0.1
v 1.7 2 0
v 1.7 2.1 0.2
v 1.7 2.1 0.1
v -0.3 1.5 0.5
v -0.3 1.7 0.5
v -0.1 1.7 0.5
v -0.1 2.2 0.5
v 0 1.5 0.5
v 0 1.6 0.5
v 0.2 1.6 0.5
v 0.2 2.2 0.5
v -1.6 1.6 0.4
v -1.6 2.2 0.4
v -1.3 1.9 0.4
v -1.3 2.2 0.4
v -1.1 1.5 0.4
v -1.1 1.6 0.4
v -0.7 1.9 0.4
v -0.7 2.2 0.4
v -0.3 1.4 0.4
v -0.3 1.5 0.4
v -0.3 1.7 0.4
v -0.1 1.4 0.4
v -0.1 1.5 0.4
v -0.1 1.7 0.4
v -0.1 2.2 0.4
v -0.1 2.3 0.4
v 0.2 2.2 0.4
v 0.2 2.3 0.4
v 0.2 1.8 0.3
v 0.2 2.2 0.3
v 0.4 2.2 0.3
v 0.4 2.3 0.3
v 0.8 1.7 0.3
v 0.8 1.8 0.3
v 0.8 2.2 0.3
v 0.8 2.3 0.3
v 0.9 1.5 0.3
v 0.9 1.7 0.3
v 1 1.3 0.3
v 1 1.5 0.3
v 1 2.1 0.3
v 1 2.2 0.3
v 1.1 1.1 0.3
v 1.1 1.3 0.3
v 1.1 2 0.3
v 1.1 2.1 0.3
v 1.2 1.9 0.3
v 1.2 2 0.3
v 1.3 1.6 0.3
v 1.3 1.7 0.3
v 1.3 1.9 0.3
v 1.3 2.1 0.3
v 1.4 1.4 0.3
v 1.4 1.6 0.3
v 1.5 1.1 0.3
v 1.5 1.4 0.3
v 1.6 2 0.3
v 1.6 2.1 0.3
v 1.7 1.7 0.3
v 1.7 2 0.3
v 0.5 1.5 0.2
v 0.5 1.8 0.2
v 0.6 1.6 0.2
v 0.6 1.8 0.2
v 0.9 1.5 0.2
v 0.9 1.6 0.2
v 1.6 2 0.2
v 1.6 2.1 0.2
v 1.7 2 0.2
v 1.7 2.1 0.2
v -1.6 1.7 0
v -1.6 2.1 0
v -1.4 2.1 0
v -1.4 2.2 0
v -1.3 1.9 0
v -1.3 2.2 0
v -0.7 1.9 0
v -0.7 2.1 0
v -0.5 1.7 0
v -0.5 1.9 0
v -0.3 1.9 0
v -0.3 2.1 0
v -1.6 1.7 0.3
v -1.6 2.1 0.3
v -1.4 2.1 0.3
v -1.4 2.2 0.3
v -1.3 1.9 0.3
v -1.3 2.2 0.3
v -0.7 1.9 0.3
v -0.7 2.1 0.3
v -0.5 1.7 0.3
v -0.5 1.9 0.3
v -0.3 1.9 0.3
v -0.3 2.1 0.3
v 0.5 1.5 0.1
v 0.5 1.8 0.1
v 0.6 1.6 0.1
v 0.6 1.8 0.1
v 0.9 1.5 0.1
v 0.9 1.6 0.1
v 1.6 2 0.1
v 1.6 2.1 0.1
v 1.7 2 0.1
v 1.7 2.1 0.1
v 0.2 1.8 0
v 0.2 2.2 0
v 0.4 2.2 0
v 0.4 2.3 0
v 0.8 1.7 0
v 0.8 1.8 0
v 0.8 2.2 0
v 0.8 2.3 0
v 0.9 1.5 0
v 0.9 1.7 0
v 1 1.3 0
v 1 1.5 0
v 1 2.1 0
v 1 2.2 0
v 1.1 1.1 0
v 1.1 1.3 0
v 1.1 2 0
v 1.1 2.1 0
v 1.2 1.9 0
v 1.2 2 0
v 1.3 1.6 0
v 1.3 1.7 0
v 1.3 1.9 0
v 1.3 2.1 0
v 1.4 1.4 0
v 1.4 1.6 0
v 1.5 1.1 0
v 1.5 1.4 0
v 1.6 2 0
v 1.6 2.1 0
v 1.7 1.7 0
v 1.7 2 0
v -1.6 1.6 -0.1
v -1.6 2.2 -0.1
v -1.3 1.9 -0.1
v -1.3 2.2 -0.1
v -1.1 1.5 -0.1
v -1.1 1.6 -0.1
v -0.7 1.9 -0.1
v -0.7 2.2 -0.1
v -0.3 1.4 -0.1
v -0.3 1.5 -0.1
v -0.3 1.7 -0.1
v -0.1 1.4 -0.1
v -0.1 1.5 -0.1
v -0.1 1.7 -0.1
v -0.1 2.2 -0.1
v -0.1 2.3 -0.1
v 0.2 2.2 -0.1
v 0.2 2.3 -0.1
v -0.3 1.5 -0.2
v -0.3 1.7 -0.2
v -0.1 1.7 -0.2
v -0.1 2.2 -0.2
v 0 1.5 -0.2
v 0 1.6 -0.2
v 0.2 1.6 -0.2
v 0.2 2.2 -0.2
v 1.1 1.1 0.3
v 1.5 1.1 0.3
v 1.1 1.1 0
v 1.5 1.1 0
v 1 1.3 0.3
v 1.1 1.3 0.3
v 1 1.3 0
v 1.1 1.3 0
v -0.3 1.4 0.4
v -0.1 1.4 0.4
v -0.3 1.4 -0.1
v -0.1 1.4 -0.1
v -0.3 1.5 0.5
v 0 1.5 0.5
v -1.1 1.5 0.4
v -0.3 1.5 0.4
v -0.1 1.5 0.4
v 0.9 1.5 0.3
v 1 1.5 0.3
v 0.5 1.5 0.2
v 0.9 1.5 0.2
v 0.5 1.5 0.1
v 0.9 1.5 0.1
v 0.9 1.5 0
v 1 1.5 0
v -1.1 1.5 -0.1
v -0.3 1.5 -0.1
v -0.1 1.5 -0.1
v -0.3 1.5 -0.2
v 0 1.5 -0.2
v 0 1.6 0.5
v 0.2 1.6 0.5
v -1.6 1.6 0.4
v -1.1 1.6 0.4
v -1.6 1.6 -0.1
v -1.1 1.6 -0.1
v 0 1.6 -0.2
v 0.2 1.6 -0.2
v 0.8 1.7 0.3
v 0.9 1.7 0.3
v 1.3 1.7 0.3
v 1.7 1.7 0.3
v 0.8 1.7 0
v 0.9 1.7 0
v 1.3 1.7 0
v 1.7 1.7 0
v 0.2 1.8 0.3
v 0.8 1.8 0.3
v 0.5 1.8 0.2
v 0.6 1.8 0.2
v 0.5 1.8 0.1
v 0.6 1.8 0.1
v 0.2 1.8 0
v 0.8 1.8 0
v -1.6 2.1 0.3
v -1.4 2.1 0.3
v -0.7 2.1 0.3
v -0.3 2.1 0.3
v -1.6 2.1 0
v -1.4 2.1 0
v -0.7 2.1 0
v -0.3 2.1 0
v 1.4 1.4 0.3
v 1.5 1.4 0.3
v 1.4 1.4 0
v 1.5 1.4 0
v 1.3 1.6 0.3
v 1.4 1.6 0.3
v 0.6 1.6 0.2
v 0.9 1.6 0.2
v 0.6 1.6 0.1
v 0.9 1.6 0.1
v 1.3 1.6 0
v 1.4 1.6 0
v -0.3 1.7 0.5
v -0.1 1.7 0.5
v -0.3 1.7 0.4
v -0.1 1.7 0.4
v -1.6 1.7 0.3
v -0.5 1.7 0.3
v -1.6 1.7 0
v -0.5 1.7 0
v -0.3 1.7 -0.1
v -0.1 1.7 -0.1
v -0.3 1.7 -0.2
v -0.1 1.7 -0.2
v -1.3 1.9 0.4
v -0.7 1.9 0.4
v -1.3 1.9 0.3
v -0.7 1.9 0.3
v -0.5 1.9 0.3
v -0.3 1.9 0.3
v 1.2 1.9 0.3
v 1.3 1.9 0.3
v -1.3 1.9 0
v -0.7 1.9 0
v -0.5 1.9 0
v -0.3 1.9 0
v 1.2 1.9 0
v 1.3 1.9 0
v -1.3 1.9 -0.1
v -0.7 1.9 -0.1
v 1.1 2 0.3
v 1.2 2 0.3
v 1.6 2 0.3
v 1.7 2 0.3
v 1.6 2 0.2
v 1.7 2 0.2
v 1.6 2 0.1
v 1.7 2 0.1
v 1.1 2 0
v 1.2 2 0
v 1.6 2 0
v 1.7 2 0
v 1 2.1 0.3
v 1.1 2.1 0.3
v 1.3 2.1 0.3
v 1.6 2.1 0.3
v 1.6 2.1 0.2
v 1.7 2.1 0.2
v 1.6 2.1 0.1
v 1.7 2.1 0.1
v 1 2.1 0
v 1.1 2.1 0
v 1.3 2.1 0
v 1.6 2.1 0
v -0.1 2.2 0.5
v 0.2 2.2 0.5
v -1.6 2.2 0.4
v -1.3 2.2 0.4
v -0.7 2.2 0.4
v -0.1 2.2 0.4
v 0.2 2.2 0.4
v -1.4 2.2 0.3
v -1.3 2.2 0.3
v 0.2 2.2 0.3
v 0.4 2.2 0.3
v 0.8 2.2 0.3
v 1 2.2 0.3
v -1.4 2.2 0
v -1.3 2.2 0
v 0.2 2.2 0
v 0.4 2.2 0
v 0.8 2.2 0
v 1 2.2 0
v -1.6 2.2 -0.1
v -1.3 2.2 -0.1
v -0.7 2.2 -0.1
v -0.1 2.2 -0.1
v 0.2 2.2 -0.1
v -0.1 2.2 -0.2
v 0.2 2.2 -0.2
v -0.1 2.3 0.4
v 0.2 2.3 0.4
v 0.4 2.3 0.3
v 0.8 2.3 0.3
v 0.4 2.3 0
v 0.8 2.3 0
v -0.1 2.3 -0.1
v 0.2 2.3 -0.1

# faces
f 3/2/1 2/2/1 1/2/1
f 4/2/1 2/2/1 3/2/1
f 5/2/1 3/2/1 1/2/1
f 6/2/1 2/2/1 4/2/1
f 7/2/1 5/2/1 1/2/1
f 7/2/1 6/2/1 5/2/1
f 8/2/1 2/2/1 6/2/1
f 8/2/1 6/2/1 7/2/1
f 11/2/1 10/2/1 9/2/1
f 12/2/1 10/2/1 11/2/1
f 17/2/1 14/2/1 13/2/1
f 18/2/1 16/2/1 15/2/1
f 19/2/1 17/2/1 13/2/1
f 19/2/1 18/2/1 17/2/1
f 20/2/1 16/2/1 18/2/1
f 20/2/1 18/2/1 19/2/1
f 23/2/1 22/2/1 21/2/1
f 24/2/1 22/2/1 23/2/1
f 28/1/1 26/1/1 25/1/1
f 29/1/1 26/1/1 28/1/1
f 31/1/1 28/1/1 27/1/1
f 32/1/1 28/1/1 31/1/1
f 33/1/1 30/1/1 29/1/1
f 34/1/1 30/1/1 33/1/1
f 37/2/1 36/2/1 35/2/1
f 38/2/1 36/2/1 37/2/1
f 43/1/1 40/1/1 39/1/1
f 44/1/1 40/1/1 43/1/1
f 45/1/1 42/1/1 41/1/1
f 46/1/1 42/1/1 45/1/1
f 47/1/1 45/1/1 44/1/1
f 48/1/1 45/1/1 47/1/1
f 51/2/1 50/2/1 49/2/1
f 52/2/1 50/2/1 51/2/1
f 55/2/1 54/2/1 53/2/1
f 56/2/1 54/2/1 55/2/1
f 59/2/1 58/2/1 57/2/1
f 60/2/1 58/2/1 59/2/1
f 65/2/1 62/2/1 61/2/1
f 66/2/1 64/2/1 63/2/1
f 67/2/1 65/2/1 61/2/1
f 67/2/1 66/2/1 65/2/1
f 68/2/1 64/2/1 66/2/1
f 68/2/1 66/2/1 67/2/1
f 71/2/1 70/2/1 69/2/1
f 72/2/1 70/2/1 71/2/1
f 75/2/1 74/2/1 73/2/1
f 76/2/1 74/2/1 75/2/1
f 79/2/1 78/2/1 77/2/1
f 80/2/1 78/2/1 79/2/1
f 81/2/2 82/2/2 83/2/2
f 83/2/2 82/2/2 84/2/2
f 85/2/2 86/2/2 89/2/2
f 89/2/2 86/2/2 90/2/2
f 87/2/2 88/2/2 91/2/2
f 91/2/2 88/2/2 92/2/2
f 93/1/2 94/1/2 95/1/2
f 95/1/2 94/1/2 96/1/2
f 97/1/2 98/1/2 99/1/2
f 99/1/2 98/1/2 100/1/2
f 101/1/2 102/1/2 103/1/2
f 103/1/2 102/1/2 104/1/2
f 103/2/2 104/2/2 105/2/2
f 105/2/2 104/2/2 106/2/2
f 101/1/2 103/1/2 107/1/2
f 103/2/2 105/2/2 108/2/2
f 107/1/2 103/1/2 108/1/2
f 108/2/2 105/2/2 109/2/2
f 106/2/2 104/2/2 110/2/2
f 104/1/2 102/1/2 111/1/2
f 110/2/2 104/2/2 111/2/2
f 111/1/2 102/1/2 112/1/2
f 108/1/2 109/1/2 113/1/2
f 109/1/2 110/1/2 113/1/2
f 110/1/2 111/1/2 113/1/2
f 113/1/2 111/1/2 114/1/2
f 115/2/2 116/2/2 117/2/2
f 117/2/2 116/2/2 118/2/2
f 119/2/2 120/2/2 121/2/2
f 121/2/2 120/2/2 122/2/2
f 123/2/2 124/2/2 125/2/2
f 125/2/2 124/2/2 126/2/2
f 127/2/2 128/2/2 129/2/2
f 129/2/2 128/2/2 130/2/2
f 131/2/2 132/2/2 133/2/2
f 133/2/2 132/2/2 134/2/2
f 135/2/2 136/2/2 137/2/2
f 137/2/2 136/2/2 138/2/2
f 139/2/2 140/2/2 141/2/2
f 141/2/2 140/2/2 142/2/2
f 143/2/2 144/2/2 145/2/2
f 145/2/2 144/2/2 146/2/2
f 147/2/2 148/2/2 151/2/2
f 151/2/2 148/2/2 152/2/2
f 149/2/2 150/2/2 153/2/2
f 153/2/2 150/2/2 154/2/2
f 155/2/2 156/2/2 157/2/2
f 157/2/2 156/2/2 158/2/2
f 158/2/2 156/2/2 159/2/2
f 159/2/2 156/2/2 160/2/2
f 158/2/2 159/2/2 161/2/2
f 161/2/2 159/2/2 162/2/2
f 165/1/3 164/1/3 163/1/3
f 167/1/3 165/1/3 163/1/3
f 167/1/3 166/1/3 165/1/3
f 168/1/3 166/1/3 167/1/3
f 169/1/3 166/1/3 168/1/3
f 170/1/3 166/1/3 169/1/3
f 173/2/3 172/2/3 171/2/3
f 174/2/3 172/2/3 173/2/3
f 176/2/3 173/2/3 171/2/3
f 177/2/3 173/2/3 176/2/3
f 177/2/3 176/2/3 175/2/3
f 180/2/3 177/2/3 175/2/3
f 180/2/3 178/2/3 177/2/3
f 181/2/3 178/2/3 180/2/3
f 182/1/3 180/1/3 179/1/3
f 183/1/3 180/1/3 182/1/3
f 184/2/3 178/2/3 181/2/3
f 185/2/3 178/2/3 184/2/3
f 187/1/3 186/1/3 185/1/3
f 188/1/3 186/1/3 187/1/3
f 191/2/3 190/2/3 189/2/3
f 194/2/3 191/2/3 189/2/3
f 194/2/3 192/2/3 191/2/3
f 195/2/3 192/2/3 194/2/3
f 196/2/3 192/2/3 195/2/3
f 198/2/3 194/2/3 193/2/3
f 198/2/3 195/2/3 194/2/3
f 200/2/3 198/2/3 197/2/3
f 201/2/3 195/2/3 198/2/3
f 201/2/3 198/2/3 200/2/3
f 202/2/3 195/2/3 201/2/3
f 204/2/3 200/2/3 199/2/3
f 204/2/3 201/2/3 200/2/3
f 205/2/3 201/2/3 204/2/3
f 206/2/3 201/2/3 205/2/3
f 207/2/3 204/2/3 203/2/3
f 207/2/3 205/2/3 204/2/3
f 208/2/3 205/2/3 207/2/3
f 209/2/3 207/2/3 203/2/3
f 210/2/3 207/2/3 209/2/3
f 211/2/3 207/2/3 210/2/3
f 213/2/3 209/2/3 203/2/3
f 214/2/3 209/2/3 213/2/3
f 215/2/3 213/2/3 203/2/3
f 216/2/3 213/2/3 215/2/3
f 217/2/3 211/2/3 210/2/3
f 217/2/3 212/2/3 211/2/3
f 218/2/3 212/2/3 217/2/3
f 219/2/3 217/2/3 210/2/3
f 220/2/3 217/2/3 219/2/3
f 223/2/3 222/2/3 221/2/3
f 224/2/3 222/2/3 223/2/3
f 225/2/3 223/2/3 221/2/3
f 226/2/3 223/2/3 225/2/3
f 229/2/3 228/2/3 227/2/3
f 230/2/3 228/2/3 229/2/3
f 233/2/3 232/2/3 231/2/3
f 235/2/3 233/2/3 231/2/3
f 235/2/3 234/2/3 233/2/3
f 236/2/3 234/2/3 235/2/3
f 237/2/3 235/2/3 231/2/3
f 239/2/3 237/2/3 231/2/3
f 239/2/3 238/2/3 237/2/3
f 240/2/3 238/2/3 239/2/3
f 241/2/3 238/2/3 240/2/3
f 242/2/3 238/2/3 241/2/3
f 243/2/4 244/2/4 245/2/4
f 243/2/4 245/2/4 247/2/4
f 245/2/4 246/2/4 247/2/4
f 247/2/4 246/2/4 248/2/4
f 243/2/4 247/2/4 249/2/4
f 243/2/4 249/2/4 251/2/4
f 249/2/4 250/2/4 251/2/4
f 251/2/4 250/2/4 252/2/4
f 252/2/4 250/2/4 253/2/4
f 253/2/4 250/2/4 254/2/4
f 255/2/4 256/2/4 257/2/4
f 257/2/4 256/2/4 258/2/4
f 255/2/4 257/2/4 259/2/4
f 259/2/4 257/2/4 260/2/4
f 261/2/4 262/2/4 263/2/4
f 263/2/4 262/2/4 264/2/4
f 265/2/4 266/2/4 267/2/4
f 265/2/4 267/2/4 270/2/4
f 267/2/4 268/2/4 270/2/4
f 270/2/4 268/2/4 271/2/4
f 271/2/4 268/2/4 272/2/4
f 269/2/4 270/2/4 274/2/4
f 270/2/4 271/2/4 274/2/4
f 273/2/4 274/2/4 276/2/4
f 274/2/4 271/2/4 277/2/4
f 276/2/4 274/2/4 277/2/4
f 277/2/4 271/2/4 278/2/4
f 275/2/4 276/2/4 280/2/4
f 276/2/4 277/2/4 280/2/4
f 280/2/4 277/2/4 281/2/4
f 281/2/4 277/2/4 282/2/4
f 279/2/4 280/2/4 283/2/4
f 280/2/4 281/2/4 283/2/4
f 283/2/4 281/2/4 284/2/4
f 279/2/4 283/2/4 285/2/4
f 285/2/4 283/2/4 286/2/4
f 286/2/4 283/2/4 287/2/4
f 279/2/4 285/2/4 289/2/4
f 289/2/4 285/2/4 290/2/4
f 279/2/4 289/2/4 291/2/4
f 291/2/4 289/2/4 292/2/4
f 286/2/4 287/2/4 293/2/4
f 287/2/4 288/2/4 293/2/4
f 293/2/4 288/2/4 294/2/4
f 286/2/4 293/2/4 295/2/4
f 295/2/4 293/2/4 296/2/4
f 297/2/4 298/2/4 299/2/4
f 299/2/4 298/2/4 300/2/4
f 297/2/4 299/2/4 302/2/4
f 302/2/4 299/2/4 303/2/4
f 301/2/4 302/2/4 303/2/4
f 301/2/4 303/2/4 306/2/4
f 303/2/4 304/2/4 306/2/4
f 306/2/4 304/2/4 307/2/4
f 305/1/4 306/1/4 308/1/4
f 308/1/4 306/1/4 309/1/4
f 307/2/4 304/2/4 310/2/4
f 310/2/4 304/2/4 311/2/4
f 311/1/4 312/1/4 313/1/4
f 313/1/4 312/1/4 314/1/4
f 315/1/4 316/1/4 317/1/4
f 315/1/4 317/1/4 319/1/4
f 317/1/4 318/1/4 319/1/4
f 319/1/4 318/1/4 320/1/4
f 320/1/4 318/1/4 321/1/4
f 321/1/4 318/1/4 322/1/4
f 325/2/5 324/2/5 323/2/5
f 326/2/5 324/2/5 325/2/5
f 329/2/5 328/2/5 327/2/5
f 330/2/5 328/2/5 329/2/5
f 333/1/5 332/1/5 331/1/5
f 334/1/5 332/1/5 333/1/5
f 338/1/5 336/1/5 335/1/5
f 339/1/5 336/1/5 338/1/5
f 343/2/5 341/2/5 340/2/5
f 344/2/5 343/2/5 342/2/5
f 345/2/5 341/2/5 343/2/5
f 345/2/5 343/2/5 344/2/5
f 346/2/5 341/2/5 345/2/5
f 347/2/5 341/2/5 346/2/5
f 348/2/5 338/2/5 337/2/5
f 349/2/5 338/2/5 348/2/5
f 350/1/5 336/1/5 339/1/5
f 351/1/5 350/1/5 349/1/5
f 352/1/5 336/1/5 350/1/5
f 352/1/5 350/1/5 351/1/5
f 357/2/5 356/2/5 355/2/5
f 358/2/5 356/2/5 357/2/5
f 359/1/5 354/1/5 353/1/5
f 360/1/5 354/1/5 359/1/5
f 365/2/5 362/2/5 361/2/5
f 366/2/5 362/2/5 365/2/5
f 367/2/5 364/2/5 363/2/5
f 368/2/5 364/2/5 367/2/5
f 371/2/5 370/2/5 369/2/5
f 372/2/5 370/2/5 371/2/5
f 373/2/5 371/2/5 369/2/5
f 374/2/5 370/2/5 372/2/5
f 375/2/5 373/2/5 369/2/5
f 375/2/5 374/2/5 373/2/5
f 376/2/5 370/2/5 374/2/5
f 376/2/5 374/2/5 375/2/5
f 381/2/5 378/2/5 377/2/5
f 382/2/5 378/2/5 381/2/5
f 383/2/5 380/2/5 379/2/5
f 384/2/5 380/2/5 383/2/5
f 385/2/6 386/2/6 387/2/6
f 387/2/6 386/2/6 388/2/6
f 391/2/6 392/2/6 393/2/6
f 393/2/6 392/2/6 394/2/6
f 389/2/6 390/2/6 395/2/6
f 395/2/6 390/2/6 396/2/6
f 397/1/6 398/1/6 399/1/6
f 399/1/6 398/1/6 400/1/6
f 401/2/6 402/2/6 403/2/6
f 403/2/6 402/2/6 404/2/6
f 405/1/6 406/1/6 407/1/6
f 407/1/6 406/1/6 408/1/6
f 409/2/6 410/2/6 411/2/6
f 411/2/6 410/2/6 412/2/6
f 413/2/6 414/2/6 419/2/6
f 419/2/6 414/2/6 420/2/6
f 415/2/6 416/2/6 421/2/6
f 421/2/6 416/2/6 422/2/6
f 417/2/6 418/2/6 423/2/6
f 423/2/6 418/2/6 424/2/6
f 427/2/6 428/2/6 429/2/6
f 429/2/6 428/2/6 430/2/6
f 425/2/6 426/2/6 433/2/6
f 433/2/6 426/2/6 434/2/6
f 431/2/6 432/2/6 435/2/6
f 435/2/6 432/2/6 436/2/6
f 439/2/6 440/2/6 441/2/6
f 439/2/6 441/2/6 443/2/6
f 441/2/6 442/2/6 443/2/6
f 443/2/6 442/2/6 444/2/6
f 437/2/6 438/2/6 445/2/6
f 445/2/6 438/2/6 446/2/6
f 439/2/6 443/2/6 447/2/6
f 447/2/6 443/2/6 448/2/6
f 449/1/6 450/1/6 454/1/6
f 454/1/6 450/1/6 455/1/6
f 451/2/6 452/2/6 456/2/6
f 456/2/6 452/2/6 457/2/6
f 451/2/6 456/2/6 462/2/6
f 458/2/6 459/2/6 464/2/6
f 464/2/6 459/2/6 465/2/6
f 460/2/6 461/2/6 466/2/6
f 466/2/6 461/2/6 467/2/6
f 462/2/6 463/2/6 468/2/6
f 451/2/6 462/2/6 468/2/6
f 468/2/6 463/2/6 469/2/6
f 453/2/6 454/2/6 470/2/6
f 470/2/6 454/2/6 471/2/6
f 471/1/6 472/1/6 473/1/6
f 473/1/6 472/1/6 474/1/6
f 477/2/6 478/2/6 479/2/6
f 479/2/6 478/2/6 480/2/6
f 475/1/6 476/1/6 481/1/6
f 481/1/6 476/1/6 482/1/6
