# MagicaVoxel @ Ephtracy

# group
o 

# material
mtllib MainDungeonParts-14.mtl
usemtl palette

# normals
vn -1 0 0
vn 1 0 0
vn 0 0 1
vn 0 0 -1
vn 0 -1 0
vn 0 1 0

# texcoords
vt 0.966797 0.5
vt 0.970703 0.5
vt 0.974609 0.5
vt 0.982422 0.5

# verts
v -10.9 0 -5.1
v -10.9 0 -7.5
v -10.9 0.1 -5.1
v -10.9 0.1 -7.5
v -10.9 0.1 -7.6
v -10.9 0.2 -5.1
v -10.9 0.2 -7.6
v -10.8 0 -7.5
v -10.8 0 -7.6
v -10.8 0.1 -7.5
v -10.8 0.1 -7.6
v -10.4 0.1 -5.6
v -10.4 0.1 -7.1
v -10.4 0.2 -5.6
v -10.4 0.2 -7.1
v -8.7 0.1 -5.4
v -8.7 0.1 -7.3
v -8.7 0.2 -5.4
v -8.7 0.2 -7.3
v -10.6 0.1 -5.4
v -10.6 0.1 -7.3
v -10.6 0.2 -5.4
v -10.6 0.2 -7.3
v -8.9 0.1 -5.6
v -8.9 0.1 -7.1
v -8.9 0.2 -5.6
v -8.9 0.2 -7.1
v -8.4 0 -5.1
v -8.4 0 -5.3
v -8.4 0 -7.6
v -8.4 0.1 -5.1
v -8.4 0.1 -5.3
v -8.4 0.1 -7.6
v -8.4 0.2 -5.1
v -8.4 0.2 -7.6
v -10.9 0 -5.1
v -10.9 0.1 -5.1
v -10.9 0.2 -5.1
v -8.4 0 -5.1
v -8.4 0.1 -5.1
v -8.4 0.2 -5.1
v -10.4 0.1 -5.6
v -10.4 0.2 -5.6
v -8.9 0.1 -5.6
v -8.9 0.2 -5.6
v -10.6 0.1 -7.3
v -10.6 0.2 -7.3
v -8.7 0.1 -7.3
v -8.7 0.2 -7.3
v -10.6 0.1 -5.4
v -10.6 0.2 -5.4
v -8.7 0.1 -5.4
v -8.7 0.2 -5.4
v -10.4 0.1 -7.1
v -10.4 0.2 -7.1
v -8.9 0.1 -7.1
v -8.9 0.2 -7.1
v -10.9 0 -7.5
v -10.9 0.1 -7.5
v -10.8 0 -7.5
v -10.8 0.1 -7.5
v -10.9 0.1 -7.6
v -10.9 0.2 -7.6
v -10.8 0 -7.6
v -10.8 0.1 -7.6
v -10.7 0 -7.6
v -10.7 0.1 -7.6
v -8.4 0 -7.6
v -8.4 0.1 -7.6
v -8.4 0.2 -7.6
v -10.9 0 -5.1
v -8.4 0 -5.1
v -10.7 0 -5.3
v -8.4 0 -5.3
v -10.9 0 -7.5
v -10.8 0 -7.5
v -10.8 0 -7.6
v -10.7 0 -7.6
v -8.4 0 -7.6
v -10.9 0.1 -7.5
v -10.8 0.1 -7.5
v -10.9 0.1 -7.6
v -10.8 0.1 -7.6
v -10.6 0.1 -5.4
v -8.7 0.1 -5.4
v -10.4 0.1 -5.6
v -8.9 0.1 -5.6
v -10.4 0.1 -7.1
v -8.9 0.1 -7.1
v -10.6 0.1 -7.3
v -8.7 0.1 -7.3
v -10.9 0.2 -5.1
v -8.4 0.2 -5.1
v -10.8 0.2 -5.2
v -8.5 0.2 -5.2
v -10.6 0.2 -5.4
v -8.7 0.2 -5.4
v -10.4 0.2 -5.6
v -8.9 0.2 -5.6
v -10.4 0.2 -7.1
v -8.9 0.2 -7.1
v -10.6 0.2 -7.3
v -8.7 0.2 -7.3
v -10.8 0.2 -7.5
v -8.5 0.2 -7.5
v -10.9 0.2 -7.6
v -8.4 0.2 -7.6

# faces
f 3/1/1 2/1/1 1/1/1
f 4/1/1 2/1/1 3/1/1
f 6/4/1 4/4/1 3/4/1
f 6/4/1 5/4/1 4/4/1
f 7/4/1 5/4/1 6/4/1
f 10/1/1 9/1/1 8/1/1
f 11/1/1 9/1/1 10/1/1
f 14/3/1 13/3/1 12/3/1
f 15/3/1 13/3/1 14/3/1
f 18/3/1 17/3/1 16/3/1
f 19/3/1 17/3/1 18/3/1
f 20/3/2 21/3/2 22/3/2
f 22/3/2 21/3/2 23/3/2
f 24/3/2 25/3/2 26/3/2
f 26/3/2 25/3/2 27/3/2
f 28/1/2 29/1/2 31/1/2
f 29/2/2 30/2/2 32/2/2
f 31/1/2 29/1/2 32/1/2
f 32/2/2 30/2/2 33/2/2
f 31/4/2 32/4/2 34/4/2
f 32/4/2 33/4/2 34/4/2
f 34/4/2 33/4/2 35/4/2
f 39/1/3 37/1/3 36/1/3
f 40/4/3 38/4/3 37/4/3
f 40/1/3 37/1/3 39/1/3
f 41/4/3 38/4/3 40/4/3
f 44/3/3 43/3/3 42/3/3
f 45/3/3 43/3/3 44/3/3
f 48/3/3 47/3/3 46/3/3
f 49/3/3 47/3/3 48/3/3
f 50/3/4 51/3/4 52/3/4
f 52/3/4 51/3/4 53/3/4
f 54/3/4 55/3/4 56/3/4
f 56/3/4 55/3/4 57/3/4
f 58/1/4 59/1/4 60/1/4
f 60/1/4 59/1/4 61/1/4
f 62/4/4 63/4/4 65/4/4
f 64/1/4 65/1/4 66/1/4
f 65/4/4 63/4/4 67/4/4
f 66/1/4 65/1/4 67/1/4
f 66/2/4 67/2/4 68/2/4
f 67/4/4 63/4/4 69/4/4
f 68/2/4 67/2/4 69/2/4
f 69/4/4 63/4/4 70/4/4
f 73/1/5 72/1/5 71/1/5
f 74/1/5 72/1/5 73/1/5
f 75/1/5 73/1/5 71/1/5
f 76/1/5 73/1/5 75/1/5
f 77/1/5 73/1/5 76/1/5
f 78/2/5 74/2/5 73/2/5
f 78/1/5 73/1/5 77/1/5
f 79/2/5 74/2/5 78/2/5
f 82/4/5 81/4/5 80/4/5
f 83/4/5 81/4/5 82/4/5
f 84/2/6 85/2/6 86/2/6
f 86/2/6 85/2/6 87/2/6
f 84/2/6 86/2/6 88/2/6
f 87/2/6 85/2/6 89/2/6
f 84/2/6 88/2/6 90/2/6
f 88/2/6 89/2/6 90/2/6
f 89/2/6 85/2/6 91/2/6
f 90/2/6 89/2/6 91/2/6
f 92/4/6 93/4/6 94/4/6
f 94/4/6 93/4/6 95/4/6
f 94/3/6 95/3/6 96/3/6
f 96/3/6 95/3/6 97/3/6
f 98/3/6 99/3/6 100/3/6
f 100/3/6 99/3/6 101/3/6
f 94/3/6 96/3/6 102/3/6
f 97/3/6 95/3/6 103/3/6
f 92/4/6 94/4/6 104/4/6
f 102/3/6 103/3/6 104/3/6
f 94/3/6 102/3/6 104/3/6
f 103/3/6 95/3/6 105/3/6
f 104/3/6 103/3/6 105/3/6
f 95/4/6 93/4/6 105/4/6
f 92/4/6 104/4/6 106/4/6
f 104/4/6 105/4/6 106/4/6
f 105/4/6 93/4/6 107/4/6
f 106/4/6 105/4/6 107/4/6
