# MagicaVoxel @ Ephtracy

# group
o 

# material
mtllib MainDungeonParts-1.mtl
usemtl palette

# normals
vn -1 0 0
vn 1 0 0
vn 0 0 1
vn 0 0 -1
vn 0 -1 0
vn 0 1 0

# texcoords
vt 0.970703 0.5
vt 0.974609 0.5

# verts
v 7 0 2.6
v 7 0 1.6
v 7 0.2 2.6
v 7 0.2 1.6
v 7.1 0.2 2.6
v 7.1 0.2 1.6
v 7.1 0.3 2.6
v 7.1 0.3 1.6
v 7.2 0 2.7
v 7.2 0 2.6
v 7.2 0 1.6
v 7.2 0 1.5
v 7.2 0.3 2.6
v 7.2 0.3 1.6
v 7.2 0.4 2.7
v 7.2 0.4 1.5
v 7.3 0 2.9
v 7.3 0 2.7
v 7.3 0 1.5
v 7.3 0 1.3
v 7.3 0.2 2.9
v 7.3 0.2 2.8
v 7.3 0.2 1.4
v 7.3 0.2 1.3
v 7.3 0.3 2.8
v 7.3 0.3 2.7
v 7.3 0.3 1.5
v 7.3 0.3 1.4
v 7.3 0.4 2.5
v 7.3 0.4 1.7
v 7.3 3.6 2.5
v 7.3 3.6 2
v 7.3 3.7 2
v 7.3 3.7 1.8
v 7.3 3.8 1.8
v 7.3 3.8 1.7
v 7.4 0.4 2.6
v 7.4 0.4 2.5
v 7.4 0.4 1.7
v 7.4 0.4 1.6
v 7.4 3.6 2.5
v 7.4 3.7 2.6
v 7.4 3.7 2.5
v 7.4 3.8 1.7
v 7.4 3.9 1.7
v 7.4 3.9 1.6
v 7.6 3.6 2.5
v 7.6 3.6 2
v 7.6 3.7 2.5
v 7.6 3.7 2
v 7.6 3.7 1.9
v 7.6 3.7 1.8
v 7.6 3.8 1.9
v 7.6 3.8 1.8
v 7.7 3.7 2.6
v 7.7 3.7 2.5
v 7.7 3.7 2
v 7.7 3.7 1.9
v 7.7 3.8 2.6
v 7.7 3.8 2.5
v 7.7 3.8 2
v 7.7 3.8 1.9
v 7.7 3.8 1.8
v 7.7 3.8 1.7
v 7.7 3.9 1.8
v 7.7 3.9 1.7
v 7.7 3.9 1.6
v 7.7 4 1.7
v 7.7 4 1.6
v 7.8 3.7 2.5
v 7.8 3.7 2
v 7.8 3.8 2.5
v 7.8 3.8 2
v 7.8 3.8 1.9
v 7.8 3.8 1.8
v 7.8 3.9 1.9
v 7.8 3.9 1.8
v 7.8 3.9 1.7
v 7.8 4 1.8
v 7.8 4 1.7
v 7.8 4 1.6
v 7.8 4.1 1.7
v 7.8 4.1 1.6
v 7.9 3.8 2.6
v 7.9 3.8 2.3
v 7.9 3.8 2.2
v 7.9 3.8 1.9
v 7.9 3.9 2.6
v 7.9 3.9 2.3
v 7.9 3.9 2.2
v 7.9 3.9 1.9
v 7.9 3.9 1.8
v 7.9 4 1.9
v 7.9 4 1.8
v 7.9 4 1.7
v 7.9 4.1 1.8
v 7.9 4.1 1.7
v 7.9 4.1 1.6
v 7.9 4.7 1.7
v 7.9 4.7 1.6
v 8 3.8 2.3
v 8 3.8 2.2
v 8 3.9 2.6
v 8 3.9 2.3
v 8 3.9 2.2
v 8 3.9 1.9
v 8 4 2.5
v 8 4 2
v 8 4 1.9
v 8 4 1.8
v 8 4.1 2.6
v 8 4.1 2.5
v 8 4.1 2
v 8 4.1 1.9
v 8 4.1 1.8
v 8 4.1 1.7
v 8 4.2 1.9
v 8 4.2 1.8
v 8 4.6 1.8
v 8 4.6 1.7
v 8.1 4 2.5
v 8.1 4 2
v 8.1 4.1 2.6
v 8.1 4.1 2.5
v 8.1 4.1 2
v 8.1 4.1 1.9
v 8.1 4.2 2.5
v 8.1 4.2 2
v 8.1 4.2 1.9
v 8.1 4.2 1.8
v 8.1 4.4 2.6
v 8.1 4.4 2.5
v 8.1 4.6 2
v 8.1 4.6 1.8
v 8.2 4.2 2.5
v 8.2 4.2 2
v 8.2 4.4 2.5
v 8.2 4.4 2.4
v 8.2 4.5 2.4
v 8.2 4.5 2.1
v 8.2 4.6 2.1
v 8.2 4.6 2
v 8.2 0.4 2.6
v 8.2 0.4 2.5
v 8.2 0.4 1.7
v 8.2 0.4 1.6
v 8.2 4.4 2.6
v 8.2 4.4 2.5
v 8.2 4.6 1.7
v 8.2 4.7 1.7
v 8.2 4.7 1.6
v 8.3 0 2.9
v 8.3 0 2.7
v 8.3 0 1.5
v 8.3 0 1.3
v 8.3 0.2 2.9
v 8.3 0.2 2.8
v 8.3 0.2 1.4
v 8.3 0.2 1.3
v 8.3 0.3 2.8
v 8.3 0.3 2.7
v 8.3 0.3 1.5
v 8.3 0.3 1.4
v 8.3 0.4 2.5
v 8.3 0.4 1.7
v 8.3 4.4 2.5
v 8.3 4.4 2.4
v 8.3 4.5 2.4
v 8.3 4.5 2.1
v 8.3 4.6 2.1
v 8.3 4.6 1.7
v 8.4 0 2.7
v 8.4 0 2.6
v 8.4 0 1.6
v 8.4 0 1.5
v 8.4 0.3 2.6
v 8.4 0.3 1.6
v 8.4 0.4 2.7
v 8.4 0.4 1.5
v 8.5 0.2 2.6
v 8.5 0.2 1.6
v 8.5 0.3 2.6
v 8.5 0.3 1.6
v 8.6 0 2.6
v 8.6 0 1.6
v 8.6 0.2 2.6
v 8.6 0.2 1.6
v 7.3 0 2.9
v 7.3 0.2 2.9
v 8.3 0 2.9
v 8.3 0.2 2.9
v 7.3 0.2 2.8
v 7.3 0.3 2.8
v 8.3 0.2 2.8
v 8.3 0.3 2.8
v 7.2 0 2.7
v 7.2 0.4 2.7
v 7.3 0 2.7
v 7.3 0.3 2.7
v 8.3 0 2.7
v 8.3 0.3 2.7
v 8.4 0 2.7
v 8.4 0.4 2.7
v 7 0 2.6
v 7 0.2 2.6
v 7.1 0.2 2.6
v 7.1 0.3 2.6
v 7.2 0 2.6
v 7.2 0.3 2.6
v 7.4 0.4 2.6
v 7.4 3.7 2.6
v 7.7 3.7 2.6
v 7.7 3.8 2.6
v 7.9 3.8 2.6
v 7.9 3.9 2.6
v 8 3.9 2.6
v 8 4.1 2.6
v 8.1 4.1 2.6
v 8.1 4.4 2.6
v 8.2 0.4 2.6
v 8.2 4.4 2.6
v 8.4 0 2.6
v 8.4 0.3 2.6
v 8.5 0.2 2.6
v 8.5 0.3 2.6
v 8.6 0 2.6
v 8.6 0.2 2.6
v 7.3 0.4 2.5
v 7.3 3.6 2.5
v 7.4 0.4 2.5
v 7.4 3.6 2.5
v 8.2 0.4 2.5
v 8.2 4.4 2.5
v 8.3 0.4 2.5
v 8.3 4.4 2.5
v 8.2 4.4 2.4
v 8.2 4.5 2.4
v 8.3 4.4 2.4
v 8.3 4.5 2.4
v 7.9 3.8 2.2
v 7.9 3.9 2.2
v 8 3.8 2.2
v 8 3.9 2.2
v 8.2 4.5 2.1
v 8.2 4.6 2.1
v 8.3 4.5 2.1
v 8.3 4.6 2.1
v 7.3 3.6 2
v 7.3 3.7 2
v 7.6 3.6 2
v 7.6 3.7 2
v 7.7 3.7 2
v 7.7 3.8 2
v 7.8 3.7 2
v 7.8 3.8 2
v 8 4 2
v 8 4.1 2
v 8.1 4 2
v 8.1 4.1 2
v 8.1 4.2 2
v 8.1 4.6 2
v 8.2 4.2 2
v 8.2 4.6 2
v 7.6 3.7 1.9
v 7.6 3.8 1.9
v 7.7 3.7 1.9
v 7.7 3.8 1.9
v 7.8 3.8 1.9
v 7.8 3.9 1.9
v 7.9 3.8 1.9
v 7.9 3.9 1.9
v 7.9 4 1.9
v 8 3.9 1.9
v 8 4 1.9
v 8 4.1 1.9
v 8 4.2 1.9
v 8.1 4.1 1.9
v 8.1 4.2 1.9
v 7.3 3.7 1.8
v 7.3 3.8 1.8
v 7.6 3.7 1.8
v 7.6 3.8 1.8
v 7.7 3.8 1.8
v 7.7 3.9 1.8
v 7.8 3.8 1.8
v 7.8 3.9 1.8
v 7.8 4 1.8
v 7.9 3.9 1.8
v 7.9 4 1.8
v 7.9 4.1 1.8
v 8 4 1.8
v 8 4.1 1.8
v 8 4.2 1.8
v 8 4.6 1.8
v 8.1 4.2 1.8
v 8.1 4.6 1.8
v 7.4 3.8 1.7
v 7.4 3.9 1.7
v 7.7 3.8 1.7
v 7.7 3.9 1.7
v 7.7 4 1.7
v 7.8 3.9 1.7
v 7.8 4 1.7
v 7.8 4.1 1.7
v 7.9 4 1.7
v 7.9 4.1 1.7
v 7.9 4.7 1.7
v 8 4.1 1.7
v 8 4.6 1.7
v 8.2 4.6 1.7
v 8.2 4.7 1.7
v 7.4 3.6 2.5
v 7.4 3.7 2.5
v 7.6 3.6 2.5
v 7.6 3.7 2.5
v 7.7 3.7 2.5
v 7.7 3.8 2.5
v 7.8 3.7 2.5
v 7.8 3.8 2.5
v 8 4 2.5
v 8 4.1 2.5
v 8.1 4 2.5
v 8.1 4.1 2.5
v 8.1 4.2 2.5
v 8.1 4.4 2.5
v 8.2 4.2 2.5
v 8.2 4.4 2.5
v 7.9 3.8 2.3
v 7.9 3.9 2.3
v 8 3.8 2.3
v 8 3.9 2.3
v 7.3 0.4 1.7
v 7.3 3.8 1.7
v 7.4 0.4 1.7
v 7.4 3.8 1.7
v 8.2 0.4 1.7
v 8.2 4.6 1.7
v 8.3 0.4 1.7
v 8.3 4.6 1.7
v 7 0 1.6
v 7 0.2 1.6
v 7.1 0.2 1.6
v 7.1 0.3 1.6
v 7.2 0 1.6
v 7.2 0.3 1.6
v 7.4 0.4 1.6
v 7.4 3.9 1.6
v 7.7 3.9 1.6
v 7.7 4 1.6
v 7.8 4 1.6
v 7.8 4.1 1.6
v 7.9 4.1 1.6
v 7.9 4.7 1.6
v 8.2 0.4 1.6
v 8.2 4.7 1.6
v 8.4 0 1.6
v 8.4 0.3 1.6
v 8.5 0.2 1.6
v 8.5 0.3 1.6
v 8.6 0 1.6
v 8.6 0.2 1.6
v 7.2 0 1.5
v 7.2 0.4 1.5
v 7.3 0 1.5
v 7.3 0.3 1.5
v 8.3 0 1.5
v 8.3 0.3 1.5
v 8.4 0 1.5
v 8.4 0.4 1.5
v 7.3 0.2 1.4
v 7.3 0.3 1.4
v 8.3 0.2 1.4
v 8.3 0.3 1.4
v 7.3 0 1.3
v 7.3 0.2 1.3
v 8.3 0 1.3
v 8.3 0.2 1.3
v 7.3 0 2.9
v 8.3 0 2.9
v 7.2 0 2.7
v 7.3 0 2.7
v 8.3 0 2.7
v 8.4 0 2.7
v 7 0 2.6
v 7.2 0 2.6
v 8.4 0 2.6
v 8.6 0 2.6
v 7 0 1.6
v 7.2 0 1.6
v 8.4 0 1.6
v 8.6 0 1.6
v 7.2 0 1.5
v 7.3 0 1.5
v 8.3 0 1.5
v 8.4 0 1.5
v 7.3 0 1.3
v 8.3 0 1.3
v 7.3 0.2 2.9
v 8.3 0.2 2.9
v 7.3 0.2 2.8
v 8.3 0.2 2.8
v 7 0.2 2.6
v 7.1 0.2 2.6
v 8.5 0.2 2.6
v 8.6 0.2 2.6
v 7 0.2 1.6
v 7.1 0.2 1.6
v 8.5 0.2 1.6
v 8.6 0.2 1.6
v 7.3 0.2 1.4
v 8.3 0.2 1.4
v 7.3 0.2 1.3
v 8.3 0.2 1.3
v 7.3 0.3 2.8
v 8.3 0.3 2.8
v 7.3 0.3 2.7
v 8.3 0.3 2.7
v 7.1 0.3 2.6
v 7.2 0.3 2.6
v 8.4 0.3 2.6
v 8.5 0.3 2.6
v 7.1 0.3 1.6
v 7.2 0.3 1.6
v 8.4 0.3 1.6
v 8.5 0.3 1.6
v 7.3 0.3 1.5
v 8.3 0.3 1.5
v 7.3 0.3 1.4
v 8.3 0.3 1.4
v 7.2 0.4 2.7
v 8.4 0.4 2.7
v 7.4 0.4 2.6
v 8.2 0.4 2.6
v 7.3 0.4 2.5
v 7.4 0.4 2.5
v 8.2 0.4 2.5
v 8.3 0.4 2.5
v 7.3 0.4 1.7
v 7.4 0.4 1.7
v 8.2 0.4 1.7
v 8.3 0.4 1.7
v 7.4 0.4 1.6
v 8.2 0.4 1.6
v 7.2 0.4 1.5
v 8.4 0.4 1.5
v 7.3 3.6 2.5
v 7.4 3.6 2.5
v 7.6 3.6 2.5
v 7.3 3.6 2
v 7.6 3.6 2
v 7.4 3.7 2.6
v 7.7 3.7 2.6
v 7.4 3.7 2.5
v 7.6 3.7 2.5
v 7.7 3.7 2.5
v 7.8 3.7 2.5
v 7.3 3.7 2
v 7.6 3.7 2
v 7.7 3.7 2
v 7.8 3.7 2
v 7.6 3.7 1.9
v 7.7 3.7 1.9
v 7.3 3.7 1.8
v 7.6 3.7 1.8
v 7.7 3.8 2.6
v 7.9 3.8 2.6
v 7.7 3.8 2.5
v 7.8 3.8 2.5
v 7.9 3.8 2.3
v 8 3.8 2.3
v 7.9 3.8 2.2
v 8 3.8 2.2
v 7.7 3.8 2
v 7.8 3.8 2
v 7.6 3.8 1.9
v 7.7 3.8 1.9
v 7.8 3.8 1.9
v 7.9 3.8 1.9
v 7.3 3.8 1.8
v 7.6 3.8 1.8
v 7.7 3.8 1.8
v 7.8 3.8 1.8
v 7.3 3.8 1.7
v 7.4 3.8 1.7
v 7.7 3.8 1.7
v 7.9 3.9 2.6
v 8 3.9 2.6
v 7.9 3.9 2.3
v 8 3.9 2.3
v 7.9 3.9 2.2
v 8 3.9 2.2
v 7.8 3.9 1.9
v 7.9 3.9 1.9
v 8 3.9 1.9
v 7.7 3.9 1.8
v 7.8 3.9 1.8
v 7.9 3.9 1.8
v 7.4 3.9 1.7
v 7.7 3.9 1.7
v 7.8 3.9 1.7
v 7.4 3.9 1.6
v 7.7 3.9 1.6
v 8 4 2.5
v 8.1 4 2.5
v 8 4 2
v 8.1 4 2
v 7.9 4 1.9
v 8 4 1.9
v 7.8 4 1.8
v 7.9 4 1.8
v 8 4 1.8
v 7.7 4 1.7
v 7.8 4 1.7
v 7.9 4 1.7
v 7.7 4 1.6
v 7.8 4 1.6
v 8 4.1 2.6
v 8.1 4.1 2.6
v 8 4.1 2.5
v 8.1 4.1 2.5
v 8 4.1 2
v 8.1 4.1 2
v 8 4.1 1.9
v 8.1 4.1 1.9
v 7.9 4.1 1.8
v 8 4.1 1.8
v 7.8 4.1 1.7
v 7.9 4.1 1.7
v 8 4.1 1.7
v 7.8 4.1 1.6
v 7.9 4.1 1.6
v 8.1 4.2 2.5
v 8.2 4.2 2.5
v 8.1 4.2 2
v 8.2 4.2 2
v 8 4.2 1.9
v 8.1 4.2 1.9
v 8 4.2 1.8
v 8.1 4.2 1.8
v 8.1 4.4 2.6
v 8.2 4.4 2.6
v 8.1 4.4 2.5
v 8.2 4.4 2.5
v 8.3 4.4 2.5
v 8.2 4.4 2.4
v 8.3 4.4 2.4
v 8.2 4.5 2.4
v 8.3 4.5 2.4
v 8.2 4.5 2.1
v 8.3 4.5 2.1
v 8.2 4.6 2.1
v 8.3 4.6 2.1
v 8.1 4.6 2
v 8.2 4.6 2
v 8 4.6 1.8
v 8.1 4.6 1.8
v 8 4.6 1.7
v 8.2 4.6 1.7
v 8.3 4.6 1.7
v 7.9 4.7 1.7
v 8.2 4.7 1.7
v 7.9 4.7 1.6
v 8.2 4.7 1.6

# faces
f 3/2/1 2/2/1 1/2/1
f 4/2/1 2/2/1 3/2/1
f 7/2/1 6/2/1 5/2/1
f 8/2/1 6/2/1 7/2/1
f 13/2/1 10/2/1 9/2/1
f 14/2/1 12/2/1 11/2/1
f 15/2/1 13/2/1 9/2/1
f 15/2/1 14/2/1 13/2/1
f 16/2/1 12/2/1 14/2/1
f 16/2/1 14/2/1 15/2/1
f 21/2/1 18/2/1 17/2/1
f 22/2/1 18/2/1 21/2/1
f 23/2/1 20/2/1 19/2/1
f 24/2/1 20/2/1 23/2/1
f 25/2/1 18/2/1 22/2/1
f 26/2/1 18/2/1 25/2/1
f 27/2/1 23/2/1 19/2/1
f 28/2/1 23/2/1 27/2/1
f 31/1/1 30/1/1 29/1/1
f 32/1/1 30/1/1 31/1/1
f 33/1/1 30/1/1 32/1/1
f 34/1/1 30/1/1 33/1/1
f 35/1/1 30/1/1 34/1/1
f 36/1/1 30/1/1 35/1/1
f 41/1/1 38/1/1 37/1/1
f 42/1/1 41/1/1 37/1/1
f 43/1/1 41/1/1 42/1/1
f 44/1/1 40/1/1 39/1/1
f 45/1/1 40/1/1 44/1/1
f 46/1/1 40/1/1 45/1/1
f 49/1/1 48/1/1 47/1/1
f 50/1/1 48/1/1 49/1/1
f 53/1/1 52/1/1 51/1/1
f 54/1/1 52/1/1 53/1/1
f 59/1/1 56/1/1 55/1/1
f 60/1/1 56/1/1 59/1/1
f 61/1/1 58/1/1 57/1/1
f 62/1/1 58/1/1 61/1/1
f 65/1/1 64/1/1 63/1/1
f 66/1/1 64/1/1 65/1/1
f 68/1/1 67/1/1 66/1/1
f 69/1/1 67/1/1 68/1/1
f 72/1/1 71/1/1 70/1/1
f 73/1/1 71/1/1 72/1/1
f 76/1/1 75/1/1 74/1/1
f 77/1/1 75/1/1 76/1/1
f 79/1/1 78/1/1 77/1/1
f 80/1/1 78/1/1 79/1/1
f 82/1/1 81/1/1 80/1/1
f 83/1/1 81/1/1 82/1/1
f 88/1/1 85/1/1 84/1/1
f 89/1/1 85/1/1 88/1/1
f 90/1/1 87/1/1 86/1/1
f 91/1/1 87/1/1 90/1/1
f 93/1/1 92/1/1 91/1/1
f 94/1/1 92/1/1 93/1/1
f 96/1/1 95/1/1 94/1/1
f 97/1/1 95/1/1 96/1/1
f 99/1/1 98/1/1 97/1/1
f 100/1/1 98/1/1 99/1/1
f 104/1/1 102/1/1 101/1/1
f 105/1/1 102/1/1 104/1/1
f 107/1/1 104/1/1 103/1/1
f 107/1/1 106/1/1 105/1/1
f 107/1/1 105/1/1 104/1/1
f 108/1/1 106/1/1 107/1/1
f 109/1/1 106/1/1 108/1/1
f 111/1/1 107/1/1 103/1/1
f 112/1/1 107/1/1 111/1/1
f 113/1/1 110/1/1 109/1/1
f 113/1/1 109/1/1 108/1/1
f 114/1/1 110/1/1 113/1/1
f 115/1/1 110/1/1 114/1/1
f 117/1/1 116/1/1 115/1/1
f 117/1/1 115/1/1 114/1/1
f 118/1/1 116/1/1 117/1/1
f 119/1/1 116/1/1 118/1/1
f 120/1/1 116/1/1 119/1/1
f 124/1/1 122/1/1 121/1/1
f 125/1/1 122/1/1 124/1/1
f 127/1/1 124/1/1 123/1/1
f 127/1/1 126/1/1 125/1/1
f 127/1/1 125/1/1 124/1/1
f 128/1/1 126/1/1 127/1/1
f 129/1/1 126/1/1 128/1/1
f 131/1/1 127/1/1 123/1/1
f 132/1/1 127/1/1 131/1/1
f 133/1/1 130/1/1 129/1/1
f 133/1/1 129/1/1 128/1/1
f 134/1/1 130/1/1 133/1/1
f 137/1/1 136/1/1 135/1/1
f 138/1/1 136/1/1 137/1/1
f 139/1/1 136/1/1 138/1/1
f 140/1/1 136/1/1 139/1/1
f 141/1/1 136/1/1 140/1/1
f 142/1/1 136/1/1 141/1/1
f 143/1/2 144/1/2 147/1/2
f 147/1/2 144/1/2 148/1/2
f 145/1/2 146/1/2 149/1/2
f 149/1/2 146/1/2 150/1/2
f 150/1/2 146/1/2 151/1/2
f 152/2/2 153/2/2 156/2/2
f 156/2/2 153/2/2 157/2/2
f 154/2/2 155/2/2 158/2/2
f 158/2/2 155/2/2 159/2/2
f 157/2/2 153/2/2 160/2/2
f 160/2/2 153/2/2 161/2/2
f 154/2/2 158/2/2 162/2/2
f 162/2/2 158/2/2 163/2/2
f 164/1/2 165/1/2 166/1/2
f 166/1/2 165/1/2 167/1/2
f 167/1/2 165/1/2 168/1/2
f 168/1/2 165/1/2 169/1/2
f 169/1/2 165/1/2 170/1/2
f 170/1/2 165/1/2 171/1/2
f 172/2/2 173/2/2 176/2/2
f 174/2/2 175/2/2 177/2/2
f 172/2/2 176/2/2 178/2/2
f 176/2/2 177/2/2 178/2/2
f 177/2/2 175/2/2 179/2/2
f 178/2/2 177/2/2 179/2/2
f 180/2/2 181/2/2 182/2/2
f 182/2/2 181/2/2 183/2/2
f 184/2/2 185/2/2 186/2/2
f 186/2/2 185/2/2 187/2/2
f 190/2/3 189/2/3 188/2/3
f 191/2/3 189/2/3 190/2/3
f 194/2/3 193/2/3 192/2/3
f 195/2/3 193/2/3 194/2/3
f 198/2/3 197/2/3 196/2/3
f 199/2/3 197/2/3 198/2/3
f 201/2/3 197/2/3 199/2/3
f 202/2/3 201/2/3 200/2/3
f 203/2/3 197/2/3 201/2/3
f 203/2/3 201/2/3 202/2/3
f 206/2/3 205/2/3 204/2/3
f 208/2/3 206/2/3 204/2/3
f 208/2/3 207/2/3 206/2/3
f 209/2/3 207/2/3 208/2/3
f 212/1/3 211/1/3 210/1/3
f 214/1/3 213/1/3 212/1/3
f 216/1/3 215/1/3 214/1/3
f 218/1/3 217/1/3 216/1/3
f 220/1/3 212/1/3 210/1/3
f 220/1/3 219/1/3 218/1/3
f 220/1/3 218/1/3 216/1/3
f 220/1/3 216/1/3 214/1/3
f 220/1/3 214/1/3 212/1/3
f 221/1/3 219/1/3 220/1/3
f 224/2/3 223/2/3 222/2/3
f 225/2/3 223/2/3 224/2/3
f 226/2/3 224/2/3 222/2/3
f 227/2/3 224/2/3 226/2/3
f 230/1/3 229/1/3 228/1/3
f 231/1/3 229/1/3 230/1/3
f 234/1/3 233/1/3 232/1/3
f 235/1/3 233/1/3 234/1/3
f 238/1/3 237/1/3 236/1/3
f 239/1/3 237/1/3 238/1/3
f 242/1/3 241/1/3 240/1/3
f 243/1/3 241/1/3 242/1/3
f 246/1/3 245/1/3 244/1/3
f 247/1/3 245/1/3 246/1/3
f 250/1/3 249/1/3 248/1/3
f 251/1/3 249/1/3 250/1/3
f 254/1/3 253/1/3 252/1/3
f 255/1/3 253/1/3 254/1/3
f 258/1/3 257/1/3 256/1/3
f 259/1/3 257/1/3 258/1/3
f 262/1/3 261/1/3 260/1/3
f 263/1/3 261/1/3 262/1/3
f 266/1/3 265/1/3 264/1/3
f 267/1/3 265/1/3 266/1/3
f 270/1/3 269/1/3 268/1/3
f 271/1/3 269/1/3 270/1/3
f 273/1/3 272/1/3 271/1/3
f 274/1/3 272/1/3 273/1/3
f 277/1/3 276/1/3 275/1/3
f 278/1/3 276/1/3 277/1/3
f 281/1/3 280/1/3 279/1/3
f 282/1/3 280/1/3 281/1/3
f 285/1/3 284/1/3 283/1/3
f 286/1/3 284/1/3 285/1/3
f 288/1/3 287/1/3 286/1/3
f 289/1/3 287/1/3 288/1/3
f 291/1/3 290/1/3 289/1/3
f 292/1/3 290/1/3 291/1/3
f 295/1/3 294/1/3 293/1/3
f 296/1/3 294/1/3 295/1/3
f 299/1/3 298/1/3 297/1/3
f 300/1/3 298/1/3 299/1/3
f 302/1/3 301/1/3 300/1/3
f 303/1/3 301/1/3 302/1/3
f 305/1/3 304/1/3 303/1/3
f 306/1/3 304/1/3 305/1/3
f 308/1/3 307/1/3 306/1/3
f 309/1/3 307/1/3 308/1/3
f 310/1/3 307/1/3 309/1/3
f 311/1/3 307/1/3 310/1/3
f 312/1/4 313/1/4 314/1/4
f 314/1/4 313/1/4 315/1/4
f 316/1/4 317/1/4 318/1/4
f 318/1/4 317/1/4 319/1/4
f 320/1/4 321/1/4 322/1/4
f 322/1/4 321/1/4 323/1/4
f 324/1/4 325/1/4 326/1/4
f 326/1/4 325/1/4 327/1/4
f 328/1/4 329/1/4 330/1/4
f 330/1/4 329/1/4 331/1/4
f 332/1/4 333/1/4 334/1/4
f 334/1/4 333/1/4 335/1/4
f 336/1/4 337/1/4 338/1/4
f 338/1/4 337/1/4 339/1/4
f 340/2/4 341/2/4 342/2/4
f 340/2/4 342/2/4 344/2/4
f 342/2/4 343/2/4 344/2/4
f 344/2/4 343/2/4 345/2/4
f 346/1/4 347/1/4 348/1/4
f 348/1/4 349/1/4 350/1/4
f 350/1/4 351/1/4 352/1/4
f 346/1/4 348/1/4 354/1/4
f 352/1/4 353/1/4 354/1/4
f 350/1/4 352/1/4 354/1/4
f 348/1/4 350/1/4 354/1/4
f 354/1/4 353/1/4 355/1/4
f 356/2/4 357/2/4 358/2/4
f 358/2/4 357/2/4 359/2/4
f 356/2/4 358/2/4 360/2/4
f 360/2/4 358/2/4 361/2/4
f 362/2/4 363/2/4 364/2/4
f 364/2/4 363/2/4 365/2/4
f 365/2/4 363/2/4 367/2/4
f 366/2/4 367/2/4 368/2/4
f 367/2/4 363/2/4 369/2/4
f 368/2/4 367/2/4 369/2/4
f 370/2/4 371/2/4 372/2/4
f 372/2/4 371/2/4 373/2/4
f 374/2/4 375/2/4 376/2/4
f 376/2/4 375/2/4 377/2/4
f 381/2/5 379/2/5 378/2/5
f 382/2/5 379/2/5 381/2/5
f 385/2/5 381/2/5 380/2/5
f 385/2/5 383/2/5 382/2/5
f 385/2/5 382/2/5 381/2/5
f 386/2/5 383/2/5 385/2/5
f 388/2/5 385/2/5 384/2/5
f 388/2/5 387/2/5 386/2/5
f 388/2/5 386/2/5 385/2/5
f 389/2/5 387/2/5 388/2/5
f 390/2/5 387/2/5 389/2/5
f 391/2/5 387/2/5 390/2/5
f 392/2/5 390/2/5 389/2/5
f 393/2/5 390/2/5 392/2/5
f 394/2/5 390/2/5 393/2/5
f 395/2/5 390/2/5 394/2/5
f 396/2/5 394/2/5 393/2/5
f 397/2/5 394/2/5 396/2/5
f 398/2/6 399/2/6 400/2/6
f 400/2/6 399/2/6 401/2/6
f 402/2/6 403/2/6 406/2/6
f 406/2/6 403/2/6 407/2/6
f 404/2/6 405/2/6 408/2/6
f 408/2/6 405/2/6 409/2/6
f 410/2/6 411/2/6 412/2/6
f 412/2/6 411/2/6 413/2/6
f 414/2/6 415/2/6 416/2/6
f 416/2/6 415/2/6 417/2/6
f 418/2/6 419/2/6 422/2/6
f 422/2/6 419/2/6 423/2/6
f 420/2/6 421/2/6 424/2/6
f 424/2/6 421/2/6 425/2/6
f 426/2/6 427/2/6 428/2/6
f 428/2/6 427/2/6 429/2/6
f 430/2/6 431/2/6 432/2/6
f 432/2/6 431/2/6 433/2/6
f 430/2/6 432/2/6 434/2/6
f 434/2/6 432/2/6 435/2/6
f 433/2/6 431/2/6 436/2/6
f 436/2/6 431/2/6 437/2/6
f 430/2/6 434/2/6 438/2/6
f 437/2/6 431/2/6 441/2/6
f 438/2/6 439/2/6 442/2/6
f 440/2/6 441/2/6 443/2/6
f 438/2/6 442/2/6 444/2/6
f 442/2/6 443/2/6 444/2/6
f 430/2/6 438/2/6 444/2/6
f 443/2/6 441/2/6 445/2/6
f 444/2/6 443/2/6 445/2/6
f 441/2/6 431/2/6 445/2/6
f 446/1/6 447/1/6 449/1/6
f 447/1/6 448/1/6 449/1/6
f 449/1/6 448/1/6 450/1/6
f 451/1/6 452/1/6 453/1/6
f 453/1/6 452/1/6 454/1/6
f 454/1/6 452/1/6 455/1/6
f 455/1/6 456/1/6 458/1/6
f 454/1/6 455/1/6 458/1/6
f 458/1/6 456/1/6 459/1/6
f 459/1/6 456/1/6 460/1/6
f 457/1/6 458/1/6 461/1/6
f 458/1/6 459/1/6 461/1/6
f 461/1/6 459/1/6 462/1/6
f 457/1/6 461/1/6 463/1/6
f 463/1/6 461/1/6 464/1/6
f 465/1/6 466/1/6 467/1/6
f 467/1/6 466/1/6 468/1/6
f 468/1/6 466/1/6 469/1/6
f 468/1/6 469/1/6 471/1/6
f 469/1/6 470/1/6 471/1/6
f 471/1/6 470/1/6 472/1/6
f 468/1/6 471/1/6 474/1/6
f 473/1/6 474/1/6 476/1/6
f 474/1/6 471/1/6 477/1/6
f 476/1/6 474/1/6 477/1/6
f 477/1/6 471/1/6 478/1/6
f 475/1/6 476/1/6 480/1/6
f 476/1/6 477/1/6 480/1/6
f 480/1/6 477/1/6 481/1/6
f 481/1/6 477/1/6 482/1/6
f 479/1/6 480/1/6 483/1/6
f 480/1/6 481/1/6 483/1/6
f 483/1/6 481/1/6 484/1/6
f 484/1/6 481/1/6 485/1/6
f 486/1/6 487/1/6 488/1/6
f 488/1/6 487/1/6 489/1/6
f 490/1/6 491/1/6 493/1/6
f 493/1/6 491/1/6 494/1/6
f 492/1/6 493/1/6 496/1/6
f 496/1/6 493/1/6 497/1/6
f 495/1/6 496/1/6 499/1/6
f 499/1/6 496/1/6 500/1/6
f 498/1/6 499/1/6 501/1/6
f 501/1/6 499/1/6 502/1/6
f 503/1/6 504/1/6 505/1/6
f 505/1/6 504/1/6 506/1/6
f 507/1/6 508/1/6 510/1/6
f 510/1/6 508/1/6 511/1/6
f 509/1/6 510/1/6 513/1/6
f 513/1/6 510/1/6 514/1/6
f 512/1/6 513/1/6 515/1/6
f 515/1/6 513/1/6 516/1/6
f 517/1/6 518/1/6 519/1/6
f 519/1/6 518/1/6 520/1/6
f 521/1/6 522/1/6 523/1/6
f 523/1/6 522/1/6 524/1/6
f 525/1/6 526/1/6 528/1/6
f 528/1/6 526/1/6 529/1/6
f 527/1/6 528/1/6 530/1/6
f 530/1/6 528/1/6 531/1/6
f 532/1/6 533/1/6 534/1/6
f 534/1/6 533/1/6 535/1/6
f 536/1/6 537/1/6 538/1/6
f 538/1/6 537/1/6 539/1/6
f 540/1/6 541/1/6 542/1/6
f 542/1/6 541/1/6 543/1/6
f 543/1/6 544/1/6 545/1/6
f 545/1/6 544/1/6 546/1/6
f 547/1/6 548/1/6 549/1/6
f 549/1/6 548/1/6 550/1/6
f 551/1/6 552/1/6 554/1/6
f 553/1/6 554/1/6 556/1/6
f 555/1/6 556/1/6 557/1/6
f 554/1/6 552/1/6 558/1/6
f 557/1/6 556/1/6 558/1/6
f 556/1/6 554/1/6 558/1/6
f 558/1/6 552/1/6 559/1/6
f 560/1/6 561/1/6 562/1/6
f 562/1/6 561/1/6 563/1/6
