# MagicaVoxel @ Ephtracy

# group
o 

# material
mtllib MainDungeonParts-16.mtl
usemtl palette

# normals
vn -1 0 0
vn 1 0 0
vn 0 0 1
vn 0 0 -1
vn 0 -1 0
vn 0 1 0

# texcoords
vt 0.966797 0.5
vt 0.970703 0.5
vt 0.974609 0.5
vt 0.982422 0.5

# verts
v -10.9 0 -7.8
v -10.9 0 -10.2
v -10.9 0.1 -7.8
v -10.9 0.1 -10.2
v -10.9 0.1 -10.3
v -10.9 0.2 -7.8
v -10.9 0.2 -10.3
v -10.8 0 -10.2
v -10.8 0 -10.3
v -10.8 0.1 -10.2
v -10.8 0.1 -10.3
v -10.4 0.1 -9
v -10.4 0.1 -9.8
v -10.4 0.2 -9
v -10.4 0.2 -9.8
v -10.3 0.1 -8.7
v -10.3 0.1 -9
v -10.3 0.2 -8.7
v -10.3 0.2 -9
v -10.1 0.1 -8.6
v -10.1 0.1 -8.7
v -10.1 0.2 -8.6
v -10.1 0.2 -8.7
v -10 0.1 -8.4
v -10 0.1 -8.6
v -10 0.2 -8.4
v -10 0.2 -8.6
v -9.9 0.1 -8
v -9.9 0.1 -8.1
v -9.9 0.2 -8
v -9.9 0.2 -8.1
v -9.8 0.1 -8.3
v -9.8 0.1 -8.4
v -9.8 0.2 -8.3
v -9.8 0.2 -8.4
v -9.7 0.1 -9.4
v -9.7 0.1 -9.5
v -9.7 0.2 -9.4
v -9.7 0.2 -9.5
v -9.5 0.1 -9.5
v -9.5 0.1 -9.8
v -9.5 0.2 -9.5
v -9.5 0.2 -9.8
v -8.7 0.1 -8.1
v -8.7 0.1 -10
v -8.7 0.2 -8.1
v -8.7 0.2 -10
v -10.7 0.1 -8.1
v -10.7 0.1 -8.4
v -10.7 0.2 -8.1
v -10.7 0.2 -8.4
v -10.6 0.1 -8
v -10.6 0.1 -8.1
v -10.6 0.1 -8.4
v -10.6 0.1 -10
v -10.6 0.2 -8
v -10.6 0.2 -8.1
v -10.6 0.2 -8.4
v -10.6 0.2 -10
v -10 0.1 -9.5
v -10 0.1 -9.8
v -10 0.2 -9.5
v -10 0.2 -9.8
v -9.9 0.1 -9.4
v -9.9 0.1 -9.5
v -9.9 0.2 -9.4
v -9.9 0.2 -9.5
v -9.3 0.1 -9.6
v -9.3 0.1 -9.8
v -9.3 0.2 -9.6
v -9.3 0.2 -9.8
v -9.2 0.1 -9.5
v -9.2 0.1 -9.6
v -9.2 0.2 -9.5
v -9.2 0.2 -9.6
v -9.1 0.1 -9.4
v -9.1 0.1 -9.5
v -9.1 0.2 -9.4
v -9.1 0.2 -9.5
v -8.9 0.1 -8.3
v -8.9 0.1 -9.4
v -8.9 0.2 -8.3
v -8.9 0.2 -9.4
v -8.4 0 -7.8
v -8.4 0 -8
v -8.4 0 -10.3
v -8.4 0.1 -7.8
v -8.4 0.1 -8
v -8.4 0.1 -10.3
v -8.4 0.2 -7.8
v -8.4 0.2 -10.3
v -10.9 0 -7.8
v -10.9 0.1 -7.8
v -10.9 0.2 -7.8
v -8.4 0 -7.8
v -8.4 0.1 -7.8
v -8.4 0.2 -7.8
v -9.8 0.1 -8.3
v -9.8 0.2 -8.3
v -8.9 0.1 -8.3
v -8.9 0.2 -8.3
v -10.7 0.1 -8.4
v -10.7 0.2 -8.4
v -10.6 0.1 -8.4
v -10.6 0.2 -8.4
v -10 0.1 -8.4
v -10 0.2 -8.4
v -9.8 0.1 -8.4
v -9.8 0.2 -8.4
v -10.1 0.1 -8.6
v -10.1 0.2 -8.6
v -10 0.1 -8.6
v -10 0.2 -8.6
v -10.3 0.1 -8.7
v -10.3 0.2 -8.7
v -10.1 0.1 -8.7
v -10.1 0.2 -8.7
v -10.4 0.1 -9
v -10.4 0.2 -9
v -10.3 0.1 -9
v -10.3 0.2 -9
v -10.6 0.1 -10
v -10.6 0.2 -10
v -8.7 0.1 -10
v -8.7 0.2 -10
v -10.6 0.1 -8
v -10.6 0.2 -8
v -9.9 0.1 -8
v -9.9 0.2 -8
v -10.7 0.1 -8.1
v -10.7 0.2 -8.1
v -10.6 0.1 -8.1
v -10.6 0.2 -8.1
v -9.9 0.1 -8.1
v -9.9 0.2 -8.1
v -8.7 0.1 -8.1
v -8.7 0.2 -8.1
v -9.9 0.1 -9.4
v -9.9 0.2 -9.4
v -9.7 0.1 -9.4
v -9.7 0.2 -9.4
v -9.1 0.1 -9.4
v -9.1 0.2 -9.4
v -8.9 0.1 -9.4
v -8.9 0.2 -9.4
v -10 0.1 -9.5
v -10 0.2 -9.5
v -9.9 0.1 -9.5
v -9.9 0.2 -9.5
v -9.7 0.1 -9.5
v -9.7 0.2 -9.5
v -9.5 0.1 -9.5
v -9.5 0.2 -9.5
v -9.2 0.1 -9.5
v -9.2 0.2 -9.5
v -9.1 0.1 -9.5
v -9.1 0.2 -9.5
v -9.3 0.1 -9.6
v -9.3 0.2 -9.6
v -9.2 0.1 -9.6
v -9.2 0.2 -9.6
v -10.4 0.1 -9.8
v -10.4 0.2 -9.8
v -10 0.1 -9.8
v -10 0.2 -9.8
v -9.5 0.1 -9.8
v -9.5 0.2 -9.8
v -9.3 0.1 -9.8
v -9.3 0.2 -9.8
v -10.9 0 -10.2
v -10.9 0.1 -10.2
v -10.8 0 -10.2
v -10.8 0.1 -10.2
v -10.9 0.1 -10.3
v -10.9 0.2 -10.3
v -10.8 0 -10.3
v -10.8 0.1 -10.3
v -10.7 0 -10.3
v -10.7 0.1 -10.3
v -8.4 0 -10.3
v -8.4 0.1 -10.3
v -8.4 0.2 -10.3
v -10.9 0 -7.8
v -8.4 0 -7.8
v -10.7 0 -8
v -8.4 0 -8
v -10.9 0 -10.2
v -10.8 0 -10.2
v -10.8 0 -10.3
v -10.7 0 -10.3
v -8.4 0 -10.3
v -10.9 0.1 -10.2
v -10.8 0.1 -10.2
v -10.9 0.1 -10.3
v -10.8 0.1 -10.3
v -10.6 0.1 -8
v -9.9 0.1 -8
v -10.7 0.1 -8.1
v -10.6 0.1 -8.1
v -9.9 0.1 -8.1
v -8.7 0.1 -8.1
v -9.8 0.1 -8.3
v -8.9 0.1 -8.3
v -10.7 0.1 -8.4
v -10.6 0.1 -8.4
v -10 0.1 -8.4
v -9.8 0.1 -8.4
v -10.1 0.1 -8.6
v -10 0.1 -8.6
v -10.3 0.1 -8.7
v -10.1 0.1 -8.7
v -10.4 0.1 -9
v -10.3 0.1 -9
v -9.9 0.1 -9.4
v -9.7 0.1 -9.4
v -9.1 0.1 -9.4
v -8.9 0.1 -9.4
v -10 0.1 -9.5
v -9.9 0.1 -9.5
v -9.7 0.1 -9.5
v -9.5 0.1 -9.5
v -9.2 0.1 -9.5
v -9.1 0.1 -9.5
v -9.3 0.1 -9.6
v -9.2 0.1 -9.6
v -10.4 0.1 -9.8
v -10 0.1 -9.8
v -9.5 0.1 -9.8
v -9.3 0.1 -9.8
v -10.6 0.1 -10
v -8.7 0.1 -10
v -10.9 0.2 -7.8
v -8.4 0.2 -7.8
v -10.8 0.2 -7.9
v -8.5 0.2 -7.9
v -10.6 0.2 -8
v -9.9 0.2 -8
v -10.7 0.2 -8.1
v -10.6 0.2 -8.1
v -9.9 0.2 -8.1
v -8.7 0.2 -8.1
v -9.8 0.2 -8.3
v -8.9 0.2 -8.3
v -10.7 0.2 -8.4
v -10.6 0.2 -8.4
v -10 0.2 -8.4
v -9.8 0.2 -8.4
v -10.1 0.2 -8.6
v -10 0.2 -8.6
v -10.3 0.2 -8.7
v -10.1 0.2 -8.7
v -10.4 0.2 -9
v -10.3 0.2 -9
v -9.9 0.2 -9.4
v -9.7 0.2 -9.4
v -9.1 0.2 -9.4
v -8.9 0.2 -9.4
v -10 0.2 -9.5
v -9.9 0.2 -9.5
v -9.7 0.2 -9.5
v -9.5 0.2 -9.5
v -9.2 0.2 -9.5
v -9.1 0.2 -9.5
v -9.3 0.2 -9.6
v -9.2 0.2 -9.6
v -10.4 0.2 -9.8
v -10 0.2 -9.8
v -9.5 0.2 -9.8
v -9.3 0.2 -9.8
v -10.6 0.2 -10
v -8.7 0.2 -10
v -10.8 0.2 -10.2
v -8.5 0.2 -10.2
v -10.9 0.2 -10.3
v -8.4 0.2 -10.3

# faces
f 3/1/1 2/1/1 1/1/1
f 4/1/1 2/1/1 3/1/1
f 6/4/1 4/4/1 3/4/1
f 6/4/1 5/4/1 4/4/1
f 7/4/1 5/4/1 6/4/1
f 10/1/1 9/1/1 8/1/1
f 11/1/1 9/1/1 10/1/1
f 14/3/1 13/3/1 12/3/1
f 15/3/1 13/3/1 14/3/1
f 18/3/1 17/3/1 16/3/1
f 19/3/1 17/3/1 18/3/1
f 22/3/1 21/3/1 20/3/1
f 23/3/1 21/3/1 22/3/1
f 26/3/1 25/3/1 24/3/1
f 27/3/1 25/3/1 26/3/1
f 30/3/1 29/3/1 28/3/1
f 31/3/1 29/3/1 30/3/1
f 34/3/1 33/3/1 32/3/1
f 35/3/1 33/3/1 34/3/1
f 38/3/1 37/3/1 36/3/1
f 39/3/1 37/3/1 38/3/1
f 42/3/1 41/3/1 40/3/1
f 43/3/1 41/3/1 42/3/1
f 46/3/1 45/3/1 44/3/1
f 47/3/1 45/3/1 46/3/1
f 48/3/2 49/3/2 50/3/2
f 50/3/2 49/3/2 51/3/2
f 52/3/2 53/3/2 56/3/2
f 56/3/2 53/3/2 57/3/2
f 54/3/2 55/3/2 58/3/2
f 58/3/2 55/3/2 59/3/2
f 60/3/2 61/3/2 62/3/2
f 62/3/2 61/3/2 63/3/2
f 64/3/2 65/3/2 66/3/2
f 66/3/2 65/3/2 67/3/2
f 68/3/2 69/3/2 70/3/2
f 70/3/2 69/3/2 71/3/2
f 72/3/2 73/3/2 74/3/2
f 74/3/2 73/3/2 75/3/2
f 76/3/2 77/3/2 78/3/2
f 78/3/2 77/3/2 79/3/2
f 80/3/2 81/3/2 82/3/2
f 82/3/2 81/3/2 83/3/2
f 84/1/2 85/1/2 87/1/2
f 85/2/2 86/2/2 88/2/2
f 87/1/2 85/1/2 88/1/2
f 88/2/2 86/2/2 89/2/2
f 87/4/2 88/4/2 90/4/2
f 88/4/2 89/4/2 90/4/2
f 90/4/2 89/4/2 91/4/2
f 95/1/3 93/1/3 92/1/3
f 96/4/3 94/4/3 93/4/3
f 96/1/3 93/1/3 95/1/3
f 97/4/3 94/4/3 96/4/3
f 100/3/3 99/3/3 98/3/3
f 101/3/3 99/3/3 100/3/3
f 104/3/3 103/3/3 102/3/3
f 105/3/3 103/3/3 104/3/3
f 108/3/3 107/3/3 106/3/3
f 109/3/3 107/3/3 108/3/3
f 112/3/3 111/3/3 110/3/3
f 113/3/3 111/3/3 112/3/3
f 116/3/3 115/3/3 114/3/3
f 117/3/3 115/3/3 116/3/3
f 120/3/3 119/3/3 118/3/3
f 121/3/3 119/3/3 120/3/3
f 124/3/3 123/3/3 122/3/3
f 125/3/3 123/3/3 124/3/3
f 126/3/4 127/3/4 128/3/4
f 128/3/4 127/3/4 129/3/4
f 130/3/4 131/3/4 132/3/4
f 132/3/4 131/3/4 133/3/4
f 134/3/4 135/3/4 136/3/4
f 136/3/4 135/3/4 137/3/4
f 138/3/4 139/3/4 140/3/4
f 140/3/4 139/3/4 141/3/4
f 142/3/4 143/3/4 144/3/4
f 144/3/4 143/3/4 145/3/4
f 146/3/4 147/3/4 148/3/4
f 148/3/4 147/3/4 149/3/4
f 150/3/4 151/3/4 152/3/4
f 152/3/4 151/3/4 153/3/4
f 154/3/4 155/3/4 156/3/4
f 156/3/4 155/3/4 157/3/4
f 158/3/4 159/3/4 160/3/4
f 160/3/4 159/3/4 161/3/4
f 162/3/4 163/3/4 164/3/4
f 164/3/4 163/3/4 165/3/4
f 166/3/4 167/3/4 168/3/4
f 168/3/4 167/3/4 169/3/4
f 170/1/4 171/1/4 172/1/4
f 172/1/4 171/1/4 173/1/4
f 174/4/4 175/4/4 177/4/4
f 176/1/4 177/1/4 178/1/4
f 177/4/4 175/4/4 179/4/4
f 178/1/4 177/1/4 179/1/4
f 178/2/4 179/2/4 180/2/4
f 179/4/4 175/4/4 181/4/4
f 180/2/4 179/2/4 181/2/4
f 181/4/4 175/4/4 182/4/4
f 185/1/5 184/1/5 183/1/5
f 186/1/5 184/1/5 185/1/5
f 187/1/5 185/1/5 183/1/5
f 188/1/5 185/1/5 187/1/5
f 189/1/5 185/1/5 188/1/5
f 190/2/5 186/2/5 185/2/5
f 190/1/5 185/1/5 189/1/5
f 191/2/5 186/2/5 190/2/5
f 194/4/5 193/4/5 192/4/5
f 195/4/5 193/4/5 194/4/5
f 196/2/6 197/2/6 199/2/6
f 199/2/6 197/2/6 200/2/6
f 198/2/6 199/2/6 202/2/6
f 200/2/6 201/2/6 202/2/6
f 199/2/6 200/2/6 202/2/6
f 202/2/6 201/2/6 203/2/6
f 198/2/6 202/2/6 204/2/6
f 204/2/6 202/2/6 205/2/6
f 205/2/6 202/2/6 206/2/6
f 206/2/6 202/2/6 207/2/6
f 205/2/6 206/2/6 208/2/6
f 208/2/6 206/2/6 209/2/6
f 205/2/6 208/2/6 210/2/6
f 210/2/6 208/2/6 211/2/6
f 205/2/6 210/2/6 212/2/6
f 212/2/6 210/2/6 213/2/6
f 203/2/6 201/2/6 217/2/6
f 214/2/6 215/2/6 219/2/6
f 219/2/6 215/2/6 220/2/6
f 216/2/6 217/2/6 223/2/6
f 222/2/6 223/2/6 225/2/6
f 205/2/6 212/2/6 226/2/6
f 220/2/6 221/2/6 227/2/6
f 218/2/6 219/2/6 227/2/6
f 219/2/6 220/2/6 227/2/6
f 227/2/6 221/2/6 228/2/6
f 224/2/6 225/2/6 229/2/6
f 205/2/6 226/2/6 230/2/6
f 228/2/6 229/2/6 230/2/6
f 227/2/6 228/2/6 230/2/6
f 226/2/6 227/2/6 230/2/6
f 229/2/6 225/2/6 231/2/6
f 230/2/6 229/2/6 231/2/6
f 217/2/6 201/2/6 231/2/6
f 225/2/6 223/2/6 231/2/6
f 223/2/6 217/2/6 231/2/6
f 232/4/6 233/4/6 234/4/6
f 234/4/6 233/4/6 235/4/6
f 234/3/6 235/3/6 236/3/6
f 236/3/6 235/3/6 237/3/6
f 234/3/6 236/3/6 238/3/6
f 238/3/6 236/3/6 239/3/6
f 237/3/6 235/3/6 240/3/6
f 240/3/6 235/3/6 241/3/6
f 234/3/6 238/3/6 244/3/6
f 242/3/6 243/3/6 247/3/6
f 246/3/6 247/3/6 249/3/6
f 248/3/6 249/3/6 251/3/6
f 250/3/6 251/3/6 253/3/6
f 249/3/6 247/3/6 254/3/6
f 252/3/6 253/3/6 254/3/6
f 253/3/6 251/3/6 254/3/6
f 251/3/6 249/3/6 254/3/6
f 247/3/6 243/3/6 255/3/6
f 254/3/6 247/3/6 255/3/6
f 255/3/6 243/3/6 256/3/6
f 256/3/6 243/3/6 257/3/6
f 252/3/6 254/3/6 258/3/6
f 258/3/6 254/3/6 259/3/6
f 255/3/6 256/3/6 260/3/6
f 260/3/6 256/3/6 261/3/6
f 261/3/6 256/3/6 262/3/6
f 262/3/6 256/3/6 263/3/6
f 261/3/6 262/3/6 264/3/6
f 264/3/6 262/3/6 265/3/6
f 252/3/6 258/3/6 266/3/6
f 266/3/6 258/3/6 267/3/6
f 261/3/6 264/3/6 268/3/6
f 268/3/6 264/3/6 269/3/6
f 244/3/6 245/3/6 270/3/6
f 241/3/6 235/3/6 271/3/6
f 232/4/6 234/4/6 272/4/6
f 270/3/6 271/3/6 272/3/6
f 244/3/6 270/3/6 272/3/6
f 234/3/6 244/3/6 272/3/6
f 271/3/6 235/3/6 273/3/6
f 272/3/6 271/3/6 273/3/6
f 235/4/6 233/4/6 273/4/6
f 232/4/6 272/4/6 274/4/6
f 272/4/6 273/4/6 274/4/6
f 273/4/6 233/4/6 275/4/6
f 274/4/6 273/4/6 275/4/6
