# MagicaVoxel @ Ephtracy

# group
o 

# material
mtllib MainDungeonParts-4.mtl
usemtl palette

# normals
vn -1 0 0
vn 1 0 0
vn 0 0 1
vn 0 0 -1
vn 0 -1 0
vn 0 1 0

# texcoords
vt 0.939453 0.5
vt 0.947266 0.5
vt 0.978516 0.5

# verts
v 6.4 0.4 -5.6
v 6.4 0.4 -10.4
v 6.4 0.7 -5.6
v 6.4 0.7 -10.4
v 6.6 0.7 -7.5
v 6.6 0.7 -8.3
v 6.6 0.8 -7.5
v 6.6 0.8 -8.3
v 7.1 0.4 -5.6
v 7.1 0.4 -10.4
v 7.1 0.5 -5.7
v 7.1 0.5 -10.3
v 7.1 0.6 -5.7
v 7.1 0.6 -10.3
v 7.1 0.7 -5.6
v 7.1 0.7 -10.4
v 7.8 0.4 -5.6
v 7.8 0.4 -10.4
v 7.8 0.5 -5.7
v 7.8 0.5 -10.3
v 7.8 0.6 -5.7
v 7.8 0.6 -10.3
v 7.8 0.7 -5.6
v 7.8 0.7 -10.4
v 8.5 0.4 -5.6
v 8.5 0.4 -10.4
v 8.5 0.5 -5.7
v 8.5 0.5 -10.3
v 8.5 0.6 -5.7
v 8.5 0.6 -10.3
v 8.5 0.7 -5.6
v 8.5 0.7 -10.4
v 9.2 0.4 -5.6
v 9.2 0.4 -10.4
v 9.2 0.5 -5.7
v 9.2 0.5 -10.3
v 9.2 0.6 -5.7
v 9.2 0.6 -10.3
v 9.2 0.7 -5.6
v 9.2 0.7 -10.4
v 6.7 0.7 -7.5
v 6.7 0.7 -8.3
v 6.7 0.8 -7.5
v 6.7 0.8 -8.3
v 7 0.4 -5.6
v 7 0.4 -10.4
v 7 0.5 -5.7
v 7 0.5 -10.3
v 7 0.6 -5.7
v 7 0.6 -10.3
v 7 0.7 -5.6
v 7 0.7 -10.4
v 7.7 0.4 -5.6
v 7.7 0.4 -10.4
v 7.7 0.5 -5.7
v 7.7 0.5 -10.3
v 7.7 0.6 -5.7
v 7.7 0.6 -10.3
v 7.7 0.7 -5.6
v 7.7 0.7 -10.4
v 8.4 0.4 -5.6
v 8.4 0.4 -10.4
v 8.4 0.5 -5.7
v 8.4 0.5 -10.3
v 8.4 0.6 -5.7
v 8.4 0.6 -10.3
v 8.4 0.7 -5.6
v 8.4 0.7 -10.4
v 9.1 0.4 -5.6
v 9.1 0.4 -10.4
v 9.1 0.5 -5.7
v 9.1 0.5 -10.3
v 9.1 0.6 -5.7
v 9.1 0.6 -10.3
v 9.1 0.7 -5.6
v 9.1 0.7 -10.4
v 9.8 0.4 -5.6
v 9.8 0.4 -6.1
v 9.8 0.4 -6.4
v 9.8 0.4 -9.5
v 9.8 0.4 -9.8
v 9.8 0.4 -10.4
v 9.8 0.7 -5.6
v 9.8 0.7 -6.1
v 9.8 0.7 -6.4
v 9.8 0.7 -9.5
v 9.8 0.7 -9.8
v 9.8 0.7 -10.4
v 6.4 0.4 -5.6
v 6.4 0.7 -5.6
v 7 0.4 -5.6
v 7 0.7 -5.6
v 7.1 0.4 -5.6
v 7.1 0.7 -5.6
v 7.7 0.4 -5.6
v 7.7 0.7 -5.6
v 7.8 0.4 -5.6
v 7.8 0.7 -5.6
v 8.4 0.4 -5.6
v 8.4 0.7 -5.6
v 8.5 0.4 -5.6
v 8.5 0.7 -5.6
v 9.1 0.4 -5.6
v 9.1 0.7 -5.6
v 9.2 0.4 -5.6
v 9.2 0.7 -5.6
v 9.8 0.4 -5.6
v 9.8 0.7 -5.6
v 7 0.5 -5.7
v 7 0.6 -5.7
v 7.1 0.5 -5.7
v 7.1 0.6 -5.7
v 7.7 0.5 -5.7
v 7.7 0.6 -5.7
v 7.8 0.5 -5.7
v 7.8 0.6 -5.7
v 8.4 0.5 -5.7
v 8.4 0.6 -5.7
v 8.5 0.5 -5.7
v 8.5 0.6 -5.7
v 9.1 0.5 -5.7
v 9.1 0.6 -5.7
v 9.2 0.5 -5.7
v 9.2 0.6 -5.7
v 6.6 0.7 -7.5
v 6.6 0.8 -7.5
v 6.7 0.7 -7.5
v 6.7 0.8 -7.5
v 6.6 0.7 -8.3
v 6.6 0.8 -8.3
v 6.7 0.7 -8.3
v 6.7 0.8 -8.3
v 7 0.5 -10.3
v 7 0.6 -10.3
v 7.1 0.5 -10.3
v 7.1 0.6 -10.3
v 7.7 0.5 -10.3
v 7.7 0.6 -10.3
v 7.8 0.5 -10.3
v 7.8 0.6 -10.3
v 8.4 0.5 -10.3
v 8.4 0.6 -10.3
v 8.5 0.5 -10.3
v 8.5 0.6 -10.3
v 9.1 0.5 -10.3
v 9.1 0.6 -10.3
v 9.2 0.5 -10.3
v 9.2 0.6 -10.3
v 6.4 0.4 -10.4
v 6.4 0.7 -10.4
v 7 0.4 -10.4
v 7 0.7 -10.4
v 7.1 0.4 -10.4
v 7.1 0.7 -10.4
v 7.7 0.4 -10.4
v 7.7 0.7 -10.4
v 7.8 0.4 -10.4
v 7.8 0.7 -10.4
v 8.4 0.4 -10.4
v 8.4 0.7 -10.4
v 8.5 0.4 -10.4
v 8.5 0.7 -10.4
v 9.1 0.4 -10.4
v 9.1 0.7 -10.4
v 9.2 0.4 -10.4
v 9.2 0.7 -10.4
v 9.8 0.4 -10.4
v 9.8 0.7 -10.4
v 6.4 0.4 -5.6
v 7 0.4 -5.6
v 7.1 0.4 -5.6
v 7.7 0.4 -5.6
v 7.8 0.4 -5.6
v 8.4 0.4 -5.6
v 8.5 0.4 -5.6
v 9.1 0.4 -5.6
v 9.2 0.4 -5.6
v 9.8 0.4 -5.6
v 9.3 0.4 -6
v 9.5 0.4 -6
v 9.5 0.4 -6.1
v 9.8 0.4 -6.1
v 9.5 0.4 -6.4
v 9.8 0.4 -6.4
v 9.3 0.4 -6.5
v 9.5 0.4 -6.5
v 9.3 0.4 -9.4
v 9.5 0.4 -9.4
v 9.5 0.4 -9.5
v 9.8 0.4 -9.5
v 9.5 0.4 -9.8
v 9.8 0.4 -9.8
v 9.3 0.4 -9.9
v 9.5 0.4 -9.9
v 6.4 0.4 -10.4
v 7 0.4 -10.4
v 7.1 0.4 -10.4
v 7.7 0.4 -10.4
v 7.8 0.4 -10.4
v 8.4 0.4 -10.4
v 8.5 0.4 -10.4
v 9.1 0.4 -10.4
v 9.2 0.4 -10.4
v 9.8 0.4 -10.4
v 7 0.5 -5.7
v 7.1 0.5 -5.7
v 7.7 0.5 -5.7
v 7.8 0.5 -5.7
v 8.4 0.5 -5.7
v 8.5 0.5 -5.7
v 9.1 0.5 -5.7
v 9.2 0.5 -5.7
v 7 0.5 -10.3
v 7.1 0.5 -10.3
v 7.7 0.5 -10.3
v 7.8 0.5 -10.3
v 8.4 0.5 -10.3
v 8.5 0.5 -10.3
v 9.1 0.5 -10.3
v 9.2 0.5 -10.3
v 7 0.6 -5.7
v 7.1 0.6 -5.7
v 7.7 0.6 -5.7
v 7.8 0.6 -5.7
v 8.4 0.6 -5.7
v 8.5 0.6 -5.7
v 9.1 0.6 -5.7
v 9.2 0.6 -5.7
v 7 0.6 -10.3
v 7.1 0.6 -10.3
v 7.7 0.6 -10.3
v 7.8 0.6 -10.3
v 8.4 0.6 -10.3
v 8.5 0.6 -10.3
v 9.1 0.6 -10.3
v 9.2 0.6 -10.3
v 6.4 0.7 -5.6
v 7 0.7 -5.6
v 7.1 0.7 -5.6
v 7.7 0.7 -5.6
v 7.8 0.7 -5.6
v 8.4 0.7 -5.6
v 8.5 0.7 -5.6
v 9.1 0.7 -5.6
v 9.2 0.7 -5.6
v 9.8 0.7 -5.6
v 9.3 0.7 -6
v 9.5 0.7 -6
v 9.5 0.7 -6.1
v 9.8 0.7 -6.1
v 9.5 0.7 -6.4
v 9.8 0.7 -6.4
v 9.3 0.7 -6.5
v 9.5 0.7 -6.5
v 6.6 0.7 -7.5
v 6.7 0.7 -7.5
v 6.6 0.7 -8.3
v 6.7 0.7 -8.3
v 9.3 0.7 -9.4
v 9.5 0.7 -9.4
v 9.5 0.7 -9.5
v 9.8 0.7 -9.5
v 9.5 0.7 -9.8
v 9.8 0.7 -9.8
v 9.3 0.7 -9.9
v 9.5 0.7 -9.9
v 6.4 0.7 -10.4
v 7 0.7 -10.4
v 7.1 0.7 -10.4
v 7.7 0.7 -10.4
v 7.8 0.7 -10.4
v 8.4 0.7 -10.4
v 8.5 0.7 -10.4
v 9.1 0.7 -10.4
v 9.2 0.7 -10.4
v 9.8 0.7 -10.4
v 6.6 0.8 -7.5
v 6.7 0.8 -7.5
v 6.6 0.8 -8.3
v 6.7 0.8 -8.3

# faces
f 3/3/1 2/3/1 1/3/1
f 4/3/1 2/3/1 3/3/1
f 7/2/1 6/2/1 5/2/1
f 8/2/1 6/2/1 7/2/1
f 11/3/1 10/3/1 9/3/1
f 12/3/1 10/3/1 11/3/1
f 13/3/1 11/3/1 9/3/1
f 14/3/1 10/3/1 12/3/1
f 15/3/1 13/3/1 9/3/1
f 15/3/1 14/3/1 13/3/1
f 16/3/1 10/3/1 14/3/1
f 16/3/1 14/3/1 15/3/1
f 19/3/1 18/3/1 17/3/1
f 20/3/1 18/3/1 19/3/1
f 21/3/1 19/3/1 17/3/1
f 22/3/1 18/3/1 20/3/1
f 23/3/1 21/3/1 17/3/1
f 23/3/1 22/3/1 21/3/1
f 24/3/1 18/3/1 22/3/1
f 24/3/1 22/3/1 23/3/1
f 27/3/1 26/3/1 25/3/1
f 28/3/1 26/3/1 27/3/1
f 29/3/1 27/3/1 25/3/1
f 30/3/1 26/3/1 28/3/1
f 31/3/1 29/3/1 25/3/1
f 31/3/1 30/3/1 29/3/1
f 32/3/1 26/3/1 30/3/1
f 32/3/1 30/3/1 31/3/1
f 35/3/1 34/3/1 33/3/1
f 36/3/1 34/3/1 35/3/1
f 37/3/1 35/3/1 33/3/1
f 38/3/1 34/3/1 36/3/1
f 39/3/1 37/3/1 33/3/1
f 39/3/1 38/3/1 37/3/1
f 40/3/1 34/3/1 38/3/1
f 40/3/1 38/3/1 39/3/1
f 41/2/2 42/2/2 43/2/2
f 43/2/2 42/2/2 44/2/2
f 45/3/2 46/3/2 47/3/2
f 47/3/2 46/3/2 48/3/2
f 45/3/2 47/3/2 49/3/2
f 48/3/2 46/3/2 50/3/2
f 45/3/2 49/3/2 51/3/2
f 49/3/2 50/3/2 51/3/2
f 50/3/2 46/3/2 52/3/2
f 51/3/2 50/3/2 52/3/2
f 53/3/2 54/3/2 55/3/2
f 55/3/2 54/3/2 56/3/2
f 53/3/2 55/3/2 57/3/2
f 56/3/2 54/3/2 58/3/2
f 53/3/2 57/3/2 59/3/2
f 57/3/2 58/3/2 59/3/2
f 58/3/2 54/3/2 60/3/2
f 59/3/2 58/3/2 60/3/2
f 61/3/2 62/3/2 63/3/2
f 63/3/2 62/3/2 64/3/2
f 61/3/2 63/3/2 65/3/2
f 64/3/2 62/3/2 66/3/2
f 61/3/2 65/3/2 67/3/2
f 65/3/2 66/3/2 67/3/2
f 66/3/2 62/3/2 68/3/2
f 67/3/2 66/3/2 68/3/2
f 69/3/2 70/3/2 71/3/2
f 71/3/2 70/3/2 72/3/2
f 69/3/2 71/3/2 73/3/2
f 72/3/2 70/3/2 74/3/2
f 69/3/2 73/3/2 75/3/2
f 73/3/2 74/3/2 75/3/2
f 74/3/2 70/3/2 76/3/2
f 75/3/2 74/3/2 76/3/2
f 77/3/2 78/3/2 83/3/2
f 78/1/2 79/1/2 84/1/2
f 83/3/2 78/3/2 84/3/2
f 79/3/2 80/3/2 85/3/2
f 84/1/2 79/1/2 85/1/2
f 80/1/2 81/1/2 86/1/2
f 85/3/2 80/3/2 86/3/2
f 81/3/2 82/3/2 87/3/2
f 86/1/2 81/1/2 87/1/2
f 87/3/2 82/3/2 88/3/2
f 91/3/3 90/3/3 89/3/3
f 92/3/3 90/3/3 91/3/3
f 95/3/3 94/3/3 93/3/3
f 96/3/3 94/3/3 95/3/3
f 99/3/3 98/3/3 97/3/3
f 100/3/3 98/3/3 99/3/3
f 103/3/3 102/3/3 101/3/3
f 104/3/3 102/3/3 103/3/3
f 107/3/3 106/3/3 105/3/3
f 108/3/3 106/3/3 107/3/3
f 111/2/3 110/2/3 109/2/3
f 112/2/3 110/2/3 111/2/3
f 115/2/3 114/2/3 113/2/3
f 116/2/3 114/2/3 115/2/3
f 119/2/3 118/2/3 117/2/3
f 120/2/3 118/2/3 119/2/3
f 123/2/3 122/2/3 121/2/3
f 124/2/3 122/2/3 123/2/3
f 127/2/3 126/2/3 125/2/3
f 128/2/3 126/2/3 127/2/3
f 129/2/4 130/2/4 131/2/4
f 131/2/4 130/2/4 132/2/4
f 133/2/4 134/2/4 135/2/4
f 135/2/4 134/2/4 136/2/4
f 137/2/4 138/2/4 139/2/4
f 139/2/4 138/2/4 140/2/4
f 141/2/4 142/2/4 143/2/4
f 143/2/4 142/2/4 144/2/4
f 145/2/4 146/2/4 147/2/4
f 147/2/4 146/2/4 148/2/4
f 149/3/4 150/3/4 151/3/4
f 151/3/4 150/3/4 152/3/4
f 153/3/4 154/3/4 155/3/4
f 155/3/4 154/3/4 156/3/4
f 157/3/4 158/3/4 159/3/4
f 159/3/4 158/3/4 160/3/4
f 161/3/4 162/3/4 163/3/4
f 163/3/4 162/3/4 164/3/4
f 165/3/4 166/3/4 167/3/4
f 167/3/4 166/3/4 168/3/4
f 179/3/5 178/3/5 177/3/5
f 180/3/5 178/3/5 179/3/5
f 181/1/5 180/1/5 179/1/5
f 181/3/5 178/3/5 180/3/5
f 182/3/5 178/3/5 181/3/5
f 183/1/5 181/1/5 179/1/5
f 183/1/5 182/1/5 181/1/5
f 184/1/5 182/1/5 183/1/5
f 185/3/5 179/3/5 177/3/5
f 185/1/5 183/1/5 179/1/5
f 186/3/5 184/3/5 183/3/5
f 186/1/5 183/1/5 185/1/5
f 187/3/5 185/3/5 177/3/5
f 187/3/5 186/3/5 185/3/5
f 188/3/5 184/3/5 186/3/5
f 188/3/5 186/3/5 187/3/5
f 189/1/5 188/1/5 187/1/5
f 189/3/5 184/3/5 188/3/5
f 190/3/5 184/3/5 189/3/5
f 191/1/5 189/1/5 187/1/5
f 191/1/5 190/1/5 189/1/5
f 192/1/5 190/1/5 191/1/5
f 193/3/5 187/3/5 177/3/5
f 193/1/5 191/1/5 187/1/5
f 194/3/5 192/3/5 191/3/5
f 194/1/5 191/1/5 193/1/5
f 195/3/5 170/3/5 169/3/5
f 196/3/5 170/3/5 195/3/5
f 197/3/5 172/3/5 171/3/5
f 198/3/5 172/3/5 197/3/5
f 199/3/5 174/3/5 173/3/5
f 200/3/5 174/3/5 199/3/5
f 201/3/5 176/3/5 175/3/5
f 202/3/5 176/3/5 201/3/5
f 203/3/5 193/3/5 177/3/5
f 203/3/5 194/3/5 193/3/5
f 204/3/5 192/3/5 194/3/5
f 204/3/5 194/3/5 203/3/5
f 213/2/5 206/2/5 205/2/5
f 214/2/5 206/2/5 213/2/5
f 215/2/5 208/2/5 207/2/5
f 216/2/5 208/2/5 215/2/5
f 217/2/5 210/2/5 209/2/5
f 218/2/5 210/2/5 217/2/5
f 219/2/5 212/2/5 211/2/5
f 220/2/5 212/2/5 219/2/5
f 221/2/6 222/2/6 229/2/6
f 229/2/6 222/2/6 230/2/6
f 223/2/6 224/2/6 231/2/6
f 231/2/6 224/2/6 232/2/6
f 225/2/6 226/2/6 233/2/6
f 233/2/6 226/2/6 234/2/6
f 227/2/6 228/2/6 235/2/6
f 235/2/6 228/2/6 236/2/6
f 245/3/6 246/3/6 247/3/6
f 247/3/6 246/3/6 248/3/6
f 247/1/6 248/1/6 249/1/6
f 248/3/6 246/3/6 249/3/6
f 249/3/6 246/3/6 250/3/6
f 247/1/6 249/1/6 251/1/6
f 249/1/6 250/1/6 251/1/6
f 251/1/6 250/1/6 252/1/6
f 245/3/6 247/3/6 253/3/6
f 247/1/6 251/1/6 253/1/6
f 251/3/6 252/3/6 254/3/6
f 253/1/6 251/1/6 254/1/6
f 237/3/6 238/3/6 255/3/6
f 255/3/6 238/3/6 256/3/6
f 237/3/6 255/3/6 257/3/6
f 256/3/6 238/3/6 258/3/6
f 245/3/6 253/3/6 259/3/6
f 253/3/6 254/3/6 259/3/6
f 254/3/6 252/3/6 260/3/6
f 259/3/6 254/3/6 260/3/6
f 259/1/6 260/1/6 261/1/6
f 260/3/6 252/3/6 261/3/6
f 261/3/6 252/3/6 262/3/6
f 259/1/6 261/1/6 263/1/6
f 261/1/6 262/1/6 263/1/6
f 263/1/6 262/1/6 264/1/6
f 245/3/6 259/3/6 265/3/6
f 259/1/6 263/1/6 265/1/6
f 263/3/6 264/3/6 266/3/6
f 265/1/6 263/1/6 266/1/6
f 257/3/6 258/3/6 267/3/6
f 237/3/6 257/3/6 267/3/6
f 258/3/6 238/3/6 268/3/6
f 267/3/6 258/3/6 268/3/6
f 239/3/6 240/3/6 269/3/6
f 269/3/6 240/3/6 270/3/6
f 241/3/6 242/3/6 271/3/6
f 271/3/6 242/3/6 272/3/6
f 243/3/6 244/3/6 273/3/6
f 273/3/6 244/3/6 274/3/6
f 265/3/6 266/3/6 275/3/6
f 245/3/6 265/3/6 275/3/6
f 266/3/6 264/3/6 276/3/6
f 275/3/6 266/3/6 276/3/6
f 277/2/6 278/2/6 279/2/6
f 279/2/6 278/2/6 280/2/6
