# MagicaVoxel @ Ephtracy

# group
o 

# material
mtllib MainDungeonParts-15.mtl
usemtl palette

# normals
vn -1 0 0
vn 1 0 0
vn 0 0 1
vn 0 0 -1
vn 0 -1 0
vn 0 1 0

# texcoords
vt 0.966797 0.5
vt 0.970703 0.5
vt 0.974609 0.5
vt 0.982422 0.5

# verts
v -8.2 0 -5.1
v -8.2 0 -7.5
v -8.2 0.1 -5.1
v -8.2 0.1 -7.5
v -8.2 0.1 -7.6
v -8.2 0.2 -5.1
v -8.2 0.2 -7.6
v -8.1 0 -7.5
v -8.1 0 -7.6
v -8.1 0.1 -7.5
v -8.1 0.1 -7.6
v -7.7 0.1 -5.6
v -7.7 0.1 -6.1
v -7.7 0.1 -6.6
v -7.7 0.1 -7.1
v -7.7 0.2 -5.6
v -7.7 0.2 -6.1
v -7.7 0.2 -6.6
v -7.7 0.2 -7.1
v -7.6 0.1 -6.1
v -7.6 0.1 -6.2
v -7.6 0.1 -6.5
v -7.6 0.1 -6.6
v -7.6 0.2 -6.1
v -7.6 0.2 -6.2
v -7.6 0.2 -6.5
v -7.6 0.2 -6.6
v -7.5 0.1 -6.2
v -7.5 0.1 -6.5
v -7.5 0.2 -6.2
v -7.5 0.2 -6.5
v -6.1 0.1 -5.3
v -6.1 0.1 -5.4
v -6.1 0.2 -5.3
v -6.1 0.2 -5.4
v -6 0.1 -5.4
v -6 0.1 -5.6
v -6 0.1 -5.9
v -6 0.1 -6.5
v -6 0.1 -6.9
v -6 0.1 -7
v -6 0.1 -7.3
v -6 0.1 -7.4
v -6 0.2 -5.4
v -6 0.2 -5.6
v -6 0.2 -5.9
v -6 0.2 -6.5
v -6 0.2 -6.9
v -6 0.2 -7
v -6 0.2 -7.3
v -6 0.2 -7.4
v -5.9 0.1 -5.6
v -5.9 0.1 -5.9
v -5.9 0.1 -6.5
v -5.9 0.1 -6.9
v -5.9 0.1 -7
v -5.9 0.1 -7.3
v -5.9 0.2 -5.6
v -5.9 0.2 -5.9
v -5.9 0.2 -6.5
v -5.9 0.2 -6.9
v -5.9 0.2 -7
v -5.9 0.2 -7.3
v -8 0.1 -6.3
v -8 0.1 -6.5
v -8 0.2 -6.3
v -8 0.2 -6.5
v -7.9 0.1 -5.4
v -7.9 0.1 -6.3
v -7.9 0.1 -6.5
v -7.9 0.1 -7.3
v -7.9 0.2 -5.4
v -7.9 0.2 -6.3
v -7.9 0.2 -6.5
v -7.9 0.2 -7.3
v -6.6 0.1 -6.9
v -6.6 0.1 -7.1
v -6.6 0.2 -6.9
v -6.6 0.2 -7.1
v -6.5 0.1 -5.6
v -6.5 0.1 -5.7
v -6.5 0.1 -6.8
v -6.5 0.1 -6.9
v -6.5 0.2 -5.6
v -6.5 0.2 -5.7
v -6.5 0.2 -6.8
v -6.5 0.2 -6.9
v -6.4 0.1 -5.3
v -6.4 0.1 -5.4
v -6.4 0.1 -5.7
v -6.4 0.1 -5.8
v -6.4 0.1 -6.6
v -6.4 0.1 -6.8
v -6.4 0.1 -7.3
v -6.4 0.1 -7.4
v -6.4 0.2 -5.3
v -6.4 0.2 -5.4
v -6.4 0.2 -5.7
v -6.4 0.2 -5.8
v -6.4 0.2 -6.6
v -6.4 0.2 -6.8
v -6.4 0.2 -7.3
v -6.4 0.2 -7.4
v -6.3 0.1 -5.8
v -6.3 0.1 -6
v -6.3 0.1 -6.4
v -6.3 0.1 -6.6
v -6.3 0.2 -5.8
v -6.3 0.2 -6
v -6.3 0.2 -6.4
v -6.3 0.2 -6.6
v -6.2 0.1 -6
v -6.2 0.1 -6.4
v -6.2 0.2 -6
v -6.2 0.2 -6.4
v -5.7 0 -5.1
v -5.7 0 -5.3
v -5.7 0 -7.6
v -5.7 0.1 -5.1
v -5.7 0.1 -5.3
v -5.7 0.1 -7.6
v -5.7 0.2 -5.1
v -5.7 0.2 -7.6
v -8.2 0 -5.1
v -8.2 0.1 -5.1
v -8.2 0.2 -5.1
v -5.7 0 -5.1
v -5.7 0.1 -5.1
v -5.7 0.2 -5.1
v -7.7 0.1 -5.6
v -7.7 0.2 -5.6
v -6.5 0.1 -5.6
v -6.5 0.2 -5.6
v -6.5 0.1 -5.7
v -6.5 0.2 -5.7
v -6.4 0.1 -5.7
v -6.4 0.2 -5.7
v -6.4 0.1 -5.8
v -6.4 0.2 -5.8
v -6.3 0.1 -5.8
v -6.3 0.2 -5.8
v -6 0.1 -5.9
v -6 0.2 -5.9
v -5.9 0.1 -5.9
v -5.9 0.2 -5.9
v -6.3 0.1 -6
v -6.3 0.2 -6
v -6.2 0.1 -6
v -6.2 0.2 -6
v -8 0.1 -6.5
v -8 0.2 -6.5
v -7.9 0.1 -6.5
v -7.9 0.2 -6.5
v -7.6 0.1 -6.5
v -7.6 0.2 -6.5
v -7.5 0.1 -6.5
v -7.5 0.2 -6.5
v -7.7 0.1 -6.6
v -7.7 0.2 -6.6
v -7.6 0.1 -6.6
v -7.6 0.2 -6.6
v -6 0.1 -6.9
v -6 0.2 -6.9
v -5.9 0.1 -6.9
v -5.9 0.2 -6.9
v -7.9 0.1 -7.3
v -7.9 0.2 -7.3
v -6.4 0.1 -7.3
v -6.4 0.2 -7.3
v -6 0.1 -7.3
v -6 0.2 -7.3
v -5.9 0.1 -7.3
v -5.9 0.2 -7.3
v -6.4 0.1 -7.4
v -6.4 0.2 -7.4
v -6 0.1 -7.4
v -6 0.2 -7.4
v -6.4 0.1 -5.3
v -6.4 0.2 -5.3
v -6.1 0.1 -5.3
v -6.1 0.2 -5.3
v -7.9 0.1 -5.4
v -7.9 0.2 -5.4
v -6.4 0.1 -5.4
v -6.4 0.2 -5.4
v -6.1 0.1 -5.4
v -6.1 0.2 -5.4
v -6 0.1 -5.4
v -6 0.2 -5.4
v -6 0.1 -5.6
v -6 0.2 -5.6
v -5.9 0.1 -5.6
v -5.9 0.2 -5.6
v -7.7 0.1 -6.1
v -7.7 0.2 -6.1
v -7.6 0.1 -6.1
v -7.6 0.2 -6.1
v -7.6 0.1 -6.2
v -7.6 0.2 -6.2
v -7.5 0.1 -6.2
v -7.5 0.2 -6.2
v -8 0.1 -6.3
v -8 0.2 -6.3
v -7.9 0.1 -6.3
v -7.9 0.2 -6.3
v -6.3 0.1 -6.4
v -6.3 0.2 -6.4
v -6.2 0.1 -6.4
v -6.2 0.2 -6.4
v -6 0.1 -6.5
v -6 0.2 -6.5
v -5.9 0.1 -6.5
v -5.9 0.2 -6.5
v -6.4 0.1 -6.6
v -6.4 0.2 -6.6
v -6.3 0.1 -6.6
v -6.3 0.2 -6.6
v -6.5 0.1 -6.8
v -6.5 0.2 -6.8
v -6.4 0.1 -6.8
v -6.4 0.2 -6.8
v -6.6 0.1 -6.9
v -6.6 0.2 -6.9
v -6.5 0.1 -6.9
v -6.5 0.2 -6.9
v -6 0.1 -7
v -6 0.2 -7
v -5.9 0.1 -7
v -5.9 0.2 -7
v -7.7 0.1 -7.1
v -7.7 0.2 -7.1
v -6.6 0.1 -7.1
v -6.6 0.2 -7.1
v -8.2 0 -7.5
v -8.2 0.1 -7.5
v -8.1 0 -7.5
v -8.1 0.1 -7.5
v -8.2 0.1 -7.6
v -8.2 0.2 -7.6
v -8.1 0 -7.6
v -8.1 0.1 -7.6
v -8 0 -7.6
v -8 0.1 -7.6
v -5.7 0 -7.6
v -5.7 0.1 -7.6
v -5.7 0.2 -7.6
v -8.2 0 -5.1
v -5.7 0 -5.1
v -8 0 -5.3
v -5.7 0 -5.3
v -8.2 0 -7.5
v -8.1 0 -7.5
v -8.1 0 -7.6
v -8 0 -7.6
v -5.7 0 -7.6
v -8.2 0.1 -7.5
v -8.1 0.1 -7.5
v -8.2 0.1 -7.6
v -8.1 0.1 -7.6
v -6.4 0.1 -5.3
v -6.1 0.1 -5.3
v -7.9 0.1 -5.4
v -6.4 0.1 -5.4
v -6.1 0.1 -5.4
v -6 0.1 -5.4
v -7.7 0.1 -5.6
v -6.5 0.1 -5.6
v -6 0.1 -5.6
v -5.9 0.1 -5.6
v -6.5 0.1 -5.7
v -6.4 0.1 -5.7
v -6.4 0.1 -5.8
v -6.3 0.1 -5.8
v -6 0.1 -5.9
v -5.9 0.1 -5.9
v -6.3 0.1 -6
v -6.2 0.1 -6
v -7.7 0.1 -6.1
v -7.6 0.1 -6.1
v -7.6 0.1 -6.2
v -7.5 0.1 -6.2
v -8 0.1 -6.3
v -7.9 0.1 -6.3
v -6.3 0.1 -6.4
v -6.2 0.1 -6.4
v -8 0.1 -6.5
v -7.9 0.1 -6.5
v -7.6 0.1 -6.5
v -7.5 0.1 -6.5
v -6 0.1 -6.5
v -5.9 0.1 -6.5
v -7.7 0.1 -6.6
v -7.6 0.1 -6.6
v -6.4 0.1 -6.6
v -6.3 0.1 -6.6
v -6.5 0.1 -6.8
v -6.4 0.1 -6.8
v -6.6 0.1 -6.9
v -6.5 0.1 -6.9
v -6 0.1 -6.9
v -5.9 0.1 -6.9
v -6 0.1 -7
v -5.9 0.1 -7
v -7.7 0.1 -7.1
v -6.6 0.1 -7.1
v -7.9 0.1 -7.3
v -6.4 0.1 -7.3
v -6 0.1 -7.3
v -5.9 0.1 -7.3
v -6.4 0.1 -7.4
v -6 0.1 -7.4
v -8.2 0.2 -5.1
v -5.7 0.2 -5.1
v -8.1 0.2 -5.2
v -5.8 0.2 -5.2
v -6.4 0.2 -5.3
v -6.1 0.2 -5.3
v -7.9 0.2 -5.4
v -6.4 0.2 -5.4
v -6.1 0.2 -5.4
v -6 0.2 -5.4
v -7.7 0.2 -5.6
v -6.5 0.2 -5.6
v -6 0.2 -5.6
v -5.9 0.2 -5.6
v -6.5 0.2 -5.7
v -6.4 0.2 -5.7
v -6.4 0.2 -5.8
v -6.3 0.2 -5.8
v -6 0.2 -5.9
v -5.9 0.2 -5.9
v -6.3 0.2 -6
v -6.2 0.2 -6
v -7.7 0.2 -6.1
v -7.6 0.2 -6.1
v -7.6 0.2 -6.2
v -7.5 0.2 -6.2
v -8 0.2 -6.3
v -7.9 0.2 -6.3
v -6.3 0.2 -6.4
v -6.2 0.2 -6.4
v -8 0.2 -6.5
v -7.9 0.2 -6.5
v -7.6 0.2 -6.5
v -7.5 0.2 -6.5
v -6 0.2 -6.5
v -5.9 0.2 -6.5
v -7.7 0.2 -6.6
v -7.6 0.2 -6.6
v -6.4 0.2 -6.6
v -6.3 0.2 -6.6
v -6.5 0.2 -6.8
v -6.4 0.2 -6.8
v -6.6 0.2 -6.9
v -6.5 0.2 -6.9
v -6 0.2 -6.9
v -5.9 0.2 -6.9
v -6 0.2 -7
v -5.9 0.2 -7
v -7.7 0.2 -7.1
v -6.6 0.2 -7.1
v -7.9 0.2 -7.3
v -6.4 0.2 -7.3
v -6 0.2 -7.3
v -5.9 0.2 -7.3
v -6.4 0.2 -7.4
v -6 0.2 -7.4
v -8.1 0.2 -7.5
v -5.8 0.2 -7.5
v -8.2 0.2 -7.6
v -5.7 0.2 -7.6

# faces
f 3/1/1 2/1/1 1/1/1
f 4/1/1 2/1/1 3/1/1
f 6/4/1 4/4/1 3/4/1
f 6/4/1 5/4/1 4/4/1
f 7/4/1 5/4/1 6/4/1
f 10/1/1 9/1/1 8/1/1
f 11/1/1 9/1/1 10/1/1
f 16/3/1 13/3/1 12/3/1
f 17/3/1 13/3/1 16/3/1
f 18/3/1 15/3/1 14/3/1
f 19/3/1 15/3/1 18/3/1
f 24/3/1 21/3/1 20/3/1
f 25/3/1 21/3/1 24/3/1
f 26/3/1 23/3/1 22/3/1
f 27/3/1 23/3/1 26/3/1
f 30/3/1 29/3/1 28/3/1
f 31/3/1 29/3/1 30/3/1
f 34/3/1 33/3/1 32/3/1
f 35/3/1 33/3/1 34/3/1
f 44/3/1 37/3/1 36/3/1
f 45/3/1 37/3/1 44/3/1
f 46/3/1 39/3/1 38/3/1
f 47/3/1 39/3/1 46/3/1
f 48/3/1 41/3/1 40/3/1
f 49/3/1 41/3/1 48/3/1
f 50/3/1 43/3/1 42/3/1
f 51/3/1 43/3/1 50/3/1
f 58/3/1 53/3/1 52/3/1
f 59/3/1 53/3/1 58/3/1
f 60/3/1 55/3/1 54/3/1
f 61/3/1 55/3/1 60/3/1
f 62/3/1 57/3/1 56/3/1
f 63/3/1 57/3/1 62/3/1
f 64/3/2 65/3/2 66/3/2
f 66/3/2 65/3/2 67/3/2
f 68/3/2 69/3/2 72/3/2
f 72/3/2 69/3/2 73/3/2
f 70/3/2 71/3/2 74/3/2
f 74/3/2 71/3/2 75/3/2
f 76/3/2 77/3/2 78/3/2
f 78/3/2 77/3/2 79/3/2
f 80/3/2 81/3/2 84/3/2
f 84/3/2 81/3/2 85/3/2
f 82/3/2 83/3/2 86/3/2
f 86/3/2 83/3/2 87/3/2
f 88/3/2 89/3/2 96/3/2
f 96/3/2 89/3/2 97/3/2
f 90/3/2 91/3/2 98/3/2
f 98/3/2 91/3/2 99/3/2
f 92/3/2 93/3/2 100/3/2
f 100/3/2 93/3/2 101/3/2
f 94/3/2 95/3/2 102/3/2
f 102/3/2 95/3/2 103/3/2
f 104/3/2 105/3/2 108/3/2
f 108/3/2 105/3/2 109/3/2
f 106/3/2 107/3/2 110/3/2
f 110/3/2 107/3/2 111/3/2
f 112/3/2 113/3/2 114/3/2
f 114/3/2 113/3/2 115/3/2
f 116/1/2 117/1/2 119/1/2
f 117/2/2 118/2/2 120/2/2
f 119/1/2 117/1/2 120/1/2
f 120/2/2 118/2/2 121/2/2
f 119/4/2 120/4/2 122/4/2
f 120/4/2 121/4/2 122/4/2
f 122/4/2 121/4/2 123/4/2
f 127/1/3 125/1/3 124/1/3
f 128/4/3 126/4/3 125/4/3
f 128/1/3 125/1/3 127/1/3
f 129/4/3 126/4/3 128/4/3
f 132/3/3 131/3/3 130/3/3
f 133/3/3 131/3/3 132/3/3
f 136/3/3 135/3/3 134/3/3
f 137/3/3 135/3/3 136/3/3
f 140/3/3 139/3/3 138/3/3
f 141/3/3 139/3/3 140/3/3
f 144/3/3 143/3/3 142/3/3
f 145/3/3 143/3/3 144/3/3
f 148/3/3 147/3/3 146/3/3
f 149/3/3 147/3/3 148/3/3
f 152/3/3 151/3/3 150/3/3
f 153/3/3 151/3/3 152/3/3
f 156/3/3 155/3/3 154/3/3
f 157/3/3 155/3/3 156/3/3
f 160/3/3 159/3/3 158/3/3
f 161/3/3 159/3/3 160/3/3
f 164/3/3 163/3/3 162/3/3
f 165/3/3 163/3/3 164/3/3
f 168/3/3 167/3/3 166/3/3
f 169/3/3 167/3/3 168/3/3
f 172/3/3 171/3/3 170/3/3
f 173/3/3 171/3/3 172/3/3
f 176/3/3 175/3/3 174/3/3
f 177/3/3 175/3/3 176/3/3
f 178/3/4 179/3/4 180/3/4
f 180/3/4 179/3/4 181/3/4
f 182/3/4 183/3/4 184/3/4
f 184/3/4 183/3/4 185/3/4
f 186/3/4 187/3/4 188/3/4
f 188/3/4 187/3/4 189/3/4
f 190/3/4 191/3/4 192/3/4
f 192/3/4 191/3/4 193/3/4
f 194/3/4 195/3/4 196/3/4
f 196/3/4 195/3/4 197/3/4
f 198/3/4 199/3/4 200/3/4
f 200/3/4 199/3/4 201/3/4
f 202/3/4 203/3/4 204/3/4
f 204/3/4 203/3/4 205/3/4
f 206/3/4 207/3/4 208/3/4
f 208/3/4 207/3/4 209/3/4
f 210/3/4 211/3/4 212/3/4
f 212/3/4 211/3/4 213/3/4
f 214/3/4 215/3/4 216/3/4
f 216/3/4 215/3/4 217/3/4
f 218/3/4 219/3/4 220/3/4
f 220/3/4 219/3/4 221/3/4
f 222/3/4 223/3/4 224/3/4
f 224/3/4 223/3/4 225/3/4
f 226/3/4 227/3/4 228/3/4
f 228/3/4 227/3/4 229/3/4
f 230/3/4 231/3/4 232/3/4
f 232/3/4 231/3/4 233/3/4
f 234/1/4 235/1/4 236/1/4
f 236/1/4 235/1/4 237/1/4
f 238/4/4 239/4/4 241/4/4
f 240/1/4 241/1/4 242/1/4
f 241/4/4 239/4/4 243/4/4
f 242/1/4 241/1/4 243/1/4
f 242/2/4 243/2/4 244/2/4
f 243/4/4 239/4/4 245/4/4
f 244/2/4 243/2/4 245/2/4
f 245/4/4 239/4/4 246/4/4
f 249/1/5 248/1/5 247/1/5
f 250/1/5 248/1/5 249/1/5
f 251/1/5 249/1/5 247/1/5
f 252/1/5 249/1/5 251/1/5
f 253/1/5 249/1/5 252/1/5
f 254/2/5 250/2/5 249/2/5
f 254/1/5 249/1/5 253/1/5
f 255/2/5 250/2/5 254/2/5
f 258/4/5 257/4/5 256/4/5
f 259/4/5 257/4/5 258/4/5
f 260/2/6 261/2/6 263/2/6
f 263/2/6 261/2/6 264/2/6
f 262/2/6 263/2/6 266/2/6
f 264/2/6 265/2/6 266/2/6
f 263/2/6 264/2/6 266/2/6
f 266/2/6 265/2/6 267/2/6
f 267/2/6 265/2/6 268/2/6
f 268/2/6 269/2/6 270/2/6
f 267/2/6 268/2/6 270/2/6
f 270/2/6 269/2/6 271/2/6
f 271/2/6 269/2/6 272/2/6
f 272/2/6 269/2/6 273/2/6
f 273/2/6 269/2/6 274/2/6
f 274/2/6 269/2/6 275/2/6
f 273/2/6 274/2/6 276/2/6
f 276/2/6 274/2/6 277/2/6
f 262/2/6 266/2/6 278/2/6
f 278/2/6 279/2/6 280/2/6
f 262/2/6 278/2/6 283/2/6
f 280/2/6 281/2/6 283/2/6
f 278/2/6 280/2/6 283/2/6
f 277/2/6 274/2/6 285/2/6
f 282/2/6 283/2/6 286/2/6
f 283/2/6 281/2/6 287/2/6
f 286/2/6 283/2/6 287/2/6
f 287/2/6 281/2/6 288/2/6
f 288/2/6 281/2/6 289/2/6
f 284/2/6 285/2/6 290/2/6
f 285/2/6 274/2/6 290/2/6
f 287/2/6 288/2/6 292/2/6
f 292/2/6 288/2/6 293/2/6
f 290/2/6 291/2/6 295/2/6
f 284/2/6 290/2/6 295/2/6
f 294/2/6 295/2/6 297/2/6
f 296/2/6 297/2/6 299/2/6
f 295/2/6 291/2/6 300/2/6
f 297/2/6 295/2/6 300/2/6
f 299/2/6 297/2/6 300/2/6
f 300/2/6 291/2/6 301/2/6
f 298/2/6 299/2/6 302/2/6
f 299/2/6 300/2/6 302/2/6
f 287/2/6 292/2/6 304/2/6
f 302/2/6 303/2/6 305/2/6
f 298/2/6 302/2/6 305/2/6
f 287/2/6 304/2/6 306/2/6
f 304/2/6 305/2/6 306/2/6
f 305/2/6 303/2/6 307/2/6
f 306/2/6 305/2/6 307/2/6
f 307/2/6 303/2/6 308/2/6
f 308/2/6 303/2/6 309/2/6
f 307/2/6 308/2/6 310/2/6
f 310/2/6 308/2/6 311/2/6
f 312/4/6 313/4/6 314/4/6
f 314/4/6 313/4/6 315/4/6
f 314/3/6 315/3/6 316/3/6
f 316/3/6 315/3/6 317/3/6
f 314/3/6 316/3/6 318/3/6
f 318/3/6 316/3/6 319/3/6
f 317/3/6 315/3/6 320/3/6
f 320/3/6 315/3/6 321/3/6
f 321/3/6 315/3/6 324/3/6
f 324/3/6 315/3/6 325/3/6
f 322/3/6 323/3/6 326/3/6
f 326/3/6 327/3/6 328/3/6
f 325/3/6 315/3/6 331/3/6
f 328/3/6 329/3/6 332/3/6
f 322/3/6 326/3/6 334/3/6
f 332/3/6 333/3/6 334/3/6
f 328/3/6 332/3/6 334/3/6
f 326/3/6 328/3/6 334/3/6
f 334/3/6 333/3/6 335/3/6
f 335/3/6 333/3/6 336/3/6
f 336/3/6 333/3/6 337/3/6
f 314/3/6 318/3/6 338/3/6
f 338/3/6 318/3/6 339/3/6
f 337/3/6 333/3/6 340/3/6
f 340/3/6 333/3/6 341/3/6
f 314/3/6 338/3/6 342/3/6
f 337/3/6 340/3/6 345/3/6
f 330/3/6 331/3/6 346/3/6
f 331/3/6 315/3/6 347/3/6
f 346/3/6 331/3/6 347/3/6
f 344/3/6 345/3/6 349/3/6
f 345/3/6 340/3/6 350/3/6
f 349/3/6 345/3/6 350/3/6
f 350/3/6 340/3/6 351/3/6
f 348/3/6 349/3/6 352/3/6
f 349/3/6 350/3/6 352/3/6
f 352/3/6 350/3/6 353/3/6
f 348/3/6 352/3/6 354/3/6
f 354/3/6 352/3/6 355/3/6
f 347/3/6 315/3/6 357/3/6
f 356/3/6 357/3/6 358/3/6
f 357/3/6 315/3/6 359/3/6
f 358/3/6 357/3/6 359/3/6
f 348/3/6 354/3/6 360/3/6
f 360/3/6 354/3/6 361/3/6
f 342/3/6 343/3/6 362/3/6
f 359/3/6 315/3/6 365/3/6
f 362/3/6 363/3/6 366/3/6
f 364/3/6 365/3/6 367/3/6
f 312/4/6 314/4/6 368/4/6
f 366/3/6 367/3/6 368/3/6
f 362/3/6 366/3/6 368/3/6
f 342/3/6 362/3/6 368/3/6
f 314/3/6 342/3/6 368/3/6
f 367/3/6 365/3/6 369/3/6
f 368/3/6 367/3/6 369/3/6
f 315/4/6 313/4/6 369/4/6
f 365/3/6 315/3/6 369/3/6
f 312/4/6 368/4/6 370/4/6
f 368/4/6 369/4/6 370/4/6
f 369/4/6 313/4/6 371/4/6
f 370/4/6 369/4/6 371/4/6
