# MagicaVoxel @ Ephtracy

# group
o 

# material
mtllib MainDungeonParts-12.mtl
usemtl palette

# normals
vn -1 0 0
vn 1 0 0
vn 0 0 1
vn 0 0 -1
vn 0 -1 0
vn 0 1 0

# texcoords
vt 0.970703 0.5
vt 0.974609 0.5

# verts
v -10.8 0 0.9
v -10.8 0 -4.5
v -10.8 0.1 0.9
v -10.8 0.1 0.3
v -10.8 0.1 0.1
v -10.8 0.1 -0.5
v -10.8 0.1 -0.7
v -10.8 0.1 -1.3
v -10.8 0.1 -1.5
v -10.8 0.1 -2.1
v -10.8 0.1 -2.3
v -10.8 0.1 -2.9
v -10.8 0.1 -3.1
v -10.8 0.1 -3.7
v -10.8 0.1 -3.9
v -10.8 0.1 -4.5
v -10.8 0.2 0.9
v -10.8 0.2 0.3
v -10.8 0.2 0.1
v -10.8 0.2 -0.5
v -10.8 0.2 -0.7
v -10.8 0.2 -1.3
v -10.8 0.2 -1.5
v -10.8 0.2 -2.1
v -10.8 0.2 -2.3
v -10.8 0.2 -2.9
v -10.8 0.2 -3.1
v -10.8 0.2 -3.7
v -10.8 0.2 -3.9
v -10.8 0.2 -4.5
v -10 0.1 -3.1
v -10 0.1 -3.7
v -10 0.2 -3.1
v -10 0.2 -3.7
v -9.9 0.1 0.9
v -9.9 0.1 0.3
v -9.9 0.1 -0.7
v -9.9 0.1 -1.3
v -9.9 0.2 0.9
v -9.9 0.2 0.3
v -9.9 0.2 -0.7
v -9.9 0.2 -1.3
v -9.7 0.1 -2.3
v -9.7 0.1 -2.9
v -9.7 0.2 -2.3
v -9.7 0.2 -2.9
v -9.6 0.1 -3.9
v -9.6 0.1 -4.5
v -9.6 0.2 -3.9
v -9.6 0.2 -4.5
v -9.5 0.1 0.1
v -9.5 0.1 -0.5
v -9.5 0.2 0.1
v -9.5 0.2 -0.5
v -9.4 0.1 -1.5
v -9.4 0.1 -2.1
v -9.4 0.2 -1.5
v -9.4 0.2 -2.1
v -8.8 0.1 0.9
v -8.8 0.1 0.3
v -8.8 0.1 -3.1
v -8.8 0.1 -3.7
v -8.8 0.2 0.9
v -8.8 0.2 0.3
v -8.8 0.2 -3.1
v -8.8 0.2 -3.7
v -8.6 0.1 -1.5
v -8.6 0.1 -2.1
v -8.6 0.2 -1.5
v -8.6 0.2 -2.1
v -8.2 0.1 0.1
v -8.2 0.1 -0.5
v -8.2 0.1 -2.3
v -8.2 0.1 -2.9
v -8.2 0.2 0.1
v -8.2 0.2 -0.5
v -8.2 0.2 -2.3
v -8.2 0.2 -2.9
v -7.9 0.1 -0.7
v -7.9 0.1 -1.3
v -7.9 0.2 -0.7
v -7.9 0.2 -1.3
v -7.8 0.1 0.9
v -7.8 0.1 0.3
v -7.8 0.1 -3.9
v -7.8 0.1 -4.5
v -7.8 0.2 0.9
v -7.8 0.2 0.3
v -7.8 0.2 -3.9
v -7.8 0.2 -4.5
v -7.2 0.1 -3.1
v -7.2 0.1 -3.7
v -7.2 0.2 -3.1
v -7.2 0.2 -3.7
v -7 0.1 -1.5
v -7 0.1 -2.1
v -7 0.1 -2.3
v -7 0.1 -2.9
v -7 0.2 -1.5
v -7 0.2 -2.1
v -7 0.2 -2.3
v -7 0.2 -2.9
v -6.9 0.1 -3.9
v -6.9 0.1 -4.5
v -6.9 0.2 -3.9
v -6.9 0.2 -4.5
v -6.7 0.1 0.1
v -6.7 0.1 -0.5
v -6.7 0.2 0.1
v -6.7 0.2 -0.5
v -6.6 0.1 -0.7
v -6.6 0.1 -1.3
v -6.6 0.2 -0.7
v -6.6 0.2 -1.3
v -6.5 0.1 -3.1
v -6.5 0.1 -3.7
v -6.5 0.2 -3.1
v -6.5 0.2 -3.7
v -6.2 0.1 0.9
v -6.2 0.1 0.3
v -6.2 0.1 -1.5
v -6.2 0.1 -2.1
v -6.2 0.2 0.9
v -6.2 0.2 0.3
v -6.2 0.2 -1.5
v -6.2 0.2 -2.1
v -10.2 0.1 -3.1
v -10.2 0.1 -3.7
v -10.2 0.2 -3.1
v -10.2 0.2 -3.7
v -10.1 0.1 0.9
v -10.1 0.1 0.3
v -10.1 0.1 -0.7
v -10.1 0.1 -1.3
v -10.1 0.2 0.9
v -10.1 0.2 0.3
v -10.1 0.2 -0.7
v -10.1 0.2 -1.3
v -9.9 0.1 -2.3
v -9.9 0.1 -2.9
v -9.9 0.2 -2.3
v -9.9 0.2 -2.9
v -9.8 0.1 -3.9
v -9.8 0.1 -4.5
v -9.8 0.2 -3.9
v -9.8 0.2 -4.5
v -9.7 0.1 0.1
v -9.7 0.1 -0.5
v -9.7 0.2 0.1
v -9.7 0.2 -0.5
v -9.6 0.1 -1.5
v -9.6 0.1 -2.1
v -9.6 0.2 -1.5
v -9.6 0.2 -2.1
v -9 0.1 0.9
v -9 0.1 0.3
v -9 0.1 -3.1
v -9 0.1 -3.7
v -9 0.2 0.9
v -9 0.2 0.3
v -9 0.2 -3.1
v -9 0.2 -3.7
v -8.8 0.1 -1.5
v -8.8 0.1 -2.1
v -8.8 0.2 -1.5
v -8.8 0.2 -2.1
v -8.4 0.1 0.1
v -8.4 0.1 -0.5
v -8.4 0.1 -2.3
v -8.4 0.1 -2.9
v -8.4 0.2 0.1
v -8.4 0.2 -0.5
v -8.4 0.2 -2.3
v -8.4 0.2 -2.9
v -8.1 0.1 -0.7
v -8.1 0.1 -1.3
v -8.1 0.2 -0.7
v -8.1 0.2 -1.3
v -8 0.1 0.9
v -8 0.1 0.3
v -8 0.1 -3.9
v -8 0.1 -4.5
v -8 0.2 0.9
v -8 0.2 0.3
v -8 0.2 -3.9
v -8 0.2 -4.5
v -7.4 0.1 -3.1
v -7.4 0.1 -3.7
v -7.4 0.2 -3.1
v -7.4 0.2 -3.7
v -7.2 0.1 -1.5
v -7.2 0.1 -2.1
v -7.2 0.1 -2.3
v -7.2 0.1 -2.9
v -7.2 0.2 -1.5
v -7.2 0.2 -2.1
v -7.2 0.2 -2.3
v -7.2 0.2 -2.9
v -7.1 0.1 -3.9
v -7.1 0.1 -4.5
v -7.1 0.2 -3.9
v -7.1 0.2 -4.5
v -6.9 0.1 0.1
v -6.9 0.1 -0.5
v -6.9 0.2 0.1
v -6.9 0.2 -0.5
v -6.8 0.1 -0.7
v -6.8 0.1 -1.3
v -6.8 0.2 -0.7
v -6.8 0.2 -1.3
v -6.7 0.1 -3.1
v -6.7 0.1 -3.7
v -6.7 0.2 -3.1
v -6.7 0.2 -3.7
v -6.4 0.1 0.9
v -6.4 0.1 0.3
v -6.4 0.1 -1.5
v -6.4 0.1 -2.1
v -6.4 0.2 0.9
v -6.4 0.2 0.3
v -6.4 0.2 -1.5
v -6.4 0.2 -2.1
v -5.8 0 0.9
v -5.8 0 -4.5
v -5.8 0.1 0.9
v -5.8 0.1 0.3
v -5.8 0.1 0.1
v -5.8 0.1 -0.5
v -5.8 0.1 -0.7
v -5.8 0.1 -1.3
v -5.8 0.1 -1.5
v -5.8 0.1 -2.1
v -5.8 0.1 -2.3
v -5.8 0.1 -2.9
v -5.8 0.1 -3.1
v -5.8 0.1 -3.7
v -5.8 0.1 -3.9
v -5.8 0.1 -4.5
v -5.8 0.2 0.9
v -5.8 0.2 0.3
v -5.8 0.2 0.1
v -5.8 0.2 -0.5
v -5.8 0.2 -0.7
v -5.8 0.2 -1.3
v -5.8 0.2 -1.5
v -5.8 0.2 -2.1
v -5.8 0.2 -2.3
v -5.8 0.2 -2.9
v -5.8 0.2 -3.1
v -5.8 0.2 -3.7
v -5.8 0.2 -3.9
v -5.8 0.2 -4.5
v -10.8 0 0.9
v -10.8 0.1 0.9
v -10.8 0.2 0.9
v -10.1 0.1 0.9
v -10.1 0.2 0.9
v -9.9 0.1 0.9
v -9.9 0.2 0.9
v -9 0.1 0.9
v -9 0.2 0.9
v -8.8 0.1 0.9
v -8.8 0.2 0.9
v -8 0.1 0.9
v -8 0.2 0.9
v -7.8 0.1 0.9
v -7.8 0.2 0.9
v -6.4 0.1 0.9
v -6.4 0.2 0.9
v -6.2 0.1 0.9
v -6.2 0.2 0.9
v -5.8 0 0.9
v -5.8 0.1 0.9
v -5.8 0.2 0.9
v -10.8 0.1 0.1
v -10.8 0.2 0.1
v -9.7 0.1 0.1
v -9.7 0.2 0.1
v -9.5 0.1 0.1
v -9.5 0.2 0.1
v -8.4 0.1 0.1
v -8.4 0.2 0.1
v -8.2 0.1 0.1
v -8.2 0.2 0.1
v -6.9 0.1 0.1
v -6.9 0.2 0.1
v -6.7 0.1 0.1
v -6.7 0.2 0.1
v -5.8 0.1 0.1
v -5.8 0.2 0.1
v -10.8 0.1 -0.7
v -10.8 0.2 -0.7
v -10.1 0.1 -0.7
v -10.1 0.2 -0.7
v -9.9 0.1 -0.7
v -9.9 0.2 -0.7
v -8.1 0.1 -0.7
v -8.1 0.2 -0.7
v -7.9 0.1 -0.7
v -7.9 0.2 -0.7
v -6.8 0.1 -0.7
v -6.8 0.2 -0.7
v -6.6 0.1 -0.7
v -6.6 0.2 -0.7
v -5.8 0.1 -0.7
v -5.8 0.2 -0.7
v -10.8 0.1 -1.5
v -10.8 0.2 -1.5
v -9.6 0.1 -1.5
v -9.6 0.2 -1.5
v -9.4 0.1 -1.5
v -9.4 0.2 -1.5
v -8.8 0.1 -1.5
v -8.8 0.2 -1.5
v -8.6 0.1 -1.5
v -8.6 0.2 -1.5
v -7.2 0.1 -1.5
v -7.2 0.2 -1.5
v -7 0.1 -1.5
v -7 0.2 -1.5
v -6.4 0.1 -1.5
v -6.4 0.2 -1.5
v -6.2 0.1 -1.5
v -6.2 0.2 -1.5
v -5.8 0.1 -1.5
v -5.8 0.2 -1.5
v -10.8 0.1 -2.3
v -10.8 0.2 -2.3
v -9.9 0.1 -2.3
v -9.9 0.2 -2.3
v -9.7 0.1 -2.3
v -9.7 0.2 -2.3
v -8.4 0.1 -2.3
v -8.4 0.2 -2.3
v -8.2 0.1 -2.3
v -8.2 0.2 -2.3
v -7.2 0.1 -2.3
v -7.2 0.2 -2.3
v -7 0.1 -2.3
v -7 0.2 -2.3
v -5.8 0.1 -2.3
v -5.8 0.2 -2.3
v -10.8 0.1 -3.1
v -10.8 0.2 -3.1
v -10.2 0.1 -3.1
v -10.2 0.2 -3.1
v -10 0.1 -3.1
v -10 0.2 -3.1
v -9 0.1 -3.1
v -9 0.2 -3.1
v -8.8 0.1 -3.1
v -8.8 0.2 -3.1
v -7.4 0.1 -3.1
v -7.4 0.2 -3.1
v -7.2 0.1 -3.1
v -7.2 0.2 -3.1
v -6.7 0.1 -3.1
v -6.7 0.2 -3.1
v -6.5 0.1 -3.1
v -6.5 0.2 -3.1
v -5.8 0.1 -3.1
v -5.8 0.2 -3.1
v -10.8 0.1 -3.9
v -10.8 0.2 -3.9
v -9.8 0.1 -3.9
v -9.8 0.2 -3.9
v -9.6 0.1 -3.9
v -9.6 0.2 -3.9
v -8 0.1 -3.9
v -8 0.2 -3.9
v -7.8 0.1 -3.9
v -7.8 0.2 -3.9
v -7.1 0.1 -3.9
v -7.1 0.2 -3.9
v -6.9 0.1 -3.9
v -6.9 0.2 -3.9
v -5.8 0.1 -3.9
v -5.8 0.2 -3.9
v -10.8 0.1 0.3
v -10.8 0.2 0.3
v -10.1 0.1 0.3
v -10.1 0.2 0.3
v -9.9 0.1 0.3
v -9.9 0.2 0.3
v -9 0.1 0.3
v -9 0.2 0.3
v -8.8 0.1 0.3
v -8.8 0.2 0.3
v -8 0.1 0.3
v -8 0.2 0.3
v -7.8 0.1 0.3
v -7.8 0.2 0.3
v -6.4 0.1 0.3
v -6.4 0.2 0.3
v -6.2 0.1 0.3
v -6.2 0.2 0.3
v -5.8 0.1 0.3
v -5.8 0.2 0.3
v -10.8 0.1 -0.5
v -10.8 0.2 -0.5
v -9.7 0.1 -0.5
v -9.7 0.2 -0.5
v -9.5 0.1 -0.5
v -9.5 0.2 -0.5
v -8.4 0.1 -0.5
v -8.4 0.2 -0.5
v -8.2 0.1 -0.5
v -8.2 0.2 -0.5
v -6.9 0.1 -0.5
v -6.9 0.2 -0.5
v -6.7 0.1 -0.5
v -6.7 0.2 -0.5
v -5.8 0.1 -0.5
v -5.8 0.2 -0.5
v -10.8 0.1 -1.3
v -10.8 0.2 -1.3
v -10.1 0.1 -1.3
v -10.1 0.2 -1.3
v -9.9 0.1 -1.3
v -9.9 0.2 -1.3
v -8.1 0.1 -1.3
v -8.1 0.2 -1.3
v -7.9 0.1 -1.3
v -7.9 0.2 -1.3
v -6.8 0.1 -1.3
v -6.8 0.2 -1.3
v -6.6 0.1 -1.3
v -6.6 0.2 -1.3
v -5.8 0.1 -1.3
v -5.8 0.2 -1.3
v -10.8 0.1 -2.1
v -10.8 0.2 -2.1
v -9.6 0.1 -2.1
v -9.6 0.2 -2.1
v -9.4 0.1 -2.1
v -9.4 0.2 -2.1
v -8.8 0.1 -2.1
v -8.8 0.2 -2.1
v -8.6 0.1 -2.1
v -8.6 0.2 -2.1
v -7.2 0.1 -2.1
v -7.2 0.2 -2.1
v -7 0.1 -2.1
v -7 0.2 -2.1
v -6.4 0.1 -2.1
v -6.4 0.2 -2.1
v -6.2 0.1 -2.1
v -6.2 0.2 -2.1
v -5.8 0.1 -2.1
v -5.8 0.2 -2.1
v -10.8 0.1 -2.9
v -10.8 0.2 -2.9
v -9.9 0.1 -2.9
v -9.9 0.2 -2.9
v -9.7 0.1 -2.9
v -9.7 0.2 -2.9
v -8.4 0.1 -2.9
v -8.4 0.2 -2.9
v -8.2 0.1 -2.9
v -8.2 0.2 -2.9
v -7.2 0.1 -2.9
v -7.2 0.2 -2.9
v -7 0.1 -2.9
v -7 0.2 -2.9
v -5.8 0.1 -2.9
v -5.8 0.2 -2.9
v -10.8 0.1 -3.7
v -10.8 0.2 -3.7
v -10.2 0.1 -3.7
v -10.2 0.2 -3.7
v -10 0.1 -3.7
v -10 0.2 -3.7
v -9 0.1 -3.7
v -9 0.2 -3.7
v -8.8 0.1 -3.7
v -8.8 0.2 -3.7
v -7.4 0.1 -3.7
v -7.4 0.2 -3.7
v -7.2 0.1 -3.7
v -7.2 0.2 -3.7
v -6.7 0.1 -3.7
v -6.7 0.2 -3.7
v -6.5 0.1 -3.7
v -6.5 0.2 -3.7
v -5.8 0.1 -3.7
v -5.8 0.2 -3.7
v -10.8 0 -4.5
v -10.8 0.1 -4.5
v -10.8 0.2 -4.5
v -9.8 0.1 -4.5
v -9.8 0.2 -4.5
v -9.6 0.1 -4.5
v -9.6 0.2 -4.5
v -8 0.1 -4.5
v -8 0.2 -4.5
v -7.8 0.1 -4.5
v -7.8 0.2 -4.5
v -7.1 0.1 -4.5
v -7.1 0.2 -4.5
v -6.9 0.1 -4.5
v -6.9 0.2 -4.5
v -5.8 0 -4.5
v -5.8 0.1 -4.5
v -5.8 0.2 -4.5
v -10.8 0 0.9
v -5.8 0 0.9
v -10.8 0 -4.5
v -5.8 0 -4.5
v -10.1 0.1 0.9
v -9.9 0.1 0.9
v -9 0.1 0.9
v -8.8 0.1 0.9
v -8 0.1 0.9
v -7.8 0.1 0.9
v -6.4 0.1 0.9
v -6.2 0.1 0.9
v -10.8 0.1 0.3
v -10.1 0.1 0.3
v -9.9 0.1 0.3
v -9 0.1 0.3
v -8.8 0.1 0.3
v -8 0.1 0.3
v -7.8 0.1 0.3
v -6.4 0.1 0.3
v -6.2 0.1 0.3
v -5.8 0.1 0.3
v -10.8 0.1 0.1
v -9.7 0.1 0.1
v -9.5 0.1 0.1
v -8.4 0.1 0.1
v -8.2 0.1 0.1
v -6.9 0.1 0.1
v -6.7 0.1 0.1
v -5.8 0.1 0.1
v -10.8 0.1 -0.5
v -9.7 0.1 -0.5
v -9.5 0.1 -0.5
v -8.4 0.1 -0.5
v -8.2 0.1 -0.5
v -6.9 0.1 -0.5
v -6.7 0.1 -0.5
v -5.8 0.1 -0.5
v -10.8 0.1 -0.7
v -10.1 0.1 -0.7
v -9.9 0.1 -0.7
v -8.1 0.1 -0.7
v -7.9 0.1 -0.7
v -6.8 0.1 -0.7
v -6.6 0.1 -0.7
v -5.8 0.1 -0.7
v -10.8 0.1 -1.3
v -10.1 0.1 -1.3
v -9.9 0.1 -1.3
v -8.1 0.1 -1.3
v -7.9 0.1 -1.3
v -6.8 0.1 -1.3
v -6.6 0.1 -1.3
v -5.8 0.1 -1.3
v -10.8 0.1 -1.5
v -9.6 0.1 -1.5
v -9.4 0.1 -1.5
v -8.8 0.1 -1.5
v -8.6 0.1 -1.5
v -7.2 0.1 -1.5
v -7 0.1 -1.5
v -6.4 0.1 -1.5
v -6.2 0.1 -1.5
v -5.8 0.1 -1.5
v -10.8 0.1 -2.1
v -9.6 0.1 -2.1
v -9.4 0.1 -2.1
v -8.8 0.1 -2.1
v -8.6 0.1 -2.1
v -7.2 0.1 -2.1
v -7 0.1 -2.1
v -6.4 0.1 -2.1
v -6.2 0.1 -2.1
v -5.8 0.1 -2.1
v -10.8 0.1 -2.3
v -9.9 0.1 -2.3
v -9.7 0.1 -2.3
v -8.4 0.1 -2.3
v -8.2 0.1 -2.3
v -7.2 0.1 -2.3
v -7 0.1 -2.3
v -5.8 0.1 -2.3
v -10.8 0.1 -2.9
v -9.9 0.1 -2.9
v -9.7 0.1 -2.9
v -8.4 0.1 -2.9
v -8.2 0.1 -2.9
v -7.2 0.1 -2.9
v -7 0.1 -2.9
v -5.8 0.1 -2.9
v -10.8 0.1 -3.1
v -10.2 0.1 -3.1
v -10 0.1 -3.1
v -9 0.1 -3.1
v -8.8 0.1 -3.1
v -7.4 0.1 -3.1
v -7.2 0.1 -3.1
v -6.7 0.1 -3.1
v -6.5 0.1 -3.1
v -5.8 0.1 -3.1
v -10.8 0.1 -3.7
v -10.2 0.1 -3.7
v -10 0.1 -3.7
v -9 0.1 -3.7
v -8.8 0.1 -3.7
v -7.4 0.1 -3.7
v -7.2 0.1 -3.7
v -6.7 0.1 -3.7
v -6.5 0.1 -3.7
v -5.8 0.1 -3.7
v -10.8 0.1 -3.9
v -9.8 0.1 -3.9
v -9.6 0.1 -3.9
v -8 0.1 -3.9
v -7.8 0.1 -3.9
v -7.1 0.1 -3.9
v -6.9 0.1 -3.9
v -5.8 0.1 -3.9
v -9.8 0.1 -4.5
v -9.6 0.1 -4.5
v -8 0.1 -4.5
v -7.8 0.1 -4.5
v -7.1 0.1 -4.5
v -6.9 0.1 -4.5
v -10.8 0.2 0.9
v -10.1 0.2 0.9
v -9.9 0.2 0.9
v -9 0.2 0.9
v -8.8 0.2 0.9
v -8 0.2 0.9
v -7.8 0.2 0.9
v -6.4 0.2 0.9
v -6.2 0.2 0.9
v -5.8 0.2 0.9
v -10.8 0.2 0.3
v -10.1 0.2 0.3
v -9.9 0.2 0.3
v -9 0.2 0.3
v -8.8 0.2 0.3
v -8 0.2 0.3
v -7.8 0.2 0.3
v -6.4 0.2 0.3
v -6.2 0.2 0.3
v -5.8 0.2 0.3
v -10.8 0.2 0.1
v -9.7 0.2 0.1
v -9.5 0.2 0.1
v -8.4 0.2 0.1
v -8.2 0.2 0.1
v -6.9 0.2 0.1
v -6.7 0.2 0.1
v -5.8 0.2 0.1
v -10.8 0.2 -0.5
v -9.7 0.2 -0.5
v -9.5 0.2 -0.5
v -8.4 0.2 -0.5
v -8.2 0.2 -0.5
v -6.9 0.2 -0.5
v -6.7 0.2 -0.5
v -5.8 0.2 -0.5
v -10.8 0.2 -0.7
v -10.1 0.2 -0.7
v -9.9 0.2 -0.7
v -8.1 0.2 -0.7
v -7.9 0.2 -0.7
v -6.8 0.2 -0.7
v -6.6 0.2 -0.7
v -5.8 0.2 -0.7
v -10.8 0.2 -1.3
v -10.1 0.2 -1.3
v -9.9 0.2 -1.3
v -8.1 0.2 -1.3
v -7.9 0.2 -1.3
v -6.8 0.2 -1.3
v -6.6 0.2 -1.3
v -5.8 0.2 -1.3
v -10.8 0.2 -1.5
v -9.6 0.2 -1.5
v -9.4 0.2 -1.5
v -8.8 0.2 -1.5
v -8.6 0.2 -1.5
v -7.2 0.2 -1.5
v -7 0.2 -1.5
v -6.4 0.2 -1.5
v -6.2 0.2 -1.5
v -5.8 0.2 -1.5
v -10.8 0.2 -2.1
v -9.6 0.2 -2.1
v -9.4 0.2 -2.1
v -8.8 0.2 -2.1
v -8.6 0.2 -2.1
v -7.2 0.2 -2.1
v -7 0.2 -2.1
v -6.4 0.2 -2.1
v -6.2 0.2 -2.1
v -5.8 0.2 -2.1
v -10.8 0.2 -2.3
v -9.9 0.2 -2.3
v -9.7 0.2 -2.3
v -8.4 0.2 -2.3
v -8.2 0.2 -2.3
v -7.2 0.2 -2.3
v -7 0.2 -2.3
v -5.8 0.2 -2.3
v -10.8 0.2 -2.9
v -9.9 0.2 -2.9
v -9.7 0.2 -2.9
v -8.4 0.2 -2.9
v -8.2 0.2 -2.9
v -7.2 0.2 -2.9
v -7 0.2 -2.9
v -5.8 0.2 -2.9
v -10.8 0.2 -3.1
v -10.2 0.2 -3.1
v -10 0.2 -3.1
v -9 0.2 -3.1
v -8.8 0.2 -3.1
v -7.4 0.2 -3.1
v -7.2 0.2 -3.1
v -6.7 0.2 -3.1
v -6.5 0.2 -3.1
v -5.8 0.2 -3.1
v -10.8 0.2 -3.7
v -10.2 0.2 -3.7
v -10 0.2 -3.7
v -9 0.2 -3.7
v -8.8 0.2 -3.7
v -7.4 0.2 -3.7
v -7.2 0.2 -3.7
v -6.7 0.2 -3.7
v -6.5 0.2 -3.7
v -5.8 0.2 -3.7
v -10.8 0.2 -3.9
v -9.8 0.2 -3.9
v -9.6 0.2 -3.9
v -8 0.2 -3.9
v -7.8 0.2 -3.9
v -7.1 0.2 -3.9
v -6.9 0.2 -3.9
v -5.8 0.2 -3.9
v -10.8 0.2 -4.5
v -9.8 0.2 -4.5
v -9.6 0.2 -4.5
v -8 0.2 -4.5
v -7.8 0.2 -4.5
v -7.1 0.2 -4.5
v -6.9 0.2 -4.5
v -5.8 0.2 -4.5

# faces
f 3/1/1 2/1/1 1/1/1
f 4/1/1 2/1/1 3/1/1
f 5/1/1 2/1/1 4/1/1
f 6/1/1 2/1/1 5/1/1
f 7/1/1 2/1/1 6/1/1
f 8/1/1 2/1/1 7/1/1
f 9/1/1 2/1/1 8/1/1
f 10/1/1 2/1/1 9/1/1
f 11/1/1 2/1/1 10/1/1
f 12/1/1 2/1/1 11/1/1
f 13/1/1 2/1/1 12/1/1
f 14/1/1 2/1/1 13/1/1
f 15/1/1 2/1/1 14/1/1
f 16/1/1 2/1/1 15/1/1
f 17/2/1 4/2/1 3/2/1
f 18/2/1 4/2/1 17/2/1
f 19/2/1 6/2/1 5/2/1
f 20/2/1 6/2/1 19/2/1
f 21/2/1 8/2/1 7/2/1
f 22/2/1 8/2/1 21/2/1
f 23/2/1 10/2/1 9/2/1
f 24/2/1 10/2/1 23/2/1
f 25/2/1 12/2/1 11/2/1
f 26/2/1 12/2/1 25/2/1
f 27/2/1 14/2/1 13/2/1
f 28/2/1 14/2/1 27/2/1
f 29/2/1 16/2/1 15/2/1
f 30/2/1 16/2/1 29/2/1
f 33/2/1 32/2/1 31/2/1
f 34/2/1 32/2/1 33/2/1
f 39/2/1 36/2/1 35/2/1
f 40/2/1 36/2/1 39/2/1
f 41/2/1 38/2/1 37/2/1
f 42/2/1 38/2/1 41/2/1
f 45/2/1 44/2/1 43/2/1
f 46/2/1 44/2/1 45/2/1
f 49/2/1 48/2/1 47/2/1
f 50/2/1 48/2/1 49/2/1
f 53/2/1 52/2/1 51/2/1
f 54/2/1 52/2/1 53/2/1
f 57/2/1 56/2/1 55/2/1
f 58/2/1 56/2/1 57/2/1
f 63/2/1 60/2/1 59/2/1
f 64/2/1 60/2/1 63/2/1
f 65/2/1 62/2/1 61/2/1
f 66/2/1 62/2/1 65/2/1
f 69/2/1 68/2/1 67/2/1
f 70/2/1 68/2/1 69/2/1
f 75/2/1 72/2/1 71/2/1
f 76/2/1 72/2/1 75/2/1
f 77/2/1 74/2/1 73/2/1
f 78/2/1 74/2/1 77/2/1
f 81/2/1 80/2/1 79/2/1
f 82/2/1 80/2/1 81/2/1
f 87/2/1 84/2/1 83/2/1
f 88/2/1 84/2/1 87/2/1
f 89/2/1 86/2/1 85/2/1
f 90/2/1 86/2/1 89/2/1
f 93/2/1 92/2/1 91/2/1
f 94/2/1 92/2/1 93/2/1
f 99/2/1 96/2/1 95/2/1
f 100/2/1 96/2/1 99/2/1
f 101/2/1 98/2/1 97/2/1
f 102/2/1 98/2/1 101/2/1
f 105/2/1 104/2/1 103/2/1
f 106/2/1 104/2/1 105/2/1
f 109/2/1 108/2/1 107/2/1
f 110/2/1 108/2/1 109/2/1
f 113/2/1 112/2/1 111/2/1
f 114/2/1 112/2/1 113/2/1
f 117/2/1 116/2/1 115/2/1
f 118/2/1 116/2/1 117/2/1
f 123/2/1 120/2/1 119/2/1
f 124/2/1 120/2/1 123/2/1
f 125/2/1 122/2/1 121/2/1
f 126/2/1 122/2/1 125/2/1
f 127/2/2 128/2/2 129/2/2
f 129/2/2 128/2/2 130/2/2
f 131/2/2 132/2/2 135/2/2
f 135/2/2 132/2/2 136/2/2
f 133/2/2 134/2/2 137/2/2
f 137/2/2 134/2/2 138/2/2
f 139/2/2 140/2/2 141/2/2
f 141/2/2 140/2/2 142/2/2
f 143/2/2 144/2/2 145/2/2
f 145/2/2 144/2/2 146/2/2
f 147/2/2 148/2/2 149/2/2
f 149/2/2 148/2/2 150/2/2
f 151/2/2 152/2/2 153/2/2
f 153/2/2 152/2/2 154/2/2
f 155/2/2 156/2/2 159/2/2
f 159/2/2 156/2/2 160/2/2
f 157/2/2 158/2/2 161/2/2
f 161/2/2 158/2/2 162/2/2
f 163/2/2 164/2/2 165/2/2
f 165/2/2 164/2/2 166/2/2
f 167/2/2 168/2/2 171/2/2
f 171/2/2 168/2/2 172/2/2
f 169/2/2 170/2/2 173/2/2
f 173/2/2 170/2/2 174/2/2
f 175/2/2 176/2/2 177/2/2
f 177/2/2 176/2/2 178/2/2
f 179/2/2 180/2/2 183/2/2
f 183/2/2 180/2/2 184/2/2
f 181/2/2 182/2/2 185/2/2
f 185/2/2 182/2/2 186/2/2
f 187/2/2 188/2/2 189/2/2
f 189/2/2 188/2/2 190/2/2
f 191/2/2 192/2/2 195/2/2
f 195/2/2 192/2/2 196/2/2
f 193/2/2 194/2/2 197/2/2
f 197/2/2 194/2/2 198/2/2
f 199/2/2 200/2/2 201/2/2
f 201/2/2 200/2/2 202/2/2
f 203/2/2 204/2/2 205/2/2
f 205/2/2 204/2/2 206/2/2
f 207/2/2 208/2/2 209/2/2
f 209/2/2 208/2/2 210/2/2
f 211/2/2 212/2/2 213/2/2
f 213/2/2 212/2/2 214/2/2
f 215/2/2 216/2/2 219/2/2
f 219/2/2 216/2/2 220/2/2
f 217/2/2 218/2/2 221/2/2
f 221/2/2 218/2/2 222/2/2
f 223/1/2 224/1/2 225/1/2
f 225/1/2 224/1/2 226/1/2
f 226/1/2 224/1/2 227/1/2
f 227/1/2 224/1/2 228/1/2
f 228/1/2 224/1/2 229/1/2
f 229/1/2 224/1/2 230/1/2
f 230/1/2 224/1/2 231/1/2
f 231/1/2 224/1/2 232/1/2
f 232/1/2 224/1/2 233/1/2
f 233/1/2 224/1/2 234/1/2
f 234/1/2 224/1/2 235/1/2
f 235/1/2 224/1/2 236/1/2
f 236/1/2 224/1/2 237/1/2
f 237/1/2 224/1/2 238/1/2
f 225/2/2 226/2/2 239/2/2
f 239/2/2 226/2/2 240/2/2
f 227/2/2 228/2/2 241/2/2
f 241/2/2 228/2/2 242/2/2
f 229/2/2 230/2/2 243/2/2
f 243/2/2 230/2/2 244/2/2
f 231/2/2 232/2/2 245/2/2
f 245/2/2 232/2/2 246/2/2
f 233/2/2 234/2/2 247/2/2
f 247/2/2 234/2/2 248/2/2
f 235/2/2 236/2/2 249/2/2
f 249/2/2 236/2/2 250/2/2
f 237/2/2 238/2/2 251/2/2
f 251/2/2 238/2/2 252/2/2
f 256/1/3 254/1/3 253/1/3
f 256/2/3 255/2/3 254/2/3
f 257/2/3 255/2/3 256/2/3
f 258/1/3 256/1/3 253/1/3
f 260/1/3 258/1/3 253/1/3
f 260/2/3 259/2/3 258/2/3
f 261/2/3 259/2/3 260/2/3
f 262/1/3 260/1/3 253/1/3
f 264/1/3 262/1/3 253/1/3
f 264/2/3 263/2/3 262/2/3
f 265/2/3 263/2/3 264/2/3
f 266/1/3 264/1/3 253/1/3
f 268/1/3 266/1/3 253/1/3
f 268/2/3 267/2/3 266/2/3
f 269/2/3 267/2/3 268/2/3
f 270/1/3 268/1/3 253/1/3
f 272/1/3 270/1/3 253/1/3
f 273/2/3 271/2/3 270/2/3
f 273/1/3 270/1/3 272/1/3
f 274/2/3 271/2/3 273/2/3
f 277/2/3 276/2/3 275/2/3
f 278/2/3 276/2/3 277/2/3
f 281/2/3 280/2/3 279/2/3
f 282/2/3 280/2/3 281/2/3
f 285/2/3 284/2/3 283/2/3
f 286/2/3 284/2/3 285/2/3
f 289/2/3 288/2/3 287/2/3
f 290/2/3 288/2/3 289/2/3
f 293/2/3 292/2/3 291/2/3
f 294/2/3 292/2/3 293/2/3
f 297/2/3 296/2/3 295/2/3
f 298/2/3 296/2/3 297/2/3
f 301/2/3 300/2/3 299/2/3
f 302/2/3 300/2/3 301/2/3
f 305/2/3 304/2/3 303/2/3
f 306/2/3 304/2/3 305/2/3
f 309/2/3 308/2/3 307/2/3
f 310/2/3 308/2/3 309/2/3
f 313/2/3 312/2/3 311/2/3
f 314/2/3 312/2/3 313/2/3
f 317/2/3 316/2/3 315/2/3
f 318/2/3 316/2/3 317/2/3
f 321/2/3 320/2/3 319/2/3
f 322/2/3 320/2/3 321/2/3
f 325/2/3 324/2/3 323/2/3
f 326/2/3 324/2/3 325/2/3
f 329/2/3 328/2/3 327/2/3
f 330/2/3 328/2/3 329/2/3
f 333/2/3 332/2/3 331/2/3
f 334/2/3 332/2/3 333/2/3
f 337/2/3 336/2/3 335/2/3
f 338/2/3 336/2/3 337/2/3
f 341/2/3 340/2/3 339/2/3
f 342/2/3 340/2/3 341/2/3
f 345/2/3 344/2/3 343/2/3
f 346/2/3 344/2/3 345/2/3
f 349/2/3 348/2/3 347/2/3
f 350/2/3 348/2/3 349/2/3
f 353/2/3 352/2/3 351/2/3
f 354/2/3 352/2/3 353/2/3
f 357/2/3 356/2/3 355/2/3
f 358/2/3 356/2/3 357/2/3
f 361/2/3 360/2/3 359/2/3
f 362/2/3 360/2/3 361/2/3
f 365/2/3 364/2/3 363/2/3
f 366/2/3 364/2/3 365/2/3
f 369/2/3 368/2/3 367/2/3
f 370/2/3 368/2/3 369/2/3
f 373/2/3 372/2/3 371/2/3
f 374/2/3 372/2/3 373/2/3
f 377/2/3 376/2/3 375/2/3
f 378/2/3 376/2/3 377/2/3
f 379/2/4 380/2/4 381/2/4
f 381/2/4 380/2/4 382/2/4
f 383/2/4 384/2/4 385/2/4
f 385/2/4 384/2/4 386/2/4
f 387/2/4 388/2/4 389/2/4
f 389/2/4 388/2/4 390/2/4
f 391/2/4 392/2/4 393/2/4
f 393/2/4 392/2/4 394/2/4
f 395/2/4 396/2/4 397/2/4
f 397/2/4 396/2/4 398/2/4
f 399/2/4 400/2/4 401/2/4
f 401/2/4 400/2/4 402/2/4
f 403/2/4 404/2/4 405/2/4
f 405/2/4 404/2/4 406/2/4
f 407/2/4 408/2/4 409/2/4
f 409/2/4 408/2/4 410/2/4
f 411/2/4 412/2/4 413/2/4
f 413/2/4 412/2/4 414/2/4
f 415/2/4 416/2/4 417/2/4
f 417/2/4 416/2/4 418/2/4
f 419/2/4 420/2/4 421/2/4
f 421/2/4 420/2/4 422/2/4
f 423/2/4 424/2/4 425/2/4
f 425/2/4 424/2/4 426/2/4
f 427/2/4 428/2/4 429/2/4
f 429/2/4 428/2/4 430/2/4
f 431/2/4 432/2/4 433/2/4
f 433/2/4 432/2/4 434/2/4
f 435/2/4 436/2/4 437/2/4
f 437/2/4 436/2/4 438/2/4
f 439/2/4 440/2/4 441/2/4
f 441/2/4 440/2/4 442/2/4
f 443/2/4 444/2/4 445/2/4
f 445/2/4 444/2/4 446/2/4
f 447/2/4 448/2/4 449/2/4
f 449/2/4 448/2/4 450/2/4
f 451/2/4 452/2/4 453/2/4
f 453/2/4 452/2/4 454/2/4
f 455/2/4 456/2/4 457/2/4
f 457/2/4 456/2/4 458/2/4
f 459/2/4 460/2/4 461/2/4
f 461/2/4 460/2/4 462/2/4
f 463/2/4 464/2/4 465/2/4
f 465/2/4 464/2/4 466/2/4
f 467/2/4 468/2/4 469/2/4
f 469/2/4 468/2/4 470/2/4
f 471/2/4 472/2/4 473/2/4
f 473/2/4 472/2/4 474/2/4
f 475/2/4 476/2/4 477/2/4
f 477/2/4 476/2/4 478/2/4
f 479/2/4 480/2/4 481/2/4
f 481/2/4 480/2/4 482/2/4
f 483/2/4 484/2/4 485/2/4
f 485/2/4 484/2/4 486/2/4
f 487/1/4 488/1/4 490/1/4
f 488/2/4 489/2/4 490/2/4
f 490/2/4 489/2/4 491/2/4
f 487/1/4 490/1/4 492/1/4
f 487/1/4 492/1/4 494/1/4
f 492/2/4 493/2/4 494/2/4
f 494/2/4 493/2/4 495/2/4
f 487/1/4 494/1/4 496/1/4
f 487/1/4 496/1/4 498/1/4
f 496/2/4 497/2/4 498/2/4
f 498/2/4 497/2/4 499/2/4
f 487/1/4 498/1/4 500/1/4
f 487/1/4 500/1/4 502/1/4
f 500/2/4 501/2/4 503/2/4
f 502/1/4 500/1/4 503/1/4
f 503/2/4 501/2/4 504/2/4
f 507/1/5 506/1/5 505/1/5
f 508/1/5 506/1/5 507/1/5
f 509/1/6 510/1/6 518/1/6
f 518/1/6 510/1/6 519/1/6
f 511/1/6 512/1/6 520/1/6
f 520/1/6 512/1/6 521/1/6
f 513/1/6 514/1/6 522/1/6
f 522/1/6 514/1/6 523/1/6
f 515/1/6 516/1/6 524/1/6
f 524/1/6 516/1/6 525/1/6
f 522/1/6 523/1/6 527/1/6
f 525/1/6 526/1/6 527/1/6
f 524/1/6 525/1/6 527/1/6
f 523/1/6 524/1/6 527/1/6
f 518/1/6 519/1/6 527/1/6
f 521/1/6 522/1/6 527/1/6
f 520/1/6 521/1/6 527/1/6
f 519/1/6 520/1/6 527/1/6
f 517/1/6 518/1/6 527/1/6
f 527/1/6 526/1/6 528/1/6
f 528/1/6 526/1/6 529/1/6
f 529/1/6 526/1/6 530/1/6
f 530/1/6 526/1/6 531/1/6
f 531/1/6 526/1/6 532/1/6
f 532/1/6 526/1/6 533/1/6
f 533/1/6 526/1/6 534/1/6
f 528/1/6 529/1/6 536/1/6
f 536/1/6 529/1/6 537/1/6
f 530/1/6 531/1/6 538/1/6
f 538/1/6 531/1/6 539/1/6
f 532/1/6 533/1/6 540/1/6
f 540/1/6 533/1/6 541/1/6
f 536/1/6 537/1/6 543/1/6
f 541/1/6 542/1/6 543/1/6
f 540/1/6 541/1/6 543/1/6
f 539/1/6 540/1/6 543/1/6
f 538/1/6 539/1/6 543/1/6
f 537/1/6 538/1/6 543/1/6
f 535/1/6 536/1/6 543/1/6
f 543/1/6 542/1/6 544/1/6
f 544/1/6 542/1/6 545/1/6
f 545/1/6 542/1/6 546/1/6
f 546/1/6 542/1/6 547/1/6
f 547/1/6 542/1/6 548/1/6
f 548/1/6 542/1/6 549/1/6
f 549/1/6 542/1/6 550/1/6
f 544/1/6 545/1/6 552/1/6
f 552/1/6 545/1/6 553/1/6
f 546/1/6 547/1/6 554/1/6
f 554/1/6 547/1/6 555/1/6
f 548/1/6 549/1/6 556/1/6
f 556/1/6 549/1/6 557/1/6
f 552/1/6 553/1/6 559/1/6
f 557/1/6 558/1/6 559/1/6
f 556/1/6 557/1/6 559/1/6
f 555/1/6 556/1/6 559/1/6
f 554/1/6 555/1/6 559/1/6
f 553/1/6 554/1/6 559/1/6
f 551/1/6 552/1/6 559/1/6
f 559/1/6 558/1/6 560/1/6
f 560/1/6 558/1/6 561/1/6
f 561/1/6 558/1/6 562/1/6
f 562/1/6 558/1/6 563/1/6
f 563/1/6 558/1/6 564/1/6
f 564/1/6 558/1/6 565/1/6
f 565/1/6 558/1/6 566/1/6
f 566/1/6 558/1/6 567/1/6
f 567/1/6 558/1/6 568/1/6
f 560/1/6 561/1/6 570/1/6
f 570/1/6 561/1/6 571/1/6
f 562/1/6 563/1/6 572/1/6
f 572/1/6 563/1/6 573/1/6
f 564/1/6 565/1/6 574/1/6
f 574/1/6 565/1/6 575/1/6
f 566/1/6 567/1/6 576/1/6
f 576/1/6 567/1/6 577/1/6
f 572/1/6 573/1/6 579/1/6
f 577/1/6 578/1/6 579/1/6
f 576/1/6 577/1/6 579/1/6
f 575/1/6 576/1/6 579/1/6
f 574/1/6 575/1/6 579/1/6
f 573/1/6 574/1/6 579/1/6
f 570/1/6 571/1/6 579/1/6
f 571/1/6 572/1/6 579/1/6
f 569/1/6 570/1/6 579/1/6
f 579/1/6 578/1/6 580/1/6
f 580/1/6 578/1/6 581/1/6
f 581/1/6 578/1/6 582/1/6
f 582/1/6 578/1/6 583/1/6
f 583/1/6 578/1/6 584/1/6
f 584/1/6 578/1/6 585/1/6
f 585/1/6 578/1/6 586/1/6
f 580/1/6 581/1/6 588/1/6
f 588/1/6 581/1/6 589/1/6
f 582/1/6 583/1/6 590/1/6
f 590/1/6 583/1/6 591/1/6
f 584/1/6 585/1/6 592/1/6
f 592/1/6 585/1/6 593/1/6
f 588/1/6 589/1/6 595/1/6
f 593/1/6 594/1/6 595/1/6
f 592/1/6 593/1/6 595/1/6
f 591/1/6 592/1/6 595/1/6
f 590/1/6 591/1/6 595/1/6
f 589/1/6 590/1/6 595/1/6
f 587/1/6 588/1/6 595/1/6
f 595/1/6 594/1/6 596/1/6
f 596/1/6 594/1/6 597/1/6
f 597/1/6 594/1/6 598/1/6
f 598/1/6 594/1/6 599/1/6
f 599/1/6 594/1/6 600/1/6
f 600/1/6 594/1/6 601/1/6
f 601/1/6 594/1/6 602/1/6
f 602/1/6 594/1/6 603/1/6
f 603/1/6 594/1/6 604/1/6
f 596/1/6 597/1/6 606/1/6
f 606/1/6 597/1/6 607/1/6
f 598/1/6 599/1/6 608/1/6
f 608/1/6 599/1/6 609/1/6
f 600/1/6 601/1/6 610/1/6
f 610/1/6 601/1/6 611/1/6
f 602/1/6 603/1/6 612/1/6
f 612/1/6 603/1/6 613/1/6
f 608/1/6 609/1/6 615/1/6
f 613/1/6 614/1/6 615/1/6
f 612/1/6 613/1/6 615/1/6
f 611/1/6 612/1/6 615/1/6
f 610/1/6 611/1/6 615/1/6
f 609/1/6 610/1/6 615/1/6
f 606/1/6 607/1/6 615/1/6
f 607/1/6 608/1/6 615/1/6
f 605/1/6 606/1/6 615/1/6
f 615/1/6 614/1/6 616/1/6
f 616/1/6 614/1/6 617/1/6
f 617/1/6 614/1/6 618/1/6
f 618/1/6 614/1/6 619/1/6
f 619/1/6 614/1/6 620/1/6
f 620/1/6 614/1/6 621/1/6
f 621/1/6 614/1/6 622/1/6
f 616/1/6 617/1/6 623/1/6
f 623/1/6 617/1/6 624/1/6
f 618/1/6 619/1/6 625/1/6
f 625/1/6 619/1/6 626/1/6
f 620/1/6 621/1/6 627/1/6
f 627/1/6 621/1/6 628/1/6
f 629/2/6 630/2/6 639/2/6
f 639/2/6 630/2/6 640/2/6
f 631/2/6 632/2/6 641/2/6
f 641/2/6 632/2/6 642/2/6
f 633/2/6 634/2/6 643/2/6
f 643/2/6 634/2/6 644/2/6
f 635/2/6 636/2/6 645/2/6
f 645/2/6 636/2/6 646/2/6
f 637/2/6 638/2/6 647/2/6
f 647/2/6 638/2/6 648/2/6
f 649/2/6 650/2/6 657/2/6
f 657/2/6 650/2/6 658/2/6
f 651/2/6 652/2/6 659/2/6
f 659/2/6 652/2/6 660/2/6
f 653/2/6 654/2/6 661/2/6
f 661/2/6 654/2/6 662/2/6
f 655/2/6 656/2/6 663/2/6
f 663/2/6 656/2/6 664/2/6
f 665/2/6 666/2/6 673/2/6
f 673/2/6 666/2/6 674/2/6
f 667/2/6 668/2/6 675/2/6
f 675/2/6 668/2/6 676/2/6
f 669/2/6 670/2/6 677/2/6
f 677/2/6 670/2/6 678/2/6
f 671/2/6 672/2/6 679/2/6
f 679/2/6 672/2/6 680/2/6
f 681/2/6 682/2/6 691/2/6
f 691/2/6 682/2/6 692/2/6
f 683/2/6 684/2/6 693/2/6
f 693/2/6 684/2/6 694/2/6
f 685/2/6 686/2/6 695/2/6
f 695/2/6 686/2/6 696/2/6
f 687/2/6 688/2/6 697/2/6
f 697/2/6 688/2/6 698/2/6
f 689/2/6 690/2/6 699/2/6
f 699/2/6 690/2/6 700/2/6
f 701/2/6 702/2/6 709/2/6
f 709/2/6 702/2/6 710/2/6
f 703/2/6 704/2/6 711/2/6
f 711/2/6 704/2/6 712/2/6
f 705/2/6 706/2/6 713/2/6
f 713/2/6 706/2/6 714/2/6
f 707/2/6 708/2/6 715/2/6
f 715/2/6 708/2/6 716/2/6
f 717/2/6 718/2/6 727/2/6
f 727/2/6 718/2/6 728/2/6
f 719/2/6 720/2/6 729/2/6
f 729/2/6 720/2/6 730/2/6
f 721/2/6 722/2/6 731/2/6
f 731/2/6 722/2/6 732/2/6
f 723/2/6 724/2/6 733/2/6
f 733/2/6 724/2/6 734/2/6
f 725/2/6 726/2/6 735/2/6
f 735/2/6 726/2/6 736/2/6
f 737/2/6 738/2/6 745/2/6
f 745/2/6 738/2/6 746/2/6
f 739/2/6 740/2/6 747/2/6
f 747/2/6 740/2/6 748/2/6
f 741/2/6 742/2/6 749/2/6
f 749/2/6 742/2/6 750/2/6
f 743/2/6 744/2/6 751/2/6
f 751/2/6 744/2/6 752/2/6
