# MagicaVoxel @ Ephtracy

# group
o 

# material
mtllib MainDungeonParts-6.mtl
usemtl palette

# normals
vn -1 0 0
vn 1 0 0
vn 0 0 1
vn 0 0 -1
vn 0 -1 0
vn 0 1 0

# texcoords
vt 0.970703 0.5
vt 0.974609 0.5

# verts
v 0.2 0 -4.9
v 0.2 0 -10.3
v 0.2 0.3 -4.9
v 0.2 0.3 -5.5
v 0.2 0.3 -5.7
v 0.2 0.3 -6.3
v 0.2 0.3 -6.5
v 0.2 0.3 -7.1
v 0.2 0.3 -7.3
v 0.2 0.3 -7.9
v 0.2 0.3 -8.1
v 0.2 0.3 -8.7
v 0.2 0.3 -8.9
v 0.2 0.3 -9.5
v 0.2 0.3 -9.7
v 0.2 0.3 -10.3
v 0.2 0.4 -4.9
v 0.2 0.4 -5.5
v 0.2 0.4 -5.7
v 0.2 0.4 -6.3
v 0.2 0.4 -6.5
v 0.2 0.4 -7.1
v 0.2 0.4 -7.3
v 0.2 0.4 -7.9
v 0.2 0.4 -8.1
v 0.2 0.4 -8.7
v 0.2 0.4 -8.9
v 0.2 0.4 -9.5
v 0.2 0.4 -9.7
v 0.2 0.4 -10.3
v 0.6 0.3 -8.1
v 0.6 0.3 -8.7
v 0.6 0.4 -8.1
v 0.6 0.4 -8.7
v 0.9 0.3 -5.7
v 0.9 0.3 -6.3
v 0.9 0.3 -9.7
v 0.9 0.3 -10.3
v 0.9 0.4 -5.7
v 0.9 0.4 -6.3
v 0.9 0.4 -9.7
v 0.9 0.4 -10.3
v 1.1 0 -5.4
v 1.1 0 -5.5
v 1.1 0.3 -4.9
v 1.1 0.3 -5.4
v 1.1 0.4 -4.9
v 1.1 0.4 -5.5
v 2.2 0 -5.4
v 2.2 0 -5.5
v 2.2 0.3 -4.9
v 2.2 0.3 -5.4
v 2.2 0.4 -4.9
v 2.2 0.4 -5.5
v 3.2 0 -5.4
v 3.2 0 -5.5
v 3.2 0.3 -4.9
v 3.2 0.3 -5.4
v 3.2 0.4 -4.9
v 3.2 0.4 -5.5
v 4.4 0 -5.5
v 4.4 0 -5.7
v 4.4 0 -6.3
v 4.4 0 -6.5
v 4.4 0 -7.1
v 4.4 0 -7.3
v 4.4 0 -7.9
v 4.4 0 -8.1
v 4.4 0 -8.7
v 4.4 0 -8.9
v 4.4 0 -9.5
v 4.4 0 -9.7
v 4.4 0 -10.3
v 4.4 0.3 -5.5
v 4.4 0.3 -5.7
v 4.4 0.3 -6.3
v 4.4 0.3 -6.5
v 4.4 0.3 -7.1
v 4.4 0.3 -7.3
v 4.4 0.3 -7.9
v 4.4 0.3 -8.1
v 4.4 0.3 -8.7
v 4.4 0.3 -8.9
v 4.4 0.3 -9.5
v 4.4 0.3 -9.7
v 4.4 0.4 -5.7
v 4.4 0.4 -6.3
v 4.4 0.4 -6.5
v 4.4 0.4 -7.1
v 4.4 0.4 -7.3
v 4.4 0.4 -7.9
v 4.4 0.4 -8.1
v 4.4 0.4 -8.7
v 4.4 0.4 -8.9
v 4.4 0.4 -9.5
v 4.4 0.4 -9.7
v 4.4 0.4 -10.3
v 4.8 0.3 -4.9
v 4.8 0.3 -5.5
v 4.8 0.3 -7.3
v 4.8 0.3 -7.9
v 4.8 0.4 -4.9
v 4.8 0.4 -5.5
v 4.8 0.4 -7.3
v 4.8 0.4 -7.9
v 5 0.3 -8.9
v 5 0.3 -9.5
v 5 0.4 -8.9
v 5 0.4 -9.5
v 5.1 0.3 -5.7
v 5.1 0.3 -6.3
v 5.1 0.4 -5.7
v 5.1 0.4 -6.3
v 0.4 0.3 -8.1
v 0.4 0.3 -8.7
v 0.4 0.4 -8.1
v 0.4 0.4 -8.7
v 0.7 0.3 -5.7
v 0.7 0.3 -6.3
v 0.7 0.3 -9.7
v 0.7 0.3 -10.3
v 0.7 0.4 -5.7
v 0.7 0.4 -6.3
v 0.7 0.4 -9.7
v 0.7 0.4 -10.3
v 0.9 0.3 -4.9
v 0.9 0.3 -5.5
v 0.9 0.4 -4.9
v 0.9 0.4 -5.5
v 1 0 -5.4
v 1 0 -5.7
v 1 0 -6.3
v 1 0 -6.5
v 1 0 -7.1
v 1 0 -7.3
v 1 0 -7.9
v 1 0 -8.1
v 1 0 -8.7
v 1 0 -8.9
v 1 0 -9.5
v 1 0 -9.7
v 1 0 -10.3
v 1 0.3 -5.4
v 1 0.3 -5.7
v 1 0.3 -6.3
v 1 0.3 -6.5
v 1 0.3 -7.1
v 1 0.3 -7.3
v 1 0.3 -7.9
v 1 0.3 -8.1
v 1 0.3 -8.7
v 1 0.3 -8.9
v 1 0.3 -9.5
v 1 0.3 -9.7
v 1 0.4 -5.7
v 1 0.4 -6.3
v 1 0.4 -6.5
v 1 0.4 -7.1
v 1 0.4 -7.3
v 1 0.4 -7.9
v 1 0.4 -8.1
v 1 0.4 -8.7
v 1 0.4 -8.9
v 1 0.4 -9.5
v 1 0.4 -9.7
v 1 0.4 -10.3
v 2 0 -5.4
v 2 0 -5.5
v 2 0.3 -4.9
v 2 0.3 -5.4
v 2 0.4 -4.9
v 2 0.4 -5.5
v 3 0 -5.4
v 3 0 -5.5
v 3 0.3 -4.9
v 3 0.3 -5.4
v 3 0.4 -4.9
v 3 0.4 -5.5
v 4.6 0.3 -4.9
v 4.6 0.3 -5.5
v 4.6 0.3 -7.3
v 4.6 0.3 -7.9
v 4.6 0.4 -4.9
v 4.6 0.4 -5.5
v 4.6 0.4 -7.3
v 4.6 0.4 -7.9
v 4.8 0.3 -8.9
v 4.8 0.3 -9.5
v 4.8 0.4 -8.9
v 4.8 0.4 -9.5
v 4.9 0.3 -5.7
v 4.9 0.3 -6.3
v 4.9 0.4 -5.7
v 4.9 0.4 -6.3
v 5.2 0 -4.9
v 5.2 0 -10.3
v 5.2 0.3 -4.9
v 5.2 0.3 -5.5
v 5.2 0.3 -5.7
v 5.2 0.3 -6.3
v 5.2 0.3 -6.5
v 5.2 0.3 -7.1
v 5.2 0.3 -7.3
v 5.2 0.3 -7.9
v 5.2 0.3 -8.1
v 5.2 0.3 -8.7
v 5.2 0.3 -8.9
v 5.2 0.3 -9.5
v 5.2 0.3 -9.7
v 5.2 0.3 -10.3
v 5.2 0.4 -4.9
v 5.2 0.4 -5.5
v 5.2 0.4 -5.7
v 5.2 0.4 -6.3
v 5.2 0.4 -6.5
v 5.2 0.4 -7.1
v 5.2 0.4 -7.3
v 5.2 0.4 -7.9
v 5.2 0.4 -8.1
v 5.2 0.4 -8.7
v 5.2 0.4 -8.9
v 5.2 0.4 -9.5
v 5.2 0.4 -9.7
v 5.2 0.4 -10.3
v 0.2 0 -4.9
v 0.2 0.3 -4.9
v 0.2 0.4 -4.9
v 0.9 0.3 -4.9
v 0.9 0.4 -4.9
v 1.1 0.3 -4.9
v 1.1 0.4 -4.9
v 2 0.3 -4.9
v 2 0.4 -4.9
v 2.2 0.3 -4.9
v 2.2 0.4 -4.9
v 3 0.3 -4.9
v 3 0.4 -4.9
v 3.2 0.3 -4.9
v 3.2 0.4 -4.9
v 4.6 0.3 -4.9
v 4.6 0.4 -4.9
v 4.8 0.3 -4.9
v 4.8 0.4 -4.9
v 5.2 0 -4.9
v 5.2 0.3 -4.9
v 5.2 0.4 -4.9
v 0.2 0.3 -5.7
v 0.2 0.4 -5.7
v 0.7 0.3 -5.7
v 0.7 0.4 -5.7
v 0.9 0.3 -5.7
v 0.9 0.4 -5.7
v 1 0.3 -5.7
v 1 0.4 -5.7
v 4.4 0.3 -5.7
v 4.4 0.4 -5.7
v 4.9 0.3 -5.7
v 4.9 0.4 -5.7
v 5.1 0.3 -5.7
v 5.1 0.4 -5.7
v 5.2 0.3 -5.7
v 5.2 0.4 -5.7
v 0.2 0.3 -6.5
v 0.2 0.4 -6.5
v 1 0.3 -6.5
v 1 0.4 -6.5
v 4.4 0.3 -6.5
v 4.4 0.4 -6.5
v 5.2 0.3 -6.5
v 5.2 0.4 -6.5
v 0.2 0.3 -7.3
v 0.2 0.4 -7.3
v 1 0.3 -7.3
v 1 0.4 -7.3
v 4.4 0.3 -7.3
v 4.4 0.4 -7.3
v 4.6 0.3 -7.3
v 4.6 0.4 -7.3
v 4.8 0.3 -7.3
v 4.8 0.4 -7.3
v 5.2 0.3 -7.3
v 5.2 0.4 -7.3
v 0.2 0.3 -8.1
v 0.2 0.4 -8.1
v 0.4 0.3 -8.1
v 0.4 0.4 -8.1
v 0.6 0.3 -8.1
v 0.6 0.4 -8.1
v 1 0.3 -8.1
v 1 0.4 -8.1
v 4.4 0.3 -8.1
v 4.4 0.4 -8.1
v 5.2 0.3 -8.1
v 5.2 0.4 -8.1
v 0.2 0.3 -8.9
v 0.2 0.4 -8.9
v 1 0.3 -8.9
v 1 0.4 -8.9
v 4.4 0.3 -8.9
v 4.4 0.4 -8.9
v 4.8 0.3 -8.9
v 4.8 0.4 -8.9
v 5 0.3 -8.9
v 5 0.4 -8.9
v 5.2 0.3 -8.9
v 5.2 0.4 -8.9
v 0.2 0.3 -9.7
v 0.2 0.4 -9.7
v 0.7 0.3 -9.7
v 0.7 0.4 -9.7
v 0.9 0.3 -9.7
v 0.9 0.4 -9.7
v 1 0.3 -9.7
v 1 0.4 -9.7
v 4.4 0.3 -9.7
v 4.4 0.4 -9.7
v 5.2 0.3 -9.7
v 5.2 0.4 -9.7
v 1 0 -5.4
v 1 0.3 -5.4
v 1.1 0 -5.4
v 1.1 0.3 -5.4
v 2 0 -5.4
v 2 0.3 -5.4
v 2.2 0 -5.4
v 2.2 0.3 -5.4
v 3 0 -5.4
v 3 0.3 -5.4
v 3.2 0 -5.4
v 3.2 0.3 -5.4
v 0.2 0.3 -5.5
v 0.2 0.4 -5.5
v 0.9 0.3 -5.5
v 0.9 0.4 -5.5
v 1.1 0 -5.5
v 1.1 0.4 -5.5
v 2 0 -5.5
v 2 0.4 -5.5
v 2.2 0 -5.5
v 2.2 0.4 -5.5
v 3 0 -5.5
v 3 0.4 -5.5
v 3.2 0 -5.5
v 3.2 0.4 -5.5
v 4.4 0 -5.5
v 4.4 0.3 -5.5
v 4.6 0.3 -5.5
v 4.6 0.4 -5.5
v 4.8 0.3 -5.5
v 4.8 0.4 -5.5
v 5.2 0.3 -5.5
v 5.2 0.4 -5.5
v 0.2 0.3 -6.3
v 0.2 0.4 -6.3
v 0.7 0.3 -6.3
v 0.7 0.4 -6.3
v 0.9 0.3 -6.3
v 0.9 0.4 -6.3
v 1 0.3 -6.3
v 1 0.4 -6.3
v 4.4 0.3 -6.3
v 4.4 0.4 -6.3
v 4.9 0.3 -6.3
v 4.9 0.4 -6.3
v 5.1 0.3 -6.3
v 5.1 0.4 -6.3
v 5.2 0.3 -6.3
v 5.2 0.4 -6.3
v 0.2 0.3 -7.1
v 0.2 0.4 -7.1
v 1 0.3 -7.1
v 1 0.4 -7.1
v 4.4 0.3 -7.1
v 4.4 0.4 -7.1
v 5.2 0.3 -7.1
v 5.2 0.4 -7.1
v 0.2 0.3 -7.9
v 0.2 0.4 -7.9
v 1 0.3 -7.9
v 1 0.4 -7.9
v 4.4 0.3 -7.9
v 4.4 0.4 -7.9
v 4.6 0.3 -7.9
v 4.6 0.4 -7.9
v 4.8 0.3 -7.9
v 4.8 0.4 -7.9
v 5.2 0.3 -7.9
v 5.2 0.4 -7.9
v 0.2 0.3 -8.7
v 0.2 0.4 -8.7
v 0.4 0.3 -8.7
v 0.4 0.4 -8.7
v 0.6 0.3 -8.7
v 0.6 0.4 -8.7
v 1 0.3 -8.7
v 1 0.4 -8.7
v 4.4 0.3 -8.7
v 4.4 0.4 -8.7
v 5.2 0.3 -8.7
v 5.2 0.4 -8.7
v 0.2 0.3 -9.5
v 0.2 0.4 -9.5
v 1 0.3 -9.5
v 1 0.4 -9.5
v 4.4 0.3 -9.5
v 4.4 0.4 -9.5
v 4.8 0.3 -9.5
v 4.8 0.4 -9.5
v 5 0.3 -9.5
v 5 0.4 -9.5
v 5.2 0.3 -9.5
v 5.2 0.4 -9.5
v 0.2 0 -10.3
v 0.2 0.3 -10.3
v 0.2 0.4 -10.3
v 0.7 0.3 -10.3
v 0.7 0.4 -10.3
v 0.9 0 -10.3
v 0.9 0.3 -10.3
v 0.9 0.4 -10.3
v 1 0 -10.3
v 1 0.4 -10.3
v 4.4 0 -10.3
v 4.4 0.4 -10.3
v 4.5 0 -10.3
v 4.5 0.3 -10.3
v 5.2 0 -10.3
v 5.2 0.3 -10.3
v 5.2 0.4 -10.3
v 0.2 0 -4.9
v 5.2 0 -4.9
v 1 0 -5.4
v 1.1 0 -5.4
v 2 0 -5.4
v 2.2 0 -5.4
v 3 0 -5.4
v 3.2 0 -5.4
v 4.4 0 -5.4
v 1.1 0 -5.5
v 2 0 -5.5
v 2.2 0 -5.5
v 3 0 -5.5
v 3.2 0 -5.5
v 4.4 0 -5.5
v 0.9 0 -5.7
v 1 0 -5.7
v 4.4 0 -5.7
v 4.5 0 -5.7
v 0.9 0 -6.3
v 1 0 -6.3
v 4.4 0 -6.3
v 4.5 0 -6.3
v 0.9 0 -6.5
v 1 0 -6.5
v 4.4 0 -6.5
v 4.5 0 -6.5
v 0.9 0 -7.1
v 1 0 -7.1
v 4.4 0 -7.1
v 4.5 0 -7.1
v 0.9 0 -7.3
v 1 0 -7.3
v 4.4 0 -7.3
v 4.5 0 -7.3
v 0.9 0 -7.9
v 1 0 -7.9
v 4.4 0 -7.9
v 4.5 0 -7.9
v 0.9 0 -8.1
v 1 0 -8.1
v 4.4 0 -8.1
v 4.5 0 -8.1
v 0.9 0 -8.7
v 1 0 -8.7
v 4.4 0 -8.7
v 4.5 0 -8.7
v 0.9 0 -8.9
v 1 0 -8.9
v 4.4 0 -8.9
v 4.5 0 -8.9
v 0.9 0 -9.5
v 1 0 -9.5
v 4.4 0 -9.5
v 4.5 0 -9.5
v 0.9 0 -9.7
v 1 0 -9.7
v 4.4 0 -9.7
v 4.5 0 -9.7
v 0.2 0 -10.3
v 0.9 0 -10.3
v 1 0 -10.3
v 4.4 0 -10.3
v 4.5 0 -10.3
v 5.2 0 -10.3
v 0.9 0.3 -4.9
v 1.1 0.3 -4.9
v 2 0.3 -4.9
v 2.2 0.3 -4.9
v 3 0.3 -4.9
v 3.2 0.3 -4.9
v 4.6 0.3 -4.9
v 4.8 0.3 -4.9
v 1 0.3 -5.4
v 1.1 0.3 -5.4
v 2 0.3 -5.4
v 2.2 0.3 -5.4
v 3 0.3 -5.4
v 3.2 0.3 -5.4
v 0.2 0.3 -5.5
v 0.9 0.3 -5.5
v 4.4 0.3 -5.5
v 4.6 0.3 -5.5
v 4.8 0.3 -5.5
v 5.2 0.3 -5.5
v 0.2 0.3 -5.7
v 0.7 0.3 -5.7
v 0.9 0.3 -5.7
v 1 0.3 -5.7
v 4.4 0.3 -5.7
v 4.9 0.3 -5.7
v 5.1 0.3 -5.7
v 5.2 0.3 -5.7
v 0.2 0.3 -6.3
v 0.7 0.3 -6.3
v 0.9 0.3 -6.3
v 1 0.3 -6.3
v 4.4 0.3 -6.3
v 4.9 0.3 -6.3
v 5.1 0.3 -6.3
v 5.2 0.3 -6.3
v 0.2 0.3 -6.5
v 1 0.3 -6.5
v 4.4 0.3 -6.5
v 5.2 0.3 -6.5
v 0.2 0.3 -7.1
v 1 0.3 -7.1
v 4.4 0.3 -7.1
v 5.2 0.3 -7.1
v 0.2 0.3 -7.3
v 1 0.3 -7.3
v 4.4 0.3 -7.3
v 4.6 0.3 -7.3
v 4.8 0.3 -7.3
v 5.2 0.3 -7.3
v 0.2 0.3 -7.9
v 1 0.3 -7.9
v 4.4 0.3 -7.9
v 4.6 0.3 -7.9
v 4.8 0.3 -7.9
v 5.2 0.3 -7.9
v 0.2 0.3 -8.1
v 0.4 0.3 -8.1
v 0.6 0.3 -8.1
v 1 0.3 -8.1
v 4.4 0.3 -8.1
v 5.2 0.3 -8.1
v 0.2 0.3 -8.7
v 0.4 0.3 -8.7
v 0.6 0.3 -8.7
v 1 0.3 -8.7
v 4.4 0.3 -8.7
v 5.2 0.3 -8.7
v 0.2 0.3 -8.9
v 1 0.3 -8.9
v 4.4 0.3 -8.9
v 4.8 0.3 -8.9
v 5 0.3 -8.9
v 5.2 0.3 -8.9
v 0.2 0.3 -9.5
v 1 0.3 -9.5
v 4.4 0.3 -9.5
v 4.8 0.3 -9.5
v 5 0.3 -9.5
v 5.2 0.3 -9.5
v 0.2 0.3 -9.7
v 0.7 0.3 -9.7
v 0.9 0.3 -9.7
v 1 0.3 -9.7
v 4.4 0.3 -9.7
v 5.2 0.3 -9.7
v 0.7 0.3 -10.3
v 0.9 0.3 -10.3
v 0.2 0.4 -4.9
v 0.9 0.4 -4.9
v 1.1 0.4 -4.9
v 2 0.4 -4.9
v 2.2 0.4 -4.9
v 3 0.4 -4.9
v 3.2 0.4 -4.9
v 4.6 0.4 -4.9
v 4.8 0.4 -4.9
v 5.2 0.4 -4.9
v 0.2 0.4 -5.5
v 0.9 0.4 -5.5
v 1.1 0.4 -5.5
v 2 0.4 -5.5
v 2.2 0.4 -5.5
v 3 0.4 -5.5
v 3.2 0.4 -5.5
v 4.6 0.4 -5.5
v 4.8 0.4 -5.5
v 5.2 0.4 -5.5
v 0.2 0.4 -5.7
v 0.7 0.4 -5.7
v 0.9 0.4 -5.7
v 1 0.4 -5.7
v 4.4 0.4 -5.7
v 4.9 0.4 -5.7
v 5.1 0.4 -5.7
v 5.2 0.4 -5.7
v 0.2 0.4 -6.3
v 0.7 0.4 -6.3
v 0.9 0.4 -6.3
v 1 0.4 -6.3
v 4.4 0.4 -6.3
v 4.9 0.4 -6.3
v 5.1 0.4 -6.3
v 5.2 0.4 -6.3
v 0.2 0.4 -6.5
v 1 0.4 -6.5
v 4.4 0.4 -6.5
v 5.2 0.4 -6.5
v 0.2 0.4 -7.1
v 1 0.4 -7.1
v 4.4 0.4 -7.1
v 5.2 0.4 -7.1
v 0.2 0.4 -7.3
v 1 0.4 -7.3
v 4.4 0.4 -7.3
v 4.6 0.4 -7.3
v 4.8 0.4 -7.3
v 5.2 0.4 -7.3
v 0.2 0.4 -7.9
v 1 0.4 -7.9
v 4.4 0.4 -7.9
v 4.6 0.4 -7.9
v 4.8 0.4 -7.9
v 5.2 0.4 -7.9
v 0.2 0.4 -8.1
v 0.4 0.4 -8.1
v 0.6 0.4 -8.1
v 1 0.4 -8.1
v 4.4 0.4 -8.1
v 5.2 0.4 -8.1
v 0.2 0.4 -8.7
v 0.4 0.4 -8.7
v 0.6 0.4 -8.7
v 1 0.4 -8.7
v 4.4 0.4 -8.7
v 5.2 0.4 -8.7
v 0.2 0.4 -8.9
v 1 0.4 -8.9
v 4.4 0.4 -8.9
v 4.8 0.4 -8.9
v 5 0.4 -8.9
v 5.2 0.4 -8.9
v 0.2 0.4 -9.5
v 1 0.4 -9.5
v 4.4 0.4 -9.5
v 4.8 0.4 -9.5
v 5 0.4 -9.5
v 5.2 0.4 -9.5
v 0.2 0.4 -9.7
v 0.7 0.4 -9.7
v 0.9 0.4 -9.7
v 1 0.4 -9.7
v 4.4 0.4 -9.7
v 5.2 0.4 -9.7
v 0.2 0.4 -10.3
v 0.7 0.4 -10.3
v 0.9 0.4 -10.3
v 1 0.4 -10.3
v 4.4 0.4 -10.3
v 5.2 0.4 -10.3

# faces
f 3/1/1 2/1/1 1/1/1
f 4/1/1 2/1/1 3/1/1
f 5/1/1 2/1/1 4/1/1
f 6/1/1 2/1/1 5/1/1
f 7/1/1 2/1/1 6/1/1
f 8/1/1 2/1/1 7/1/1
f 9/1/1 2/1/1 8/1/1
f 10/1/1 2/1/1 9/1/1
f 11/1/1 2/1/1 10/1/1
f 12/1/1 2/1/1 11/1/1
f 13/1/1 2/1/1 12/1/1
f 14/1/1 2/1/1 13/1/1
f 15/1/1 2/1/1 14/1/1
f 16/1/1 2/1/1 15/1/1
f 17/2/1 4/2/1 3/2/1
f 18/2/1 4/2/1 17/2/1
f 19/2/1 6/2/1 5/2/1
f 20/2/1 6/2/1 19/2/1
f 21/2/1 8/2/1 7/2/1
f 22/2/1 8/2/1 21/2/1
f 23/2/1 10/2/1 9/2/1
f 24/2/1 10/2/1 23/2/1
f 25/2/1 12/2/1 11/2/1
f 26/2/1 12/2/1 25/2/1
f 27/2/1 14/2/1 13/2/1
f 28/2/1 14/2/1 27/2/1
f 29/2/1 16/2/1 15/2/1
f 30/2/1 16/2/1 29/2/1
f 33/2/1 32/2/1 31/2/1
f 34/2/1 32/2/1 33/2/1
f 39/2/1 36/2/1 35/2/1
f 40/2/1 36/2/1 39/2/1
f 41/2/1 38/2/1 37/2/1
f 42/2/1 38/2/1 41/2/1
f 46/2/1 44/2/1 43/2/1
f 47/2/1 46/2/1 45/2/1
f 48/2/1 44/2/1 46/2/1
f 48/2/1 46/2/1 47/2/1
f 52/2/1 50/2/1 49/2/1
f 53/2/1 52/2/1 51/2/1
f 54/2/1 50/2/1 52/2/1
f 54/2/1 52/2/1 53/2/1
f 58/2/1 56/2/1 55/2/1
f 59/2/1 58/2/1 57/2/1
f 60/2/1 56/2/1 58/2/1
f 60/2/1 58/2/1 59/2/1
f 74/1/1 62/1/1 61/1/1
f 75/2/1 63/2/1 62/2/1
f 75/1/1 62/1/1 74/1/1
f 76/1/1 64/1/1 63/1/1
f 76/2/1 63/2/1 75/2/1
f 77/2/1 65/2/1 64/2/1
f 77/1/1 64/1/1 76/1/1
f 78/1/1 66/1/1 65/1/1
f 78/2/1 65/2/1 77/2/1
f 79/2/1 67/2/1 66/2/1
f 79/1/1 66/1/1 78/1/1
f 80/1/1 68/1/1 67/1/1
f 80/2/1 67/2/1 79/2/1
f 81/2/1 69/2/1 68/2/1
f 81/1/1 68/1/1 80/1/1
f 82/1/1 70/1/1 69/1/1
f 82/2/1 69/2/1 81/2/1
f 83/2/1 71/2/1 70/2/1
f 83/1/1 70/1/1 82/1/1
f 84/1/1 72/1/1 71/1/1
f 84/2/1 71/2/1 83/2/1
f 85/2/1 73/2/1 72/2/1
f 85/1/1 72/1/1 84/1/1
f 86/2/1 76/2/1 75/2/1
f 87/2/1 76/2/1 86/2/1
f 88/2/1 78/2/1 77/2/1
f 89/2/1 78/2/1 88/2/1
f 90/2/1 80/2/1 79/2/1
f 91/2/1 80/2/1 90/2/1
f 92/2/1 82/2/1 81/2/1
f 93/2/1 82/2/1 92/2/1
f 94/2/1 84/2/1 83/2/1
f 95/2/1 84/2/1 94/2/1
f 96/2/1 73/2/1 85/2/1
f 97/2/1 73/2/1 96/2/1
f 102/2/1 99/2/1 98/2/1
f 103/2/1 99/2/1 102/2/1
f 104/2/1 101/2/1 100/2/1
f 105/2/1 101/2/1 104/2/1
f 108/2/1 107/2/1 106/2/1
f 109/2/1 107/2/1 108/2/1
f 112/2/1 111/2/1 110/2/1
f 113/2/1 111/2/1 112/2/1
f 114/2/2 115/2/2 116/2/2
f 116/2/2 115/2/2 117/2/2
f 118/2/2 119/2/2 122/2/2
f 122/2/2 119/2/2 123/2/2
f 120/2/2 121/2/2 124/2/2
f 124/2/2 121/2/2 125/2/2
f 126/2/2 127/2/2 128/2/2
f 128/2/2 127/2/2 129/2/2
f 130/1/2 131/1/2 143/1/2
f 131/2/2 132/2/2 144/2/2
f 143/1/2 131/1/2 144/1/2
f 132/1/2 133/1/2 145/1/2
f 144/2/2 132/2/2 145/2/2
f 133/2/2 134/2/2 146/2/2
f 145/1/2 133/1/2 146/1/2
f 134/1/2 135/1/2 147/1/2
f 146/2/2 134/2/2 147/2/2
f 135/2/2 136/2/2 148/2/2
f 147/1/2 135/1/2 148/1/2
f 136/1/2 137/1/2 149/1/2
f 148/2/2 136/2/2 149/2/2
f 137/2/2 138/2/2 150/2/2
f 149/1/2 137/1/2 150/1/2
f 138/1/2 139/1/2 151/1/2
f 150/2/2 138/2/2 151/2/2
f 139/2/2 140/2/2 152/2/2
f 151/1/2 139/1/2 152/1/2
f 140/1/2 141/1/2 153/1/2
f 152/2/2 140/2/2 153/2/2
f 141/2/2 142/2/2 154/2/2
f 153/1/2 141/1/2 154/1/2
f 144/2/2 145/2/2 155/2/2
f 155/2/2 145/2/2 156/2/2
f 146/2/2 147/2/2 157/2/2
f 157/2/2 147/2/2 158/2/2
f 148/2/2 149/2/2 159/2/2
f 159/2/2 149/2/2 160/2/2
f 150/2/2 151/2/2 161/2/2
f 161/2/2 151/2/2 162/2/2
f 152/2/2 153/2/2 163/2/2
f 163/2/2 153/2/2 164/2/2
f 154/2/2 142/2/2 165/2/2
f 165/2/2 142/2/2 166/2/2
f 167/2/2 168/2/2 170/2/2
f 169/2/2 170/2/2 171/2/2
f 170/2/2 168/2/2 172/2/2
f 171/2/2 170/2/2 172/2/2
f 173/2/2 174/2/2 176/2/2
f 175/2/2 176/2/2 177/2/2
f 176/2/2 174/2/2 178/2/2
f 177/2/2 176/2/2 178/2/2
f 179/2/2 180/2/2 183/2/2
f 183/2/2 180/2/2 184/2/2
f 181/2/2 182/2/2 185/2/2
f 185/2/2 182/2/2 186/2/2
f 187/2/2 188/2/2 189/2/2
f 189/2/2 188/2/2 190/2/2
f 191/2/2 192/2/2 193/2/2
f 193/2/2 192/2/2 194/2/2
f 195/1/2 196/1/2 197/1/2
f 197/1/2 196/1/2 198/1/2
f 198/1/2 196/1/2 199/1/2
f 199/1/2 196/1/2 200/1/2
f 200/1/2 196/1/2 201/1/2
f 201/1/2 196/1/2 202/1/2
f 202/1/2 196/1/2 203/1/2
f 203/1/2 196/1/2 204/1/2
f 204/1/2 196/1/2 205/1/2
f 205/1/2 196/1/2 206/1/2
f 206/1/2 196/1/2 207/1/2
f 207/1/2 196/1/2 208/1/2
f 208/1/2 196/1/2 209/1/2
f 209/1/2 196/1/2 210/1/2
f 197/2/2 198/2/2 211/2/2
f 211/2/2 198/2/2 212/2/2
f 199/2/2 200/2/2 213/2/2
f 213/2/2 200/2/2 214/2/2
f 201/2/2 202/2/2 215/2/2
f 215/2/2 202/2/2 216/2/2
f 203/2/2 204/2/2 217/2/2
f 217/2/2 204/2/2 218/2/2
f 205/2/2 206/2/2 219/2/2
f 219/2/2 206/2/2 220/2/2
f 207/2/2 208/2/2 221/2/2
f 221/2/2 208/2/2 222/2/2
f 209/2/2 210/2/2 223/2/2
f 223/2/2 210/2/2 224/2/2
f 228/1/3 226/1/3 225/1/3
f 228/2/3 227/2/3 226/2/3
f 229/2/3 227/2/3 228/2/3
f 230/1/3 228/1/3 225/1/3
f 232/1/3 230/1/3 225/1/3
f 232/2/3 231/2/3 230/2/3
f 233/2/3 231/2/3 232/2/3
f 234/1/3 232/1/3 225/1/3
f 236/1/3 234/1/3 225/1/3
f 236/2/3 235/2/3 234/2/3
f 237/2/3 235/2/3 236/2/3
f 238/1/3 236/1/3 225/1/3
f 240/1/3 238/1/3 225/1/3
f 240/2/3 239/2/3 238/2/3
f 241/2/3 239/2/3 240/2/3
f 242/1/3 240/1/3 225/1/3
f 244/1/3 242/1/3 225/1/3
f 245/2/3 243/2/3 242/2/3
f 245/1/3 242/1/3 244/1/3
f 246/2/3 243/2/3 245/2/3
f 249/2/3 248/2/3 247/2/3
f 250/2/3 248/2/3 249/2/3
f 253/2/3 252/2/3 251/2/3
f 254/2/3 252/2/3 253/2/3
f 257/2/3 256/2/3 255/2/3
f 258/2/3 256/2/3 257/2/3
f 261/2/3 260/2/3 259/2/3
f 262/2/3 260/2/3 261/2/3
f 265/2/3 264/2/3 263/2/3
f 266/2/3 264/2/3 265/2/3
f 269/2/3 268/2/3 267/2/3
f 270/2/3 268/2/3 269/2/3
f 273/2/3 272/2/3 271/2/3
f 274/2/3 272/2/3 273/2/3
f 277/2/3 276/2/3 275/2/3
f 278/2/3 276/2/3 277/2/3
f 281/2/3 280/2/3 279/2/3
f 282/2/3 280/2/3 281/2/3
f 285/2/3 284/2/3 283/2/3
f 286/2/3 284/2/3 285/2/3
f 289/2/3 288/2/3 287/2/3
f 290/2/3 288/2/3 289/2/3
f 293/2/3 292/2/3 291/2/3
f 294/2/3 292/2/3 293/2/3
f 297/2/3 296/2/3 295/2/3
f 298/2/3 296/2/3 297/2/3
f 301/2/3 300/2/3 299/2/3
f 302/2/3 300/2/3 301/2/3
f 305/2/3 304/2/3 303/2/3
f 306/2/3 304/2/3 305/2/3
f 309/2/3 308/2/3 307/2/3
f 310/2/3 308/2/3 309/2/3
f 313/2/3 312/2/3 311/2/3
f 314/2/3 312/2/3 313/2/3
f 317/2/3 316/2/3 315/2/3
f 318/2/3 316/2/3 317/2/3
f 319/1/4 320/1/4 321/1/4
f 321/1/4 320/1/4 322/1/4
f 323/1/4 324/1/4 325/1/4
f 325/1/4 324/1/4 326/1/4
f 327/1/4 328/1/4 329/1/4
f 329/1/4 328/1/4 330/1/4
f 331/2/4 332/2/4 333/2/4
f 333/2/4 332/2/4 334/2/4
f 335/2/4 336/2/4 337/2/4
f 337/2/4 336/2/4 338/2/4
f 339/2/4 340/2/4 341/2/4
f 341/2/4 340/2/4 342/2/4
f 343/2/4 344/2/4 345/2/4
f 345/2/4 344/2/4 346/2/4
f 346/2/4 344/2/4 347/2/4
f 347/2/4 344/2/4 348/2/4
f 349/2/4 350/2/4 351/2/4
f 351/2/4 350/2/4 352/2/4
f 353/2/4 354/2/4 355/2/4
f 355/2/4 354/2/4 356/2/4
f 357/2/4 358/2/4 359/2/4
f 359/2/4 358/2/4 360/2/4
f 361/2/4 362/2/4 363/2/4
f 363/2/4 362/2/4 364/2/4
f 365/2/4 366/2/4 367/2/4
f 367/2/4 366/2/4 368/2/4
f 369/2/4 370/2/4 371/2/4
f 371/2/4 370/2/4 372/2/4
f 373/2/4 374/2/4 375/2/4
f 375/2/4 374/2/4 376/2/4
f 377/2/4 378/2/4 379/2/4
f 379/2/4 378/2/4 380/2/4
f 381/2/4 382/2/4 383/2/4
f 383/2/4 382/2/4 384/2/4
f 385/2/4 386/2/4 387/2/4
f 387/2/4 386/2/4 388/2/4
f 389/2/4 390/2/4 391/2/4
f 391/2/4 390/2/4 392/2/4
f 393/2/4 394/2/4 395/2/4
f 395/2/4 394/2/4 396/2/4
f 397/2/4 398/2/4 399/2/4
f 399/2/4 398/2/4 400/2/4
f 401/2/4 402/2/4 403/2/4
f 403/2/4 402/2/4 404/2/4
f 405/2/4 406/2/4 407/2/4
f 407/2/4 406/2/4 408/2/4
f 409/2/4 410/2/4 411/2/4
f 411/2/4 410/2/4 412/2/4
f 413/1/4 414/1/4 416/1/4
f 414/2/4 415/2/4 416/2/4
f 416/2/4 415/2/4 417/2/4
f 413/1/4 416/1/4 418/1/4
f 418/1/4 416/1/4 419/1/4
f 418/2/4 419/2/4 421/2/4
f 419/2/4 420/2/4 421/2/4
f 421/2/4 420/2/4 422/2/4
f 423/2/4 424/2/4 425/2/4
f 425/2/4 424/2/4 426/2/4
f 425/1/4 426/1/4 427/1/4
f 426/2/4 424/2/4 428/2/4
f 427/1/4 426/1/4 428/1/4
f 428/2/4 424/2/4 429/2/4
f 432/1/5 431/1/5 430/1/5
f 433/1/5 431/1/5 432/1/5
f 434/1/5 431/1/5 433/1/5
f 435/1/5 431/1/5 434/1/5
f 436/1/5 431/1/5 435/1/5
f 437/1/5 431/1/5 436/1/5
f 438/1/5 431/1/5 437/1/5
f 439/2/5 434/2/5 433/2/5
f 440/2/5 434/2/5 439/2/5
f 441/2/5 436/2/5 435/2/5
f 442/2/5 436/2/5 441/2/5
f 443/2/5 438/2/5 437/2/5
f 444/1/5 431/1/5 438/1/5
f 444/2/5 438/2/5 443/2/5
f 445/1/5 432/1/5 430/1/5
f 446/1/5 432/1/5 445/1/5
f 447/1/5 431/1/5 444/1/5
f 448/1/5 431/1/5 447/1/5
f 449/2/5 446/2/5 445/2/5
f 449/1/5 445/1/5 430/1/5
f 450/2/5 446/2/5 449/2/5
f 451/2/5 448/2/5 447/2/5
f 452/1/5 431/1/5 448/1/5
f 452/2/5 448/2/5 451/2/5
f 453/1/5 450/1/5 449/1/5
f 453/1/5 449/1/5 430/1/5
f 454/1/5 450/1/5 453/1/5
f 455/1/5 452/1/5 451/1/5
f 456/1/5 431/1/5 452/1/5
f 456/1/5 452/1/5 455/1/5
f 457/2/5 454/2/5 453/2/5
f 457/1/5 453/1/5 430/1/5
f 458/2/5 454/2/5 457/2/5
f 459/2/5 456/2/5 455/2/5
f 460/1/5 431/1/5 456/1/5
f 460/2/5 456/2/5 459/2/5
f 461/1/5 458/1/5 457/1/5
f 461/1/5 457/1/5 430/1/5
f 462/1/5 458/1/5 461/1/5
f 463/1/5 460/1/5 459/1/5
f 464/1/5 431/1/5 460/1/5
f 464/1/5 460/1/5 463/1/5
f 465/2/5 462/2/5 461/2/5
f 465/1/5 461/1/5 430/1/5
f 466/2/5 462/2/5 465/2/5
f 467/2/5 464/2/5 463/2/5
f 468/1/5 431/1/5 464/1/5
f 468/2/5 464/2/5 467/2/5
f 469/1/5 466/1/5 465/1/5
f 469/1/5 465/1/5 430/1/5
f 470/1/5 466/1/5 469/1/5
f 471/1/5 468/1/5 467/1/5
f 472/1/5 431/1/5 468/1/5
f 472/1/5 468/1/5 471/1/5
f 473/2/5 470/2/5 469/2/5
f 473/1/5 469/1/5 430/1/5
f 474/2/5 470/2/5 473/2/5
f 475/2/5 472/2/5 471/2/5
f 476/1/5 431/1/5 472/1/5
f 476/2/5 472/2/5 475/2/5
f 477/1/5 474/1/5 473/1/5
f 477/1/5 473/1/5 430/1/5
f 478/1/5 474/1/5 477/1/5
f 479/1/5 476/1/5 475/1/5
f 480/1/5 431/1/5 476/1/5
f 480/1/5 476/1/5 479/1/5
f 481/2/5 478/2/5 477/2/5
f 481/1/5 477/1/5 430/1/5
f 482/2/5 478/2/5 481/2/5
f 483/2/5 480/2/5 479/2/5
f 484/1/5 431/1/5 480/1/5
f 484/2/5 480/2/5 483/2/5
f 485/1/5 482/1/5 481/1/5
f 485/1/5 481/1/5 430/1/5
f 486/1/5 482/1/5 485/1/5
f 487/1/5 484/1/5 483/1/5
f 488/1/5 431/1/5 484/1/5
f 488/1/5 484/1/5 487/1/5
f 489/1/5 485/1/5 430/1/5
f 490/2/5 486/2/5 485/2/5
f 490/1/5 485/1/5 489/1/5
f 491/2/5 486/2/5 490/2/5
f 492/2/5 488/2/5 487/2/5
f 493/1/5 431/1/5 488/1/5
f 493/2/5 488/2/5 492/2/5
f 494/1/5 431/1/5 493/1/5
f 495/1/6 496/1/6 503/1/6
f 503/1/6 496/1/6 504/1/6
f 497/1/6 498/1/6 505/1/6
f 505/1/6 498/1/6 506/1/6
f 499/1/6 500/1/6 507/1/6
f 507/1/6 500/1/6 508/1/6
f 495/1/6 503/1/6 510/1/6
f 501/1/6 502/1/6 512/1/6
f 512/1/6 502/1/6 513/1/6
f 509/1/6 510/1/6 515/1/6
f 515/1/6 510/1/6 516/1/6
f 510/1/6 503/1/6 517/1/6
f 516/1/6 510/1/6 517/1/6
f 517/1/6 503/1/6 518/1/6
f 513/1/6 514/1/6 519/1/6
f 511/1/6 512/1/6 519/1/6
f 512/1/6 513/1/6 519/1/6
f 519/1/6 514/1/6 520/1/6
f 520/1/6 514/1/6 521/1/6
f 521/1/6 514/1/6 522/1/6
f 516/1/6 517/1/6 524/1/6
f 524/1/6 517/1/6 525/1/6
f 520/1/6 521/1/6 528/1/6
f 528/1/6 521/1/6 529/1/6
f 525/1/6 526/1/6 531/1/6
f 523/1/6 524/1/6 531/1/6
f 524/1/6 525/1/6 531/1/6
f 531/1/6 526/1/6 532/1/6
f 529/1/6 530/1/6 533/1/6
f 528/1/6 529/1/6 533/1/6
f 527/1/6 528/1/6 533/1/6
f 533/1/6 530/1/6 534/1/6
f 535/1/6 536/1/6 539/1/6
f 539/1/6 536/1/6 540/1/6
f 537/1/6 538/1/6 541/1/6
f 541/1/6 538/1/6 542/1/6
f 542/1/6 538/1/6 543/1/6
f 543/1/6 538/1/6 544/1/6
f 542/1/6 543/1/6 548/1/6
f 548/1/6 543/1/6 549/1/6
f 545/1/6 546/1/6 551/1/6
f 551/1/6 546/1/6 552/1/6
f 552/1/6 546/1/6 553/1/6
f 553/1/6 546/1/6 554/1/6
f 549/1/6 550/1/6 555/1/6
f 547/1/6 548/1/6 555/1/6
f 548/1/6 549/1/6 555/1/6
f 555/1/6 550/1/6 556/1/6
f 552/1/6 553/1/6 558/1/6
f 558/1/6 553/1/6 559/1/6
f 557/1/6 558/1/6 563/1/6
f 558/1/6 559/1/6 563/1/6
f 559/1/6 560/1/6 563/1/6
f 563/1/6 560/1/6 564/1/6
f 561/1/6 562/1/6 565/1/6
f 565/1/6 562/1/6 566/1/6
f 566/1/6 562/1/6 567/1/6
f 567/1/6 562/1/6 568/1/6
f 566/1/6 567/1/6 572/1/6
f 572/1/6 567/1/6 573/1/6
f 569/1/6 570/1/6 575/1/6
f 575/1/6 570/1/6 576/1/6
f 576/1/6 570/1/6 577/1/6
f 577/1/6 570/1/6 578/1/6
f 573/1/6 574/1/6 579/1/6
f 571/1/6 572/1/6 579/1/6
f 572/1/6 573/1/6 579/1/6
f 579/1/6 574/1/6 580/1/6
f 576/1/6 577/1/6 581/1/6
f 581/1/6 577/1/6 582/1/6
f 583/2/6 584/2/6 593/2/6
f 593/2/6 584/2/6 594/2/6
f 585/2/6 586/2/6 595/2/6
f 595/2/6 586/2/6 596/2/6
f 587/2/6 588/2/6 597/2/6
f 597/2/6 588/2/6 598/2/6
f 589/2/6 590/2/6 599/2/6
f 599/2/6 590/2/6 600/2/6
f 591/2/6 592/2/6 601/2/6
f 601/2/6 592/2/6 602/2/6
f 603/2/6 604/2/6 611/2/6
f 611/2/6 604/2/6 612/2/6
f 605/2/6 606/2/6 613/2/6
f 613/2/6 606/2/6 614/2/6
f 607/2/6 608/2/6 615/2/6
f 615/2/6 608/2/6 616/2/6
f 609/2/6 610/2/6 617/2/6
f 617/2/6 610/2/6 618/2/6
f 619/2/6 620/2/6 623/2/6
f 623/2/6 620/2/6 624/2/6
f 621/2/6 622/2/6 625/2/6
f 625/2/6 622/2/6 626/2/6
f 627/2/6 628/2/6 633/2/6
f 633/2/6 628/2/6 634/2/6
f 629/2/6 630/2/6 635/2/6
f 635/2/6 630/2/6 636/2/6
f 631/2/6 632/2/6 637/2/6
f 637/2/6 632/2/6 638/2/6
f 639/2/6 640/2/6 645/2/6
f 645/2/6 640/2/6 646/2/6
f 641/2/6 642/2/6 647/2/6
f 647/2/6 642/2/6 648/2/6
f 643/2/6 644/2/6 649/2/6
f 649/2/6 644/2/6 650/2/6
f 651/2/6 652/2/6 657/2/6
f 657/2/6 652/2/6 658/2/6
f 653/2/6 654/2/6 659/2/6
f 659/2/6 654/2/6 660/2/6
f 655/2/6 656/2/6 661/2/6
f 661/2/6 656/2/6 662/2/6
f 663/2/6 664/2/6 669/2/6
f 669/2/6 664/2/6 670/2/6
f 665/2/6 666/2/6 671/2/6
f 671/2/6 666/2/6 672/2/6
f 667/2/6 668/2/6 673/2/6
f 673/2/6 668/2/6 674/2/6
